<?xml version="1.0" encoding="UTF-8"?>
<svg width="128pt" height="128pt" version="1.1" viewBox="0 0 128 128" xmlns="http://www.w3.org/2000/svg">
 <path d="m66.879 122.56 53.992-53.988c2.8789-2.8828 4.4961-6.793 4.4922-10.867v-45.48c0-2.543-1.0117-4.9883-2.8125-6.7852-1.8008-1.8008-4.2422-2.8125-6.7891-2.8125h-45.465c-4.0742-0.003906-7.9844 1.6133-10.867 4.4922l-53.988 54.004c-1.8047 1.8008-2.8164 4.2422-2.8164 6.7891s1.0117 4.9883 2.8164 6.7891l47.859 47.859c1.8008 1.8047 4.2422 2.8164 6.7891 2.8164s4.9883-1.0117 6.7891-2.8164zm30.582-100.66c3.4922 0 6.6445 2.1055 7.9805 5.332 1.3359 3.2305 0.59766 6.9453-1.8711 9.4141-2.4727 2.4727-6.1875 3.2109-9.418 1.875-3.2266-1.3359-5.332-4.4883-5.332-7.9844 0-4.7695 3.8672-8.6367 8.6406-8.6367z" fill="#fff"/>
</svg>
