<svg width="34" height="56" viewBox="0 0 34 56" fill="none" xmlns="http://www.w3.org/2000/svg">
<path d="M13.1529 39.1797L13.1445 39.2442H13.7663C13.5824 39.2174 13.3775 39.1957 13.1529 39.1797Z" fill="#2B4666"/>
<path d="M20.6385 22.7076C20.6208 22.7085 20.5962 22.7085 20.5708 22.7085C19.5566 22.7085 18.7106 22.0349 18.451 21.1016C18.3379 21.1752 18.2222 21.2456 18.1035 21.3112C18.3775 21.5239 18.8023 21.8745 19.2855 22.349C20.3816 23.4307 21.1897 24.5412 21.757 25.7456C22.2929 26.8868 22.5642 28.0562 22.5642 29.2221C22.5682 30.2896 22.3261 31.3684 21.8646 32.3989V39.2874C21.8673 39.3012 21.8706 39.3147 21.8731 39.3286C23.0181 39.6193 23.8689 40.656 23.8689 41.8903V49.728C24.0991 49.7913 24.3403 49.8277 24.5902 49.8277C26.0956 49.8277 27.3164 48.6075 27.3164 47.1019V22.0997C25.5163 22.4246 23.3216 22.6229 20.6384 22.7077L20.6385 22.7076Z" fill="#2B4666"/>
<path d="M1.27165 51.8093H3.47646L3.47628 50.7073C2.37415 47.1114 1.84584 44.2225 1.83618 41.7865C1.83636 41.0851 1.88449 40.429 1.97509 39.8096C1.11665 40.1109 0.5 40.9265 0.5 41.8882V50.4866H1.27163L1.27165 51.8093Z" fill="#2B4666"/>
<path d="M15.4775 41.7891C15.4779 40.5952 15.2511 40.0546 15.1536 39.8777C15.1009 39.7893 15.063 39.7323 15.0176 39.6851H8.91362C8.85693 39.7412 8.80424 39.811 8.73023 39.9678C8.62632 40.192 8.45041 40.7307 8.45132 41.7858C8.44403 42.971 8.69687 45.6079 10.3504 50.4882H13.5786C15.2319 45.6083 15.4845 42.9716 15.4775 41.7891Z" fill="#2B4666"/>
<path d="M20.4531 50.7079V51.811H22.6579V50.4881H23.4296V41.8897C23.4296 40.928 22.8129 40.1127 21.9545 39.811C22.0451 40.4292 22.0917 41.0847 22.0923 41.7856C22.0826 44.2245 21.5546 47.1131 20.4531 50.7083L20.4531 50.7079Z" fill="#2B4666"/>
<path d="M2.27742 41.7861C2.28963 44.9003 3.15424 48.7679 5.08069 54.1098C5.61974 55.5981 7.26343 56.3666 8.75149 55.8276C10.2401 55.2885 11.0092 53.6448 10.4696 52.1568C8.65247 47.1686 7.99787 43.7731 8.00991 41.7865C8.009 40.7369 8.17799 40.1109 8.33111 39.7798C8.44997 39.5273 8.54694 39.4187 8.66689 39.3117C8.84171 39.1604 9.15563 38.9927 9.73346 38.8713C9.74804 38.8682 9.76427 38.8658 9.77885 38.8627L14.1409 38.8625C14.4807 38.9298 14.7494 39.0164 14.9363 39.1061C15.2575 39.2745 15.3623 39.3649 15.5395 39.6646C15.7061 39.9665 15.9188 40.6027 15.9185 41.7863C15.9307 43.7729 15.2761 47.1693 13.4588 52.1566C12.9198 53.6449 13.6887 55.2884 15.1769 55.8274C15.4994 55.9441 15.8293 55.9997 16.1536 55.9997C17.3261 55.9997 18.4261 55.2754 18.8484 54.1099V54.1095C20.7749 48.7685 21.6388 44.9012 21.6508 41.7862C21.6499 40.1467 21.3978 38.6855 20.8106 37.3967C20.5002 36.7125 20.0871 36.0911 19.6055 35.5586C18.8847 36.2732 18.0351 36.9624 17.0372 37.6362C16.671 37.8827 16.2455 38.013 15.806 38.013C15.0706 38.013 14.3867 37.6497 13.976 37.0407C13.6467 36.5523 13.5275 35.9653 13.6398 35.3871C13.7521 34.8088 14.083 34.3088 14.5715 33.9794C15.9327 33.0626 16.9231 32.1279 17.5154 31.2013C17.6907 30.9246 17.826 30.6606 17.9273 30.4003V26.978C18.3349 27.6876 18.6058 28.4633 18.5976 29.2223C18.593 29.8821 18.4292 30.5826 17.887 31.4392C17.3431 32.2903 16.3915 33.2856 14.8179 34.3455C14.0102 34.8903 13.7969 35.9865 14.3418 36.7942C14.6825 37.2997 15.2387 37.5722 15.806 37.5722C16.1452 37.5722 16.4881 37.4745 16.7903 37.2709C18.6566 36.0109 19.9832 34.7057 20.8584 33.3403C21.7348 31.9801 22.1297 30.5476 22.1248 29.2223C22.1248 27.9939 21.8045 26.8812 21.3595 25.9333C20.6881 24.5089 19.7477 23.4231 18.9783 22.6637C18.3863 22.0831 17.8898 21.6972 17.6636 21.5299C16.9687 21.8381 16.2007 22.0108 15.3928 22.0108C14.2106 22.0108 13.113 21.6433 12.2068 21.0175L7.70569 21.0171C7.45704 21.0171 7.22152 21.0716 7.00858 21.1675C6.79402 21.2162 6.58475 21.3047 6.393 21.438C6.3343 21.479 5.72291 21.9067 4.95123 22.6636C4.18179 23.4232 3.24113 24.5087 2.56997 25.9331C2.12499 26.8809 1.80473 27.9937 1.80473 29.2222C1.80017 30.5474 2.19483 31.9799 3.07112 33.3402C3.94612 34.7055 5.27286 36.0108 7.13915 37.2708C7.44139 37.4746 7.78427 37.5721 8.12354 37.5721C8.69063 37.5721 9.24699 37.2996 9.58771 36.7941C10.1326 35.9863 9.9193 34.8898 9.11157 34.3453C7.53801 33.2855 6.58648 32.2903 6.04249 31.4391C5.50036 30.5825 5.33684 29.8819 5.33189 29.2222C5.32369 28.4633 5.59439 27.6875 6.00216 26.9776V30.4C6.10388 30.661 6.23914 30.9253 6.41488 31.2032C7.00605 32.1276 7.99664 33.0627 9.35814 33.9793C9.84632 34.3087 10.1772 34.8087 10.2898 35.3869C10.4021 35.9652 10.2827 36.5521 9.95315 37.0405C9.543 37.6496 8.85868 38.0129 8.12368 38.0129C7.68399 38.0129 7.25871 37.8825 6.89285 37.6364C5.89478 36.9626 5.04512 36.2732 4.32436 35.5588C3.95448 35.9641 3.6231 36.4201 3.35346 36.9258C2.59951 38.3174 2.27793 39.9459 2.27737 41.7866L2.27742 41.7861Z" fill="#2B4666"/>
<path d="M29.9116 4.96067C29.9116 7.70033 27.6907 9.92134 24.9509 9.92134C22.2112 9.92134 19.9902 7.70029 19.9902 4.96067C19.9902 2.22106 22.2111 0 24.9509 0C27.6908 0 29.9116 2.22106 29.9116 4.96067Z" fill="#2B4666"/>
<path d="M15.3918 21.5694C18.2534 21.5694 20.5727 19.2497 20.5727 16.3885C20.5727 13.5272 18.2531 11.2075 15.3918 11.2075C13.4737 11.2075 11.8003 12.2506 10.9045 13.7997C10.903 13.8841 10.9021 13.9705 10.9021 14.0597C10.9018 14.7777 10.9594 15.5893 11.0739 16.4739C11.1495 17.0574 10.9929 17.636 10.6334 18.1025C10.6043 18.1404 10.5724 18.1752 10.541 18.211C11.2789 20.173 13.1719 21.5697 15.392 21.5697L15.3918 21.5694Z" fill="#2B4666"/>
<path d="M7.13988 16.982C7.2549 17.8716 8.01324 18.5199 8.8868 18.5199C8.96227 18.5199 9.03847 18.5149 9.11521 18.5051C10.0814 18.3802 10.7635 17.4959 10.6385 16.5302C10.5163 15.5872 10.4625 14.7661 10.4629 14.0601C10.4611 12.7647 10.647 11.8657 10.8807 11.2951C11.0204 10.9595 11.1629 10.7358 11.3091 10.5708C11.4125 10.4541 11.5175 10.3659 11.6245 10.2921C11.6254 10.2917 11.6263 10.2912 11.6272 10.2906C11.9364 10.0629 12.7625 9.85167 13.787 9.86352C15.0023 9.8606 16.4333 10.1034 17.5626 10.3652L17.3858 11.1319C19.5049 11.938 21.0152 13.9895 21.0152 16.3885C21.0152 17.0571 20.8973 17.6986 20.6823 18.294C23.8739 18.1964 26.525 17.8712 28.1835 17.383L28.796 14.7261C29.1606 15.0714 29.4846 15.4184 29.7259 15.7376C30.1408 16.2672 30.2564 16.6923 30.2387 16.7572C30.2272 16.8079 30.2633 16.7612 30.1703 16.8877C30.0746 17.0046 29.7775 17.2532 29.1659 17.5065C29.1652 17.5068 29.1645 17.5072 29.1636 17.5074C27.8033 18.0863 25.0224 18.6157 20.5218 18.741C20.5134 18.7411 20.5052 18.7424 20.4968 18.743C20.1175 19.5622 19.5466 20.2751 18.8418 20.8242C18.9935 21.6491 19.7142 22.2676 20.5732 22.2676C20.5913 22.2676 20.609 22.2672 20.627 22.2667C25.3562 22.1174 28.4185 21.6274 30.5246 20.7619C30.5247 20.7619 30.5249 20.7617 30.5255 20.7617C31.4745 20.363 32.2558 19.8701 32.8484 19.1845C33.4441 18.5086 33.7788 17.5989 33.767 16.7571C33.7661 16.0731 33.5852 15.4562 33.3366 14.9136C32.8938 13.9627 32.2427 13.1832 31.5375 12.4703C30.293 11.2318 28.8227 10.1946 27.8102 9.54091C26.9803 10.0606 26.0006 10.3623 24.9513 10.3623C22.8479 10.3623 21.0224 9.15302 20.1307 7.39392C19.736 7.27689 19.1758 7.12048 18.5094 6.96316C17.2009 6.65655 15.501 6.33899 13.7872 6.33643C12.4101 6.34827 10.9806 6.51416 9.6887 7.34415C9.6856 7.34615 9.6825 7.34761 9.6794 7.34962C8.79273 7.93076 8.06356 8.8415 7.6122 9.96879C7.60929 9.97608 7.60692 9.98355 7.604 9.99102C7.15283 11.1176 6.93681 12.4523 6.93555 14.0601C6.93573 14.943 7.0019 15.9121 7.14026 16.9821L7.13988 16.982Z" fill="#2B4666"/>
</svg>
