<svg xmlns="http://www.w3.org/2000/svg" xmlns:xlink="http://www.w3.org/1999/xlink" width="302px" height="44px" viewBox="0 0 302 44"><title>BlueCross_Logo</title><g id="Symbols" stroke="none" stroke-width="1" fill="none" fill-rule="evenodd"><g id="1---Nav/Primary/Button" transform="translate(-210.000000, -23.000000)" fill="#0099D8" fill-rule="nonzero"><g id="BlueCross_Logo" transform="translate(210.000000, 23.000000)"><polygon id="Path" points="12.3725415 0 30.8363631 0 30.8363631 12.1944339 43.030797 12.1944339 43.030797 30.6582555 30.8363631 30.6582555 30.8363631 43.030797 12.3725415 43.030797 12.3725415 30.6582555 0 30.6582555 0 12.1706862 12.3725415 12.1944339"></polygon><path d="M59.2267151,19.5918364 L68.8682734,19.5918364 C69.865676,19.5918364 70.4474942,19.2237474 70.4474942,18.2263448 C70.4474942,17.2289422 69.8181806,16.8252316 68.8682734,16.8252316 L59.2267151,16.8252316 L59.2267151,19.5918364 Z M59.2267151,26.0037101 L68.9395164,26.0037101 C70.1269005,26.0037101 70.8868262,25.7306118 70.8868262,24.7094615 C70.8868262,23.6883113 70.1031528,23.2489792 68.9395164,23.2489792 L59.2267151,23.2489792 L59.2267151,26.0037101 Z M53.8241178,12.5862707 L69.4025962,12.5862707 C73.7128002,12.5862707 75.8144699,13.7736547 75.8144699,17.2170684 C75.8144699,20.2448976 74.7220766,20.7792204 73.2022251,21.2660479 L73.2022251,21.3729124 C75.5769931,21.6697584 76.4437835,22.9402593 76.4437835,25.5999996 C76.4437835,29.4708715 74.1521323,30.2782926 71.0649338,30.2782926 L53.8241178,30.2782926 L53.8241178,12.5862707 Z" id="Shape"></path><polygon id="Path" points="80.5758799 12.5981445 85.990351 12.5981445 85.990351 25.7068641 98.1610373 25.7068641 98.1610373 30.2426711 80.5758799 30.2426711"></polygon><path d="M100.820777,12.5862707 L106.235249,12.5862707 L106.235249,22.7858994 C106.235249,25.0300552 107.04267,25.8968456 109.263078,25.8968456 L114.61818,25.8968456 C116.838588,25.8968456 117.646009,25.0300552 117.646009,22.7858994 L117.646009,12.5862707 L123.06048,12.5862707 L123.06048,23.9495358 C123.06048,28.3428567 120.792577,30.4326525 115.817438,30.4326525 L108.051946,30.4326525 C103.076807,30.4326525 100.808904,28.3428567 100.808904,23.9495358 L100.820777,12.5862707 Z" id="Path"></path><polygon id="Path" points="127.085712 12.5981445 146.40445 12.5981445 146.40445 16.6827455 132.500183 16.6827455 132.500183 19.5087195 145.668272 19.5087195 145.668272 23.1658623 132.500183 23.1658623 132.500183 26.0037101 146.71317 26.0037101 146.71317 30.2426711 127.085712 30.2426711"></polygon><path d="M162.386639,18.7844153 C162.386639,13.6074209 165.283856,12.3962892 170.164005,12.3962892 L176.528383,12.3962892 C184.234505,12.3962892 185.231908,14.046753 185.184412,19.0575136 L179.769941,19.0575136 L179.769941,18.5588123 C179.769941,17.3001852 178.843782,16.9320962 177.228939,16.9320962 L171.292019,16.9320962 C168.430424,16.9320962 167.896101,18.2738401 167.896101,20.4942483 L167.896101,22.3940627 C167.896101,24.9469383 168.430424,25.9562148 170.995173,25.9562148 L176.777734,25.9562148 C179.211871,25.9562148 179.936175,25.7068641 179.936175,23.5102037 L185.350646,23.5102037 L185.350646,25.1725413 C185.350646,28.1410014 184.282001,30.4801479 178.843782,30.4801479 L170.116509,30.4801479 C165.236361,30.4801479 162.339144,29.2927639 162.339144,24.0920219 L162.386639,18.7844153 Z" id="Path"></path><path d="M194.457882,21.2660479 L203.398883,21.2660479 C204.87124,21.2660479 205.405562,20.6842297 205.405562,19.4137288 L205.405562,18.8319106 C205.405562,17.2764376 204.621889,16.9795915 202.912056,16.9795915 L194.457882,16.9795915 L194.457882,21.2660479 Z M189.04341,12.5862707 L205.417436,12.5862707 C209.597028,12.5862707 210.713169,14.6641927 210.713169,17.834508 L210.713169,18.9981444 C210.713169,21.3729124 210.178846,22.7502779 207.697214,23.3439699 L207.697214,23.3439699 C209.300182,23.6408159 210.641926,24.3413725 210.641926,27.2385895 L210.641926,30.2426711 L205.179959,30.2426711 L205.179959,28.1172537 C205.179959,26.2649346 204.645637,25.6593688 202.959551,25.6593688 L194.457882,25.6593688 L194.457882,30.2426711 L189.04341,30.2426711 L189.04341,12.5862707 Z" id="Shape"></path><path d="M219.8679,22.370315 C219.8679,24.9231907 220.402223,25.9324671 222.966972,25.9324671 L229.889421,25.9324671 C232.45417,25.9324671 232.988493,24.9469383 232.988493,22.370315 L232.988493,20.4705006 C232.988493,18.2738401 232.45417,16.9083485 229.604449,16.9083485 L223.228197,16.9083485 C220.366601,16.9083485 219.832278,18.2500925 219.832278,20.4705006 L219.8679,22.370315 Z M214.310943,18.8081629 C214.310943,13.6311686 217.220033,12.4200369 222.088308,12.4200369 L230.768085,12.4200369 C235.648233,12.4200369 238.54545,13.6074209 238.54545,18.8081629 L238.54545,24.0682742 C238.54545,29.2452685 235.648233,30.4564002 230.768085,30.4564002 L222.040813,30.4564002 C217.172538,30.4564002 214.263447,29.2690162 214.263447,24.0682742 L214.310943,18.8081629 Z" id="Shape"></path><path d="M241.870126,24.4601109 L247.284597,24.4601109 C247.284597,26.3480515 248.06827,26.4905376 249.659365,26.4905376 L256.296842,26.4905376 C257.484226,26.4905376 258.67161,26.3599253 258.67161,24.9944337 C258.67161,23.6289421 258.030422,23.3677176 251.060478,23.3677176 C242.915024,23.3677176 241.988864,22.3940627 241.988864,18.0482372 C241.988864,14.8541741 242.28571,12.3962892 249.113168,12.3962892 L256.664931,12.3962892 C262.910571,12.3962892 263.492389,14.5098328 263.492389,17.6089051 L263.492389,18.1669756 L258.077918,18.1669756 C258.077918,16.8846008 257.935432,16.3384042 255.441925,16.3384042 L249.505005,16.3384042 C248.317621,16.3384042 247.450831,16.7539886 247.450831,17.7038958 C247.450831,19.247495 248.115766,19.2949904 253.9102,19.2712427 C262.328752,19.2712427 264.276062,19.7580702 264.276062,24.899443 C264.276062,29.6489791 262.66122,30.4326525 255.477547,30.4326525 L248.911313,30.4326525 C243.995543,30.4326525 242.012612,29.506493 242.012612,25.6831164 L241.870126,24.4601109 Z" id="Path"></path><path d="M267.529494,24.4601109 L272.943966,24.4601109 C272.943966,26.3480515 273.727639,26.4905376 275.318734,26.4905376 L281.95621,26.4905376 C283.143594,26.4905376 284.271609,26.3599253 284.271609,24.9944337 C284.271609,23.6289421 283.630422,23.3677176 276.660478,23.3677176 C268.515023,23.3677176 267.588864,22.3940627 267.588864,18.0482372 C267.588864,14.8541741 267.88571,12.3962892 274.713168,12.3962892 L282.26493,12.3962892 C288.51057,12.3962892 289.092388,14.5098328 289.092388,17.6089051 L289.092388,18.1669756 L283.677917,18.1669756 C283.677917,16.8846008 283.535431,16.3384042 281.053799,16.3384042 L275.116878,16.3384042 C273.929494,16.3384042 273.062704,16.7539886 273.062704,17.7038958 C273.062704,19.247495 273.727639,19.2949904 279.522073,19.2712427 C287.940626,19.2712427 289.887936,19.7580702 289.887936,24.899443 C289.887936,29.6489791 288.273093,30.4326525 281.08942,30.4326525 L274.523186,30.4326525 C269.607417,30.4326525 267.624485,29.506493 267.624485,25.6831164 L267.529494,24.4601109 Z" id="Path"></path><path d="M296.347305,16.279035 L297.72467,16.279035 C298.769568,16.279035 299.007045,15.8515767 299.007045,15.3410016 C299.007045,14.6523189 298.294615,14.5929497 297.748418,14.5929497 L296.347305,14.5929497 L296.347305,16.279035 Z M299.67198,19.1881258 L298.852685,19.1881258 L297.368455,16.9083485 L296.347305,16.9083485 L296.347305,19.1881258 L295.658622,19.1881258 L295.658622,13.97551 L297.926526,13.97551 C298.864559,13.97551 299.778845,14.2367345 299.778845,15.3528754 C299.778845,16.4690164 299.090162,16.8014839 298.152128,16.8252316 L299.67198,19.1881258 Z M293.438196,16.5521333 C293.431666,18.7096154 295.175339,20.4639101 297.332822,20.4704829 C299.490304,20.4770188 301.244604,18.7333509 301.251183,16.5758688 C301.257726,14.4183868 299.514063,12.6640814 297.356581,12.6575137 C295.201767,12.6575137 293.451273,14.3973586 293.438196,16.5521333 M301.999253,16.5521333 C302.008855,18.4438114 300.875454,20.154127 299.129591,20.8824837 C297.383729,21.6108404 295.370873,21.2131132 294.033237,19.8754775 C292.695601,18.5378419 292.297874,16.5249852 293.026231,14.779123 C293.754587,13.0332609 295.464903,11.8998592 297.356581,11.9094012 C298.60134,11.9060695 299.795053,12.4039435 300.668507,13.2908005 C301.54196,14.1776576 302.021599,15.3788132 301.999253,16.6233763" id="Shape"></path></g></g></g></svg>