<svg xmlns="http://www.w3.org/2000/svg" width="39" height="54" viewBox="0 0 39 54" fill="none"><path d="M0 38.2695H38.6764V41.5702H0V38.2695Z" fill="#F5F7FA"></path><path d="M22.56 41.2437V53.9999H16.1133V41.2437H22.56Z" fill="#F5F7FA"></path><path d="M30.0547 30.8126C30.0547 28.5949 31.8226 26.7979 34.0035 26.7979C36.1837 26.7979 37.9518 28.5949 37.9518 30.8126C37.9518 33.0296 36.1839 34.8273 34.0035 34.8273C31.8226 34.8271 30.0547 33.0296 30.0547 30.8126Z" fill="#F5F7FA"></path><path d="M29.4906 35.4014L36.824 35.402C37.446 35.402 37.9515 35.9156 37.9515 36.5493C37.9515 37.1835 37.446 37.696 36.824 37.696H27.2344V31.9604C27.2344 31.3274 27.7399 30.8125 28.3631 30.8125C28.9858 30.8125 29.4907 31.3274 29.4907 31.9604V35.4012" fill="#F5F7FA"></path><path d="M0.722656 37.6957V35.4019C0.722656 32.8669 2.74268 30.813 5.23448 30.813H26.6674V37.6961H0.722951" fill="#F5F7FA"></path><path d="M20.9488 0H17.7258V14.7488H9.66887C7.88797 14.7488 6.44531 16.2169 6.44531 18.026V18.8449H32.2288V18.026C32.2288 16.2169 30.7867 14.7488 29.0058 14.7488H20.9489V0" fill="#F5F7FA"></path></svg>