<svg xmlns="http://www.w3.org/2000/svg" width="100pt" height="100pt" viewBox="0 0 100 100"><path d="m24.461 70.008c-4.5039-3.2734-8.2617-7.5273-10.891-12.465-2.6289-4.9375-4.1328-10.551-4.1328-16.539 0-9.9414 4.0352-18.941 10.562-25.453 6.5195-6.5195 15.535-10.551 25.492-10.551 3.8945 0 7.6484 0.61719 11.164 1.7578 3.5195 1.1406 6.8047 2.8086 9.7656 4.9062 2.7109 1.9297 5.125 4.2344 7.1875 6.8242 2.0625 2.5977 3.7695 5.4883 5.0703 8.5898l11.703 27.875c0.058594 0.16016 0.10547 0.33203 0.13672 0.50781 0.03125 0.17578 0.046875 0.35547 0.046875 0.53906 0 0.81641-0.32422 1.5586-0.85547 2.0977-0.52734 0.54297-1.2656 0.88281-2.0742 0.90234h-9.0859v6.0039l-15.027-0.003906c-1.8867 0-2.2617 1.125-2.2695 2.25-0.011718 1.125 0.34375 2.25 2.2695 2.25h15.023v7.4961c0 1.6562-0.67578 3.1562-1.7617 4.2461-1.0898 1.082-2.5938 1.7578-4.2539 1.7578h-8.9375c-0.90234 0-1.6523 0.33594-2.1992 0.87891-0.54297 0.54297-0.87891 1.293-0.87891 2.1211v9h-36.055v-24.992" fill="#fff" fill-rule="evenodd"></path></svg>