<svg xmlns="http://www.w3.org/2000/svg" width="100pt" height="100pt" viewBox="0 0 100 100"><path d="m75.484 43.23-16.859-4.7109v-6.5195h4.125c1.293 0 2.25-0.97656 2.25-2.2695v-6.3555h3c0.64062 0 0.94141-0.57031 0.71094-1.168l-3.2031-8.3398c-1.3633-6.7695-7.3477-11.867-14.52-11.867-8.1797 0-14.812 6.6328-14.812 14.812 0 4.5117 2.0195 8.5469 5.1992 11.266v10.371h-0.34766l-16.586 4.7422c-5.5156 1.5781-9.3164 6.6172-9.3164 12.355v42.453h11.625v-34.125h3v34.125h18.75v-1.6875c0-0.82812 0.67188-1.5 1.5-1.5s1.5 0.67188 1.5 1.5v1.6875h18.75v-34.125h3v34.125h11.625v-42.395c0-5.7656-3.8398-10.824-9.3906-12.375zm-23.984 46.859c0 0.82812-0.67188 1.5-1.5 1.5s-1.5-0.67188-1.5-1.5v-3.5c0-0.82812 0.67188-1.5 1.5-1.5s1.5 0.67188 1.5 1.5zm0-9.7227c0 0.82812-0.67188 1.5-1.5 1.5s-1.5-0.67188-1.5-1.5v-3.5c0-0.82813 0.67188-1.5 1.5-1.5s1.5 0.67187 1.5 1.5zm0-9.7227c0 0.82812-0.67188 1.5-1.5 1.5s-1.5-0.67188-1.5-1.5v-3.5c0-0.82812 0.67188-1.5 1.5-1.5s1.5 0.67188 1.5 1.5zm0-9.7188c0 0.82812-0.67188 1.5-1.5 1.5s-1.5-0.67188-1.5-1.5v-3.5c0-0.82812 0.67188-1.5 1.5-1.5s1.5 0.67188 1.5 1.5zm0-9.7227c0 0.82812-0.67188 1.5-1.5 1.5s-1.5-0.67188-1.5-1.5v-3.5c0-0.82812 0.67188-1.5 1.5-1.5s1.5 0.67188 1.5 1.5zm0-9.7227c0 0.82812-0.67188 1.5-1.5 1.5s-1.5-0.67188-1.5-1.5v-3.5c0-0.82812 0.67188-1.5 1.5-1.5s1.5 0.67188 1.5 1.5zm0-9.7227c0 0.82813-0.67188 1.5-1.5 1.5s-1.5-0.67187-1.5-1.5v-3.5c0-0.82812 0.67188-1.5 1.5-1.5s1.5 0.67188 1.5 1.5zm0.011719-13.434v3.7305l-0.011719-0.003907c-0.011719 0.82031-0.67578 1.4805-1.4961 1.4805-0.82812 0-1.5-0.67188-1.5-1.5v-0.16016h-3.375c-2.5391 0-4.6914-2.1211-4.6914-4.6602v-0.63281c0.027344-5.8164 4.7539-10.523 10.574-10.523 4.6875 0 8.6641 3.0508 10.051 7.2734 0.52344 1.5977-0.75 3.293-2.4336 3.293h-5.25c-0.96875 0.003906-1.8672 0.74219-1.8672 1.7031z" fill="#fff"></path></svg>