<svg xmlns="http://www.w3.org/2000/svg" width="100pt" height="100pt" viewBox="0 0 100 100"><path d="m93.82 48.375h-16.227c-0.13672-6.9922-1.1641-13.602-2.8867-19.488h13.73c0.85156 1.5547 1.6172 3.1641 2.2812 4.8203 0.89062 2.2148 1.6016 4.5234 2.1211 6.8984 0.55078 2.5156 0.88281 5.1172 0.98047 7.7734zm-31.273 43.648c0.27344-0.23828 0.54688-0.48438 0.82031-0.73828 1.1367-1.0664 2.2266-2.2695 3.2578-3.5977 1.1641-1.4922 2.2578-3.1484 3.2695-4.9453 1.4297-2.5312 2.6992-5.3438 3.7734-8.3867h12.793c-5.6133 8.3789-14.035 14.719-23.914 17.664zm-49-17.664h12.793c1.0703 3.043 2.3398 5.8555 3.7734 8.3867 1.0117 1.7969 2.1055 3.4492 3.2695 4.9453 1.0352 1.3281 2.1211 2.5312 3.2578 3.5977 0.27344 0.25391 0.54297 0.5 0.82031 0.73828-9.8789-2.9453-18.301-9.2891-23.914-17.664zm-7.3633-22.734h16.227c0.007813 0.56641 0.027344 1.1289 0.050782 1.6875 0.1875 4.6016 0.75781 9.0195 1.6562 13.152 0.007812 0.039062 0.011718 0.082031 0.023437 0.12109 0.33984 1.5508 0.72656 3.0586 1.1523 4.5234h-13.727c-3.2031-5.8203-5.1289-12.445-5.3828-19.488zm64.035-25.984h-18.59v-19.391c4.6406 0.5625 8.8906 3.5078 12.434 8.0547 2.4219 3.1016 4.5078 6.9453 6.1562 11.336zm1.1016 45.473h-19.695v-19.488h22.719c-0.011719 0.52344-0.027344 1.0391-0.046875 1.5547-0.17969 4.4062-0.72266 8.6328-1.5781 12.594-0.011719 0.039062-0.023438 0.078124-0.03125 0.11719-0.39453 1.7969-0.85156 3.5391-1.3672 5.2188zm15.137-45.473h-12.797c-1.8359-5.2031-4.2305-9.7344-7.0391-13.332-1.2773-1.6445-2.6445-3.0938-4.082-4.3359 9.8828 2.9453 18.305 9.2891 23.914 17.664zm-57.781 3.2461h19.699v19.488h-22.719c0.14453-7.0352 1.2188-13.656 3.0195-19.488zm-17.109 0h13.73c-1.7227 5.8867-2.75 12.492-2.8867 19.488h-16.227c0.097656-2.6562 0.42969-5.2578 0.98047-7.7734 0.51953-2.375 1.2305-4.6797 2.1211-6.8984 0.66406-1.6562 1.4297-3.2656 2.2812-4.8203zm36.809-22.637v19.391h-18.59c1.6484-4.3906 3.7344-8.2305 6.1562-11.336 3.543-4.5508 7.793-7.4922 12.434-8.0547zm25.969 42.125h-22.719v-19.488h19.699c1.8008 5.832 2.875 12.453 3.0195 19.488zm-36.883-40.398c-1.4375 1.2422-2.8047 2.6914-4.082 4.3359-2.8047 3.5977-5.2031 8.1289-7.0391 13.332h-12.797c5.6133-8.3789 14.035-14.719 23.914-17.664zm50.977 63.137h-13.727c0.42969-1.4648 0.8125-2.9766 1.1523-4.5234 0.007813-0.039063 0.015625-0.082032 0.023438-0.12109 0.89844-4.1328 1.4688-8.5547 1.6562-13.152 0.023437-0.55859 0.039062-1.1211 0.050781-1.6875h16.227c-0.25781 7.043-2.1797 13.668-5.3828 19.488zm-58.648 3.2461h18.586v19.391c-3.4258-0.41406-6.6406-2.1328-9.5156-4.832-1.0195-0.95703-1.9922-2.0352-2.9219-3.2227-1.1328-1.457-2.1953-3.0781-3.1758-4.8438-1.1016-1.9922-2.1016-4.1641-2.9766-6.4922zm21.836 19.391v-19.391h18.586c-0.875 2.3281-1.8711 4.5039-2.9766 6.4922-0.97656 1.7656-2.0391 3.3867-3.1758 4.8438-0.92969 1.1875-1.9023 2.2656-2.9219 3.2227-2.875 2.6992-6.0898 4.4141-9.5156 4.832zm-25.969-42.125h22.719v19.488h-19.695c-0.51953-1.6797-0.97656-3.4219-1.3672-5.2188-0.007812-0.039062-0.019531-0.082031-0.03125-0.11719-0.85547-3.9609-1.3984-8.1875-1.5781-12.594-0.019531-0.51562-0.035156-1.0352-0.046875-1.5547z" fill="#2a4566" fill-rule="evenodd"></path></svg>