<svg xmlns="http://www.w3.org/2000/svg" width="100pt" height="100pt" viewBox="0 0 100 100"><path d="m81.25 9.375v81.25c0 1.7266-1.3984 3.125-3.125 3.125h-56.25c-1.7266 0-3.125-1.3984-3.125-3.125v-81.25c0-1.7266 1.3984-3.125 3.125-3.125h56.25c0.82812 0 1.625 0.32812 2.2109 0.91406 0.58594 0.58594 0.91406 1.3828 0.91406 2.2109zm-40.508 7.8125h-9.4922c-1.2422 0-2.4336 0.49219-3.3164 1.3711-0.87891 0.88281-1.3711 2.0703-1.3711 3.3164v59.375c0 2.5859 2.1016 4.6875 4.6875 4.6875h37.945c2.5859 0 4.6875-2.1016 4.6875-4.6875v-59.375c0-2.5859-2.1016-4.6875-4.6875-4.6875h-9.7891c-0.71484-4.5078-4.625-7.9609-9.332-7.9609-4.7109 0-8.6172 3.4492-9.3359 7.9609zm9.3359-4.8359c3.4883 0 6.3203 2.8359 6.3203 6.3203 0 3.4922-2.8359 6.3242-6.3203 6.3242-3.4922 0-6.3242-2.8359-6.3242-6.3242s2.8359-6.3203 6.3242-6.3203zm9.3047 7.9609h9.8164c0.86328 0 1.5625 0.69922 1.5625 1.5625v59.375c0 0.86328-0.69922 1.5625-1.5625 1.5625h-37.945c-0.86328 0-1.5625-0.69922-1.5625-1.5625v-59.375c0-0.41406 0.16406-0.8125 0.45703-1.1055 0.29297-0.28906 0.69141-0.45703 1.1055-0.45703h9.5156c0.24219 1.3672 0.77344 2.6328 1.5352 3.7344-0.92969 0.39062-1.7812 0.95703-2.5078 1.6836-1.4688 1.4648-2.293 3.4609-2.293 5.5352v4.6719c0 1.7266 1.3984 3.125 3.125 3.125h18.75c1.7266 0 3.125-1.3984 3.125-3.125v-4.6719c0-2.0742-0.82422-4.0703-2.293-5.5352-0.69531-0.69531-1.5078-1.25-2.3945-1.6328 0.77734-1.1133 1.3242-2.3984 1.5703-3.7852zm-25.008 34.375h31.25c0.86328 0 1.5625-0.69922 1.5625-1.5625s-0.69922-1.5625-1.5625-1.5625h-31.25c-0.86328 0-1.5625 0.69922-1.5625 1.5625s0.69922 1.5625 1.5625 1.5625zm0 9.375h31.25c0.86328 0 1.5625-0.69922 1.5625-1.5625s-0.69922-1.5625-1.5625-1.5625h-31.25c-0.86328 0-1.5625 0.69922-1.5625 1.5625s0.69922 1.5625 1.5625 1.5625zm0-18.75h31.25c0.86328 0 1.5625-0.69922 1.5625-1.5625s-0.69922-1.5625-1.5625-1.5625h-31.25c-0.86328 0-1.5625 0.69922-1.5625 1.5625s0.69922 1.5625 1.5625 1.5625zm0 28.125h15.625c0.86328 0 1.5625-0.69922 1.5625-1.5625s-0.69922-1.5625-1.5625-1.5625h-15.625c-0.86328 0-1.5625 0.69922-1.5625 1.5625s0.69922 1.5625 1.5625 1.5625zm20.297-46.875c1.2461 0 2.4453 0.49609 3.3242 1.3789 0.88281 0.88281 1.3789 2.0781 1.3789 3.3242v4.6719h-18.75v-4.6719c0-1.2461 0.49609-2.4453 1.3789-3.3242 0.88281-0.88281 2.0781-1.3789 3.3242-1.3789z" fill="#2a4566" fill-rule="evenodd"></path></svg>