<svg xmlns="http://www.w3.org/2000/svg" width="100pt" height="100pt" viewBox="0 0 100 100"><path d="m67.648 60.137c-0.92188-0.003907-1.793-0.30469-2.5234-0.86719-0.87891-0.67969-1.4414-1.6641-1.5859-2.7656-0.14062-1.1055 0.15625-2.1992 0.83594-3.0781 1.2539-1.6289 2.2148-3.1797 2.8984-4.6641 0.22266-0.48438 0.41406-0.96094 0.57812-1.4336l0.003907-9.0977c0.89062 1.4727 1.5195 3.2305 1.5195 5.3164 0 0.24609-0.011719 0.5-0.03125 0.75781-0.10547 1.4805-0.52344 3.1914-1.4883 5.1758-0.054688 0.11328-0.11328 0.22656-0.17188 0.33984-0.64453 1.2617-1.5039 2.6289-2.6445 4.1133-1.125 1.457-0.85937 3.5508 0.59766 4.6758 0.60547 0.46875 1.3242 0.69531 2.0352 0.69531 0.054687 0 0.11328-0.007813 0.16797-0.007813h0.015625c0.93359-0.050781 1.8438-0.48828 2.457-1.2852 3.8125-4.918 5.5312-9.5586 5.7109-13.703 0.011718-0.25391 0.015624-0.50781 0.015624-0.75781 0-5.3047-2.4766-9.3164-4.7812-11.844-2.3281-2.5547-4.5547-3.8086-4.7539-3.9258-0.35547-0.19922-0.73047-0.32422-1.1094-0.38281-0.24609-0.058594-0.5-0.09375-0.76172-0.09375l-5.4297-0.007813c-0.046875 0.011719-0.09375 0.027344-0.14062 0.035156-0.79688 0.18359-1.6094 0.28125-2.418 0.28125-0.88281 0-1.7461-0.11328-2.5703-0.31641h-3.2695c-0.17969 0.09375-0.37109 0.17969-0.57422 0.24219-0.15625 0.046876-0.3125 0.097657-0.46484 0.14844-1.7148 0.58984-3.2148 1.543-4.4297 2.5312-1.1836 0.96094-2.0977 1.9531-2.6719 2.6641 0.16406-0.45312 0.44922-1.0078 0.94922-1.6523 0.44531-0.57031 1.0703-1.2148 1.9297-1.8867 0.81641-0.64062 1.8398-1.3086 3.1289-1.9766 0.046875-0.023438 0.097656-0.046876 0.14453-0.074219 0.33984-0.17188 0.69141-0.34766 1.0703-0.51562 0.42969-0.19531 0.79688-0.47266 1.0938-0.80469-1.8789-1.1875-3.3633-2.9531-4.1992-5.0977-3.9531 1.8555-6.6602 4.0039-8.418 6.25-1.7383 2.2188-2.5078 4.5156-2.5625 6.5156-0.003906 0.078125-0.003906 0.16016-0.003906 0.23438 0.003906 1.0352 0.17578 1.9883 0.60547 2.9141 0.22266 0.46484 0.50781 0.93359 0.98828 1.4023 0.42188 0.40625 1.0508 0.84766 1.9336 1.0312 0.082031 0.015625 0.16797 0.03125 0.25391 0.042969 0.027344 0.003906 0.054687 0.011719 0.085937 0.015625h0.015626c0.007812 0 0.015624 0.003906 0.023437 0.003906 0.089844 0.007813 0.18359 0.011719 0.27344 0.011719 0.019532 0 0.042969 0.003906 0.0625 0.003906h0.003907c0.027343 0 0.054687 0.003907 0.082031 0.003907 1.0195-0.023438 1.5859-0.26172 2.1523-0.48047 0.96094-0.40625 1.8203-0.92578 2.7188-1.5078 0.10938-0.070312 0.21875-0.14453 0.32812-0.21875v57.746c0 2.8438 2.3086 5.1523 5.1523 5.1523s5.1523-2.3047 5.1523-5.1523l-0.011718-32.609h1.9336v32.613c0 2.8438 2.3086 5.1523 5.1523 5.1523s5.1523-2.3047 5.1523-5.1523v-34.723c-0.0625 0.003906-0.12109 0.011719-0.18359 0.011719h-0.023437z" fill="#fff"></path><path d="m47.273 19.77c0.078124 0.26953 0.16797 0.53125 0.26953 0.78906 0.78125 2 2.1758 3.6328 3.9102 4.7188 0.26562 0.16406 0.53516 0.31641 0.8125 0.45703 1.9727 0.99219 4.2891 1.3242 6.6055 0.78516 5.2656-1.2266 8.5391-6.4883 7.3125-11.754-1.2266-5.2656-6.4883-8.5391-11.754-7.3125-5.2617 1.2266-8.5391 6.4883-7.3125 11.75 0.050781 0.19531 0.10156 0.38281 0.15625 0.56641z" fill="#fff"></path><path d="m31.898 9.7812-5.293-5.9531-1.2461 1.2773 6.9023 6.7773 1.4531-3.4141 5.8203 6.7656 0.29688-0.27734-6.0586-8.8438z" fill="#fff"></path><path d="m42.465 13.809 0.33203-0.078125-0.73047-9.043-2.918 1.9062-1.3828-6.5938-1.4492 0.41406 2.2109 7.875 2.5078-1.8945z" fill="#fff"></path><path d="m38.25 18.906 0.125-0.31641-7.7305-4.4727-0.09375 3.4297-6.1133-2.5742-0.48047 1.4062 7.6211 2.6211-0.12891-3.0898z" fill="#fff"></path></svg>