<svg xmlns="http://www.w3.org/2000/svg" width="100pt" height="100pt" viewBox="0 0 100 100"><path d="m79.332 6.25h-58.664c-7.9492 0-14.418 6.4688-14.418 14.418v58.664c0 7.9492 6.4688 14.418 14.418 14.418h58.664c7.9492 0 14.418-6.4688 14.418-14.418v-58.664c0-7.9492-6.4688-14.418-14.418-14.418zm9.7305 73.082c0 5.3633-4.3633 9.7305-9.7305 9.7305h-58.664c-5.3672 0-9.7305-4.3672-9.7305-9.7305v-58.664c0-5.3633 4.3633-9.7305 9.7305-9.7305h58.664c5.3672 0 9.7305 4.3672 9.7305 9.7305z" fill="#2a4566"></path><path d="m53.441 19.789h-27.027v60.422h18.066v-20.137h8.957c11.105 0 20.141-9.0352 20.141-20.141 0-11.105-9.0352-20.141-20.141-20.141zm0 35.594h-13.645v20.137h-8.6914l-0.003907-51.043h22.34c8.5195 0 15.453 6.9336 15.453 15.453 0 8.5234-6.9336 15.453-15.453 15.453z" fill="#2a4566"></path><path d="m50.391 30.832h-10.332v18.328h10.332c5.0547 0 9.1641-4.1094 9.1641-9.1641 0-5.0508-4.1094-9.1641-9.1641-9.1641zm0 13.641h-5.6445v-8.9531h5.6445c2.4688 0 4.4766 2.0078 4.4766 4.4766s-2.0078 4.4766-4.4766 4.4766z" fill="#2a4566"></path></svg>