<svg xmlns="http://www.w3.org/2000/svg" width="100pt" height="100pt" viewBox="0 0 100 100"><path d="m50.145 20.688c4.0859-1.0234 7.1523-4.3984 7.7734-8.5625 0.625-4.1602-1.3164-8.2891-4.9219-10.465-3.6055-2.1719-8.1602-1.9609-11.551 0.53125-3.3906 2.4961-4.9492 6.7852-3.9453 10.871 0.66016 2.6914 2.3633 5.0078 4.7383 6.4414 2.375 1.4297 5.2188 1.8555 7.9062 1.1836z" fill="#fff"></path><path d="m95.832 73.918-20.105-4.418-5.457-14.895-6.0391-24.398 9.918-4.8125 9.1836 13.668c0.88672 1.3047 2.3633 2.0859 3.9375 2.082 0.94531 0.007813 1.8711-0.27734 2.6484-0.8125 1.043-0.69531 1.7617-1.7812 2-3.0156 0.23828-1.2305-0.023438-2.5078-0.73047-3.5469l-11.48-17.102c-1.3164-1.957-3.8711-2.6484-6-1.625l-14.438 7.043-15.707 3.875h-0.25l-13.938 2.8945-6.625-18.75c-0.98438-2.3125-3.5898-3.457-5.957-2.6172-2.3672 0.83594-3.6719 3.3711-2.9805 5.7812l8 22.605c0.66406 1.8945 2.4492 3.1641 4.457 3.168 0.32031 0.039062 0.64062 0.039062 0.96094 0l14.875-3 5.043 20.418-14 10.418-0.003907-0.003906c-1.4375 1.1016-2.2227 2.8594-2.082 4.668l1.75 23.438c0.19531 2.7852 2.5195 4.9414 5.3125 4.9375h0.39453c2.9336-0.22266 5.1328-2.7773 4.918-5.7109l-1.5195-20.52 14.727-11.188c0.38672-0.30469 0.73828-0.65625 1.043-1.043l3.4375-0.85547 5.543 15.316c0.625 1.707 2.0781 2.9766 3.8516 3.375l22.918 5.043v-0.003907c0.375 0.082031 0.76172 0.125 1.1445 0.125 2.7461 0.054688 5.082-1.9805 5.4062-4.7031 0.32031-2.7227-1.4766-5.25-4.1562-5.8359z" fill="#fff"></path><path d="m19.41 75.133c4.4414 4.4414 4.4414 11.645 0 16.086s-11.645 4.4414-16.086 0c-4.4453-4.4414-4.4453-11.645 0-16.086 4.4414-4.4453 11.645-4.4453 16.086 0z" fill="#fff"></path></svg>