<svg xmlns="http://www.w3.org/2000/svg" width="100pt" height="100pt" viewBox="0 0 100 100"><path d="m87.594 34.406c-0.625-5.1094-4.3125-9.2969-9.2812-10.594l-12.812-3.9062c-2.6406-0.8125-4.4219-3.2344-4.4219-5.9844v-6.9531h-22.156v6.9531c0 2.75-1.7812 5.1719-4.4219 5.9844l-12.812 3.9062c-4.9688 1.2969-8.6562 5.4844-9.2812 10.594l-6.1562 50.266 10.781 5.625 3.9375-17.188c0.59375-2.5938 1.6406-5.0625 3.0469-7.3125-4.1875-11.297-3.6562-20.469-3.4688-23.656v-0.20312c0.10938-1.6562-0.28125-2.2969-0.28125-2.2969-0.54688-0.65625-0.4375-1.625 0.21875-2.1719s1.6719-0.4375 2.2188 0.23438c0.26562 0.32812 1.125 1.5938 0.96875 4.4062v0.20312c-0.1875 2.8594-0.65625 10.828 2.6875 20.766 0.046875 0.125 0.09375 0.26562 0.14062 0.39062 0.20312 0.57812 0.40625 1.1562 0.625 1.75 0.15625 0.42188 0.34375 0.84375 0.51562 1.25 0.14062 0.34375 0.26562 0.67188 0.42188 1.0312 4.375 10.109 1.8594 26.219 1.8594 26.219h14.5c-0.73438-0.125-1.2969-0.73438-1.2969-1.5156v-3.6562c0-0.85938 0.70312-1.5625 1.5625-1.5625h8.2656c0.85938 0 1.5625 0.70312 1.5625 1.5625v3.6562c0 0.76562-0.5625 1.375-1.2969 1.5156h16.734s-4.5156-15.422 0.21875-33.906c0-0.046875 0.03125-0.09375 0.03125-0.14062 0.078125-0.28125 0.14062-0.54688 0.21875-0.82812 1.2812-4.7188 3.0625-9.25 5.3438-13.5 2.1406-4 1.5156-7.6406 1.4844-7.7969-0.15625-0.84375 0.40625-1.6719 1.25-1.8281 0.85938-0.15625 1.6719 0.40625 1.8281 1.25 0.09375 0.5 0.8125 4.9688-1.7969 9.8438-2.5 4.6719-4.375 9.6875-5.6094 14.984l2.1562 2.5625c1.8906 2.6094 3.2344 5.5625 3.9531 8.7031l3.9375 17.188 10.781-5.625-6.1562-50.266zm-48.375 3.7344c0-0.85938 0.70312-1.5625 1.5625-1.5625h8.2656c0.85938 0 1.5625 0.70312 1.5625 1.5625v3.6562c0 0.85938-0.70312 1.5625-1.5625 1.5625h-8.2656c-0.85938 0-1.5625-0.70312-1.5625-1.5625zm-2.625 16.266v-3.6562c0-0.85938 0.70312-1.5625 1.5625-1.5625h8.2656c0.85938 0 1.5625 0.70312 1.5625 1.5625v3.6562c0 0.85938-0.70312 1.5625-1.5625 1.5625h-8.2656c-0.85938 0-1.5625-0.70312-1.5625-1.5625zm6.7969 14.172c-0.85938 0-1.5625-0.70312-1.5625-1.5625v-3.6562c0-0.85938 0.70312-1.5625 1.5625-1.5625h8.2656c0.85938 0 1.5625 0.70312 1.5625 1.5625v3.6562c0 0.85938-0.70312 1.5625-1.5625 1.5625zm13.75 11.047c0 0.85938-0.70312 1.5625-1.5625 1.5625h-8.2656c-0.85938 0-1.5625-0.70312-1.5625-1.5625v-3.6562c0-0.85938 0.70312-1.5625 1.5625-1.5625h8.2656c0.85938 0 1.5625 0.70312 1.5625 1.5625zm0-50.438c0 0.85938-0.70312 1.5625-1.5625 1.5625h-8.2656c-0.85938 0-1.5625-0.70312-1.5625-1.5625v-3.6562c0-0.85938 0.70312-1.5625 1.5625-1.5625h8.2656c0.85938 0 1.5625 0.70312 1.5625 1.5625z" fill="#fff"></path></svg>