<?xml version="1.0" encoding="UTF-8"?>
<svg width="128pt" height="128pt" version="1.1" viewBox="0 0 128 128" xmlns="http://www.w3.org/2000/svg">
 <path d="m80.461 68.531-1.5508 2.1758-0.92188 1.2812-4.8398 6.7969 6.7695-2.7383c0.015625 0 0.039062 0 0.066406-0.015625l0.26953-4.0469 0.089844-1.2812 0.14062-2.1758v-0.039063zm39.207-28.941h-18.367v35.855h18.371c1.0586 0 1.9297-0.85937 1.9297-1.9102v-32.051c0-1.0508-0.87109-1.8945-1.9336-1.8945zm-50.504 27.75c-3.4961-3.4219-16.715 3.1992-21.516 6.0391l-0.023438-0.023437c-1.1641 0.91016-2.5117 1.625-3.9414 2.1016l-9.2969 3.0586c-4.7852 1.5586-7.3594 6.7461-5.7109 11.52 0.39453 1.1484 1.7148 1.6992 2.8633 1.3203l14.91-5.2188 19.445-4.8398 0.15625-0.066406c5.2188-9.5117 4.4648-12.57 3.1094-13.891zm7.5391-27.734-24.566 27.25-0.066407 0.24609c-0.066406 0.26953-0.12891 0.52344-0.20312 0.78125l-0.64063 2.0742 1.9609-0.92188c5.4141-2.5586 9.8711-3.9062 12.898-3.9062 1.7383 0 3.0859 0.43359 3.9688 1.2969 2.0508 1.9961 1.6914 5.8906-1.0898 11.914l-1.0234 2.1914 3.3398-1.3438 5.1367-7.1953 0.91016-1.2812 1.5586-2.1758 0.91016-1.2812 1.5508-2.1758h0.65625l-0.14062 2.1758-0.089843 1.2812-0.14063 2.1758-0.074218 1.2812-0.23047 3.4531h18.699l-0.003906-35.855zm-21.07 26.238 0.69141-0.76953h1.2969c-0.64062 0.23047-1.3086 0.48828-1.9844 0.76953zm17.059 8.0742c0.19141-0.67969 0.33594-1.3203 0.42188-1.9336h0.96094zm2.2891-3.2109h-1.7148c0.066406-0.78125 0.023437-1.5117-0.089844-2.1758h3.3555zm2.4609-3.4609h-4.6094c-0.30469-0.82812-0.78125-1.5586-1.4219-2.1758h7.5781zm20.66 6.2734h-14.734l0.10156-1.5352h14.629zm0-2.8164h-14.555l0.14062-2.1758h14.414zm0-3.4609h-14.324l0.14062-2.1758h14.18zm0-3.4531h-28.66c-0.96094-0.39453-2.0742-0.58984-3.3555-0.58984-1.2656 0-2.6992 0.19141-4.3164 0.58984h-4.3008l1.9688-2.1758h38.656zm0-3.4531h-37.504l1.9609-2.1758h35.547zm0-3.4531h-34.395l1.9609-2.1758v-0.015625h32.434zm0-3.4688h-31.285l1.9844-2.1758h29.301zm0-3.4531h-28.148l1.9609-2.1758h26.191zm0-3.4531h-25.039l1.9688-2.1758h23.066zm0-3.4609h-21.914l1.3711-1.5234c0.015625 0 0.023437-0.015626 0.023437-0.015626h20.52zm-44.148-6.4609c-10.637 2.0859-20.234 4.8008-28.84 8.1133-0.88672 0.33594-1.6406 0.89453-2.2266 1.6406-5.6445 7.3203-10.996 18.531-16.215 31.293-0.17969 0.34375-0.26953 0.73047-0.26953 1.0859 0 0.85938 0.44922 1.6758 1.2656 2.0859 3.2656 1.7383 7.3359 0.47656 9.0508-2.8164 3.8555-7.2617 7.1133-15.359 13.363-20.914 0.82812-0.73828 1.6992-1.4336 2.6914-1.9336 1.0586-0.53906 2.2383-0.82031 3.3906-1.0898 3.2148-0.73828 6.3242-1.1484 9.4102 0.26953 4.0039 1.8438 6.7617 6.0391 6.4883 10.699l23.117-25.648c-5.7188-0.48438-18.715-3.2852-21.227-2.7852zm-12.898 17.922c-1.6133 0-3.25 0.33594-4.6367 0.65625-1.2148 0.28906-2.2266 0.53516-3.1367 0.99609-0.93359 0.47656-1.7656 1.1484-2.4453 1.7656-4.8984 4.3516-7.9766 10.469-10.953 16.387-0.71484 1.4219-1.4219 2.8398-2.1484 4.2266-0.5 0.93359-1.1641 1.7383-1.9609 2.3945 0.023437 0.015625 0.050781 0.039062 0.074218 0.050781 3.2656 1.7383 7.3359 0.47656 9.0508-2.8047 3.8398-7.2695 7.1133-15.375 13.363-20.93 0.82812-0.73047 1.6992-1.4336 2.6914-1.9219 0.53906-0.28125 1.1133-0.48438 1.6914-0.65625-0.51562-0.070313-1.0234-0.16016-1.5898-0.16016zm1.9062 1.2383c-0.58984 0.17969-1.0586 0.35938-1.5 0.58984-0.92188 0.44922-1.7656 1.1484-2.4453 1.7656-4.8984 4.3398-7.9844 10.461-10.953 16.359-0.71484 1.4336-1.4219 2.8555-2.1641 4.2344-0.61328 1.1797-1.5234 2.1484-2.5859 2.8789 2.8789 0.65625 5.9805-0.66406 7.3984-3.3906 3.8555-7.2695 7.1211-15.375 13.379-20.941 0.57422-0.5 1.2031-0.97656 1.8438-1.4102-1.2969-0.33594-2.9766-0.089843-2.9766-0.089843z" fill="#fff"/>
</svg>
