<svg xmlns="http://www.w3.org/2000/svg" width="100pt" height="100pt" viewBox="0 0 100 100"><path d="m46 55.07 0.16016-0.37891c1.2852 0.46484 2.6328 0.73828 4 0.79688 5.6289 0 7.4102-4.4609 9.1484-7.6211 1.7891 3.2383 3 6.3711 7.2188 7.3789 0-38.25 0.39844-37.059-1-37.059-39.16 0-38.07-0.42969-38.07 0.94922 0 53.66-0.44141 51.352 1 51.352h16.543c-1.4219-4.3438-1.3594-9.043 0.17969-13.348h-12.641v-2.0703zm1.1992-33.379c3.3125 0.003906 6.2969 2 7.5586 5.0625 1.2656 3.0586 0.5625 6.582-1.7812 8.9219-2.3438 2.3398-5.8633 3.0391-8.9219 1.7695-3.0586-1.2695-5.0547-4.2539-5.0547-7.5664 0-2.1719 0.86328-4.2578 2.4023-5.793 1.5391-1.5352 3.625-2.3984 5.7969-2.3945zm-14.66 23.41h27.391v2.0781h-27.391zm0 5h21v2.0703h-21zm6.1602 10v2.0703h-6.1602v-2.1211z" fill="#2a4566"></path><path d="m45.422 28.102c0.58984 2.5117 3 2.5312 3.5781 0 0.55078-0.19922 0.82031-0.78125 0.37109-1.5391v-0.003906c0.17188-0.57031 0.17188-1.1797 0-1.75-0.66797-0.69531-1.6211-1.0391-2.582-0.92969-0.61719 0.039063-1.1836 0.36719-1.5312 0.87891-0.34766 0.51563-0.43359 1.1641-0.23828 1.7539-0.46094 0.80859-0.12891 1.4102 0.40234 1.5898z" fill="#2a4566"></path><path d="m44 35.898h6.4688c0.39453 0.003906 0.77734-0.15234 1.0508-0.4375 0.27734-0.28125 0.42578-0.66797 0.41016-1.0625-0.089844-3 0-2.6719-3.1797-4.3984l-1.1484 2.6992-0.16016-1h0.058594c0-1 0.92969-1-0.64844-1-0.16016-0.003907-0.26172 0.16406-0.17969 0.30078 0.13281 0.22656 0.21484 0.47656 0.23828 0.73828h0.089844l-0.14844 1-1.1602-2.7383c-3.1094 1.6992-3.0898 1.3594-3.1797 4.3984-0.015625 0.40234 0.13672 0.78906 0.41797 1.0742s0.67187 0.4375 1.0703 0.42578z" fill="#2a4566"></path><path d="m71.23 57.16c-4.6562 1.2969-9.5977-0.77344-11.941-5-2.3359 4.2305-7.2734 6.2969-11.93 5-1.9414 4.8438-1.7578 10.285 0.51172 14.988 2.2695 4.6992 6.4141 8.2305 11.418 9.7227 5.0078-1.4922 9.1523-5.0195 11.426-9.7188 2.2734-4.7031 2.457-10.145 0.51562-14.992zm-4.3594 12.48h-4.8711v5.1094h-5.3984v-5.1094h-4.8828v-5.3203h4.8711v-5.0703h5.4102v5.0703h4.8789z" fill="#2a4566"></path></svg>