<?xml version="1.0" encoding="UTF-8"?>
<svg width="128pt" height="128pt" version="1.1" viewBox="0 0 128 128" xmlns="http://www.w3.org/2000/svg">
 <path d="m59.805 12.59c0-1.1602-0.94141-2.0977-2.0977-2.0977l-0.003906-4.1953c0-1.1562 0.94141-2.0977 2.0977-2.0977h10.852c-0.23438 0.65625-0.35938 1.3633-0.35938 2.0977v4.1953c-1.1602 0-2.0977 0.94141-2.0977 2.0977v4.1953h8.3945v-4.1953c0-1.1602-0.94141-2.0977-2.0977-2.0977v-4.1953c0-1.1562 0.94141-2.0977 2.0977-2.0977h8.3945c3.4727 0 6.2969 2.8242 6.2969 6.2969v8.3945c0 2.7344-1.7539 5.0664-4.1953 5.9336v4.3477c4.7852-0.97656 8.3945-5.2148 8.3945-10.281l-0.003907-8.3984c0-5.7852-4.707-10.492-10.492-10.492h-25.18c-3.4727 0-6.2969 2.8242-6.2969 6.2969v4.1953c-1.1602 0-2.0977 0.94141-2.0977 2.0977v4.1953h8.3945z" fill="#fff"/>
 <path d="m87.082 107.02c0 2.7344-1.7539 5.0664-4.1953 5.9336v6.6562h-6.2969v8.3945h16.785v-8.3945h-6.2969z" fill="#fff"/>
 <path d="m59.805 100.72h2.0977v-4.1953h-8.0352c0.86719 2.4414 3.1992 4.1953 5.9375 4.1953z" fill="#fff"/>
 <path d="m82.887 23.082c0-1.1562-0.94141-2.0977-2.0977-2.0977h-33.574c-1.1562 0-2.0977 0.94141-2.0977 2.0977v35.672h37.77zm-4.1992 31.477h-29.375v-29.379h29.379z" fill="#fff"/>
 <path d="m47.215 109.11h33.574c1.1562 0 2.0977-0.94141 2.0977-2.0977v-44.066h-37.773v44.066c0 1.1562 0.94141 2.0977 2.1016 2.0977zm25.18-39.867c2.3164 0 4.1953 1.8789 4.1953 4.1953s-1.8789 4.1953-4.1953 4.1953c-2.3164 0-4.1953-1.8789-4.1953-4.1953-0.003907-2.3164 1.875-4.1953 4.1953-4.1953zm2.0977 16.785c0 1.1602-0.94141 2.0977-2.0977 2.0977-1.1602 0-2.0977-0.94141-2.0977-2.0977 0-1.1602 0.94141-2.0977 2.0977-2.0977s2.0977 0.94141 2.0977 2.0977zm-10.492-2.0977c1.1602 0 2.0977 0.94141 2.0977 2.0977 0 1.1602-0.94141 2.0977-2.0977 2.0977-1.1602 0-2.0977-0.94141-2.0977-2.0977s0.9375-2.0977 2.0977-2.0977zm-8.3945-14.688c2.3164 0 4.1953 1.8789 4.1953 4.1953s-1.8789 4.1953-4.1953 4.1953c-2.3164 0-4.1953-1.8789-4.1953-4.1953s1.8789-4.1953 4.1953-4.1953zm2.0977 16.785c0 1.1602-0.94141 2.0977-2.0977 2.0977-1.1602 0-2.0977-0.94141-2.0977-2.0977 0-1.1602 0.94141-2.0977 2.0977-2.0977 1.1602 0 2.0977 0.94141 2.0977 2.0977zm-8.3906 6.2969h29.379v2.0977c0 5.7852-4.707 10.492-10.492 10.492h-8.3945c-5.7852 0-10.492-4.707-10.492-10.492z" fill="#fff"/>
 <path d="m74.133 96.523h-8.0352v4.1953h2.0977c2.7383 0.003906 5.0703-1.75 5.9375-4.1953z" fill="#fff"/>
 <path d="m74.492 41.969h-7.5938l-1.1602-2.3203-6.293 8.3906-3.0391-6.0703h-2.8984v8.3906h20.984z" fill="#fff"/>
 <path d="m60.16 40.09 6.2969-8.3945 3.0352 6.0742h5v-8.3906h-20.984v8.3906h5.4922z" fill="#fff"/>
 <path d="m45.113 112.95c-2.4414-0.86719-4.1953-3.1992-4.1953-5.9336v12.59h-6.2969v8.3945h16.785v-8.3945h-6.2969z" fill="#fff"/>
 <path d="m40.918 75.898v-4.2656c-19.266 3.3086-33.574 20.117-33.574 39.84v8.1328h-6.293v8.3945h16.785v-8.3945h-6.2969v-8.1328c0-17.43 12.473-32.32 29.379-35.574z" fill="#fff"/>
 <path d="m120.66 119.61v-8.1328c0-19.723-14.309-36.531-33.574-39.84v4.2656c16.906 3.25 29.379 18.145 29.379 35.574v8.1328h-6.2969v8.3945h16.785v-8.3945z" fill="#fff"/>
</svg>
