<?xml version="1.0" encoding="UTF-8"?>
<svg width="128pt" height="128pt" version="1.1" viewBox="0 0 128 128" xmlns="http://www.w3.org/2000/svg">
 <path d="m70.918 7.2539c2.8125 3.1016 8.3203 9.3867 12.258 14.004l-39.629 29.953c-9.2461-4.7695-19.242-10.758-26.789-16.793-0.66016-0.52734-0.51953-1.5664 0.24219-1.9336l52.574-25.48c0.46094-0.22266 1-0.125 1.3438 0.25z" fill="#fff"/>
 <path d="m70.977 120.52-0.51172-8.5156h32.871l-0.54688 8.5195c-0.039062 0.60938-0.54297 1.082-1.1484 1.082h-29.516c-0.60938 0-1.1133-0.47656-1.1484-1.0859z" fill="#fff"/>
 <path d="m107.9 58.277 1.0625 0.019531c1.2578 2.1328 2.3945 4.3984 2.3945 5.7031 0 1.8281-0.4375 3.8828-0.96484 5.7031-5.6445-0.20703-8.5195-2.1172-8.5195-5.7031 0-0.96094 0.26953-5.7227 6.0273-5.7227z" fill="#fff"/>
 <path d="m110.52 75.48c0 2.5-0.53906 7.75-1.332 13.48h-24.703c-1.5898 0-2.8789 1.2891-2.8789 2.8789s1.2891 2.8789 2.8789 2.8789h23.848c-0.57812 3.6289-1.2188 7.1602-1.8516 10.043-0.19531 0.87891-0.97656 1.4766-1.875 1.4766h-36.25c-0.94922 0-1.7695-0.6875-1.9141-1.625-1.8672-12.176-1.9492-25.211 2.6836-36.273-7-3.4141-13.762-6.8594-20.059-10.824-1.1367-0.71484-1.1836-2.3672-0.11328-3.1758l38.805-29.305c0.82812-0.625 2.0039-0.49609 2.6562 0.31641 2.1562 2.6875 4.3242 5.5352 6.4141 8.457l-21.754 16.371c-1.2695 0.95703-1.5273 2.7617-0.57031 4.0352 0.56641 0.75 1.4336 1.1484 2.3047 1.1484 0.60156 0 1.207-0.1875 1.7305-0.57812l21.555-16.223c3.0781 4.6484 5.8477 9.3945 7.9297 13.961-7.8867-0.14063-11.902 5.668-11.91 11.48-0.011719 5.6328 3.7734 11.199 14.406 11.477z" fill="#fff"/>
</svg>
