<svg xmlns="http://www.w3.org/2000/svg" width="128pt" height="128pt" viewBox="0 0 128 128"><path d="m56 68v8c0 2.207-1.7969 4-4 4v-16c2.2031 0 4 1.793 4 4zm-28-4v8h4.0039v-8zm72-12v40c0 6.6172-5.3828 12-12 12h-72c-6.6172 0-12-5.3828-12-12v-40c0-6.6172 5.3828-12 12-12h72c6.6172 0 12 5.3828 12 12zm-60 12c0-4.4102-3.5898-8-8-8h-8c-2.207 0-4 1.7891-4 4v24c0 2.2109 1.793 4 4 4s4-1.7891 4-4v-4h4c4.4102 0 8-3.5898 8-8zm24 4c0-6.6172-5.3828-12-12-12h-4c-2.207 0-4 1.7891-4 4v24c0 2.2109 1.793 4 4 4h4c6.6172 0 12-5.3828 12-12zm12 0v-4h4c2.207 0 4-1.7891 4-4s-1.793-4-4-4h-8c-2.207 0-4 1.7891-4 4v24c0 2.2109 1.793 4 4 4s4-1.7891 4-4v-8h4c2.207 0 4-1.7891 4-4s-1.793-4-4-4zm43.312-42.344-12.969-12.969c-0.72266-0.72266-1.5156-1.3594-2.3438-1.9297v17.242h17.23c-0.5625-0.83594-1.1992-1.6289-1.9141-2.3438zm4.5938 10.344h-23.902c-0.058594 0-0.10938-0.03125-0.16406-0.03125 4.9258 3.6484 8.1641 9.4492 8.1641 16.031v40c0 11.027-8.9727 20-20 20h-43.27c1.6562 4.6445 6.0547 8 11.266 8h56c6.6172 0 12-5.3828 12-12v-71.031c0-0.32812-0.074219-0.64453-0.097656-0.96875zm-35.902-4c3.1094 0 6.0156 0.77344 8.6445 2.043-0.37109-0.60938-0.64453-1.2812-0.64453-2.043l-0.003906-23.902c-0.32812-0.019531-0.64062-0.097656-0.97266-0.097656h-39.027c-6.6172 0-12 5.3828-12 12v12z" fill="#2a4566"></path></svg>