<?xml version="1.0" encoding="UTF-8"?>
<svg width="128pt" height="128pt" version="1.1" viewBox="0 0 128 128" xmlns="http://www.w3.org/2000/svg">
 <path d="m114.23 48.355h1.8086c4.5234 0 8.0156-3.6211 8.0156-8.0156v-2.7148c0-4.5234-3.6211-8.0156-8.0156-8.0156h-2.7148-0.25781c-0.25781-0.25781-0.64453-0.38672-1.0352-0.51562v-13.191c0-3.2305-2.9727-5.8164-6.5938-5.8164-0.64453 0-1.1641 0.12891-1.6797 0.25781-0.90625-2.7148-3.3633-4.5234-6.207-4.5234-0.51562 0-0.90625 0-1.4219 0.12891-0.51562-3.3633-3.3594-5.9492-6.5938-5.9492-3.2305 0-6.0781 2.5859-6.4648 5.8164-0.51562-0.12891-0.90625-0.12891-1.4219-0.12891-3.75 0-6.5938 2.9727-6.5938 6.5938v17.195c-1.4219 0.90625-2.5859 2.1992-3.3633 3.75-1.293-0.64453-2.5859-0.90625-4.0078-0.90625-1.5508 0-2.7148 1.1641-2.7148 2.7148v23.016c-0.25781 0.38672-0.38672 0.77734-0.38672 1.293v7.6289c0 0.77734 0.25781 1.4219 0.77734 1.9375l11.637 11.25c-0.51562 1.0352-0.77734 2.1992-0.77734 3.4922v6.4648c0 2.9727 1.6797 5.5586 4.0078 6.8516v9.5664c-2.457 1.4219-4.0078 4.0078-4.0078 6.8516v6.4648c0 4.5234 3.6211 8.0156 8.0156 8.0156h24.438c1.9375 0 3.6211-0.64453 5.043-1.8086h2.457c4.5234 0 8.0156-3.6211 8.0156-8.0156v-2.7148c0-4.5234-3.6211-8.0156-8.0156-8.0156h-1.9375c-0.38672-0.38672-0.90625-0.64453-1.293-1.0352v-9.5664c1.1641-0.77734 2.1992-1.6797 2.9727-2.9727h0.25391c4.5234 0 8.0156-3.6211 8.0156-8.0156v-2.7148c0-4.5234-3.6211-8.0156-8.0156-8.0156h-1.9375v-26.637c-0.12891 0 0 0 0 0zm-36.203-3.3633c-0.12891-1.4219-0.38672-2.8438-0.90625-4.1367l-0.90625-2.5859v-0.12891l0.003906-1.9375c0-1.5508 1.1641-2.7148 2.7148-2.7148h29.738c1.5508 0 2.7148 1.1641 2.7148 2.7148v6.0781c0 1.5508-1.1641 2.7148-2.7148 2.7148h-29.738c-0.25781 0.12891-0.64844-0.003906-0.90625-0.003906zm40.598-7.3672v2.7148c0 1.293-0.90625 2.1992-1.9375 2.5859v-0.38672-6.0781c0-0.38672 0-0.90625-0.12891-1.293 1.1641 0.12891 2.0664 1.1641 2.0664 2.457zm-13.316-22.238c0.77734 0 1.293 0.38672 1.293 0.51562v12.414h-2.5859v-12.414c0-0.12891 0.51953-0.51562 1.293-0.51562zm-7.8867-4.3984c0.77734 0 1.293 0.64453 1.293 1.293v16.035h-2.5859v-16.035c0-0.64453 0.51562-1.293 1.293-1.293zm-9.3086-4.3945c0-0.77734 0.64453-1.293 1.293-1.293 0.77734 0 1.293 0.64453 1.293 1.293v21.59h-2.5859zm-6.7227 4.3945c0.77734 0 1.293 0.64453 1.293 1.293v15.902h-2.5859v-15.902c0-0.64453 0.64453-1.293 1.293-1.293zm-11.25 27.672c0.38672 0.38672 0.77734 0.90625 0.90625 1.5508l0.90625 2.5859c0.51562 1.5508 0.77734 3.1016 0.77734 4.7852v8.4023h-2.5859zm15.387 66.586v-7.2422h21.852v7.2422zm23.145-24.566c1.5508 0 2.7148 1.1641 2.7148 2.7148v6.4648c0 1.5508-1.1641 2.7148-2.7148 2.7148h-24.438c-1.5508 0-2.7148-1.1641-2.7148-2.7148v-6.4648c0-1.5508 1.1641-2.7148 2.7148-2.7148zm-24.438 41.762c-1.5508 0-2.7148-1.1641-2.7148-2.7148v-6.4648c0-1.5508 1.1641-2.7148 2.7148-2.7148h24.438c1.5508 0 2.7148 1.1641 2.7148 2.7148v6.4648c0 1.5508-1.1641 2.7148-2.7148 2.7148zm34.391-7.1133v2.7148c0 1.293-0.90625 2.3281-2.0703 2.5859 0-0.25781 0.12891-0.51562 0.12891-0.77734v-6.4648-0.38672c1.0391 0.13281 1.9414 1.1641 1.9414 2.3281zm0-32.062v2.7148c0 1.293-0.77734 2.1992-1.9375 2.5859v-5.043c0-1.0352-0.25781-1.9375-0.51562-2.8438 1.2891 0 2.4531 1.1641 2.4531 2.5859zm-9.9531-7.8867h-24.438c-1.293 0-2.457 0.25781-3.4922 0.77734l-10.73-10.473v-3.8789h5.6875c1.5508 0 2.7148-1.1641 2.7148-2.7148v-0.64453l0.003907-8.0195c0.25781 0 0.51562 0.12891 0.64453 0.12891h29.738z" fill="#fff"/>
 <path d="m13.641 48.355v26.762l-1.9414 0.003906c-4.5234 0-8.0156 3.6211-8.0156 8.0156v2.7148c0 4.5234 3.6211 8.0156 8.0156 8.0156h0.38672c0.64453 1.1641 1.6797 2.1992 2.9727 2.9727v9.5664c-0.51562 0.25781-0.90625 0.64453-1.293 1.0352h-2.0664c-4.5234 0-8.0156 3.6211-8.0156 8.0156v2.7148c0 4.5234 3.6211 8.0156 8.0156 8.0156h2.457c1.4219 1.0352 3.1055 1.8125 5.043 1.8125h24.438c4.5234 0 8.0156-3.6211 8.0156-8.0156v-6.4648c0-2.9727-1.6797-5.5586-4.0078-6.8516v-9.6992c2.457-1.4219 4.0078-4.0078 4.0078-6.8516v-6.4648c0-1.293-0.25781-2.457-0.77734-3.4922l11.637-11.25c0.51562-0.51562 0.77734-1.1641 0.77734-1.9375v-7.6289c0-0.51562-0.12891-0.90625-0.38672-1.293v-23.141c0-1.5508-1.1641-2.7148-2.7148-2.7148-1.4219 0-2.8438 0.38672-4.0078 0.90625-0.64453-1.5508-1.8086-2.9727-3.3633-3.75v-17.07c0-3.75-2.9727-6.5938-6.5938-6.5938-0.51562 0-0.90625 0-1.4219 0.12891-0.38672-3.2305-3.1055-5.8164-6.5938-5.8164-3.4922 0-6.0781 2.5859-6.4648 5.8164-0.51563-0.12891-0.90625-0.12891-1.4219-0.12891-2.9727 0-5.4297 1.9375-6.207 4.5234-0.51562-0.12891-1.1641-0.25781-1.6797-0.25781-3.75 0-6.5938 2.7148-6.5938 5.8164v13.188c-0.38672 0.12891-0.64453 0.38672-1.0352 0.51562h-0.25781l-2.8477 0.007813c-4.3945-0.13281-8.0156 3.4883-8.0156 8.0156v2.7148c0 4.5234 3.6211 8.0156 8.0156 8.0156l1.9414 0.12891c-0.12891 0 0 0 0 0zm35.168-3.2305h-29.738c-1.5508 0-2.7148-1.1641-2.7148-2.7148v-6.0781c0-1.5508 1.1641-2.7148 2.7148-2.7148h29.738c1.5508 0 2.7148 1.1641 2.7148 2.7148v2.0703 0.12891l-0.90625 2.5859c-0.51563 1.293-0.77734 2.7148-0.90625 4.1367-0.25781-0.26172-0.64453-0.12891-0.90234-0.12891zm-37.754-10.086c-0.12891 0.38672-0.12891 0.77734-0.12891 1.293v6.0781 0.38672c-1.1641-0.25781-1.9375-1.293-1.9375-2.5859v-2.7148c0.125-1.1641 0.90234-2.1992 2.0664-2.457zm12.543-19.137v12.414h-2.5859v-12.414c0-0.12891 0.51562-0.51562 1.293-0.51562 0.77344 0 1.293 0.38672 1.293 0.51562zm8.0156-3.6211v15.902h-2.5859v-15.902c0-0.77734 0.64453-1.293 1.293-1.293 0.77344 0 1.293 0.64844 1.293 1.293zm7.8867 0v15.902h-2.5859v-21.59c0-0.77734 0.64453-1.293 1.293-1.293 0.77734 0 1.293 0.64453 1.293 1.293zm8.0156 0v15.902h-2.5859v-15.902c0-0.77734 0.64453-1.293 1.293-1.293 0.64453 0 1.293 0.64844 1.293 1.293zm9.957 43.445h-2.5859v-8.4023c0-1.6797 0.25781-3.2305 0.77734-4.7852l0.90625-2.5859c0.25781-0.64453 0.51563-1.0352 0.90625-1.5508zm-37.109 49.52v-7.2422h21.852v7.2422zm23.145-24.566c1.5508 0 2.7148 1.1641 2.7148 2.7148v6.4648c0 1.5508-1.1641 2.7148-2.7148 2.7148h-24.438c-1.5508 0-2.7148-1.1641-2.7148-2.7148v-6.4648c0-1.5508 1.1641-2.7148 2.7148-2.7148zm-24.438 41.762c-1.5508 0-2.7148-1.1641-2.7148-2.7148v-6.4648c0-1.5508 1.1641-2.7148 2.7148-2.7148h24.438c1.5508 0 2.7148 1.1641 2.7148 2.7148v6.4648c0 1.5508-1.1641 2.7148-2.7148 2.7148zm-8.0156-9.5703v0.38672 6.4648c0 0.25781 0 0.51562 0.12891 0.77734-1.1641-0.25781-2.0703-1.293-2.0703-2.5859v-2.7148c0-1.0352 0.77734-2.0664 1.9414-2.3281zm0.38672-32.32c-0.38672 0.90625-0.51562 1.8086-0.51562 2.8438v5.043c-1.1641-0.38672-1.9375-1.293-1.9375-2.5859v-2.7148c0.125-1.293 1.1602-2.457 2.4531-2.5859zm7.6289-29.996h29.738c0.25781 0 0.51562 0 0.64453-0.12891v8.6602c0 1.5508 1.1641 2.7148 2.7148 2.7148h5.6875v3.8789l-10.73 10.473c-1.0352-0.51562-2.1992-0.77734-3.4922-0.77734h-24.566z" fill="#fff"/>
</svg>
