<svg xmlns="http://www.w3.org/2000/svg" width="100pt" height="100pt" viewBox="0 0 100 100"><path d="m85.207 23.277c-3.5586-9.2656-10.922-16.562-20.219-20.043s-19.637-2.8086-28.41 1.8398c-8.7695 4.6523-15.125 12.836-17.461 22.484-0.03125 0.12891-0.046876 0.25781-0.042969 0.39062 0.16797 1.0859 0.54297 2.1289 1.1016 3.0781 0.20703 0.42969 0.50781 1.0664 0.60156 1.3359-0.11328 4.5508-2.043 7.832-7.082 12.059-0.9375 0.78125-1.3906 2.0039-1.1875 3.2109 0.32422 1.9883 2.5 3.2656 6.6289 3.8867l-1.7812 4.0547v-0.003907c-0.30469 0.69531-0.046875 1.5117 0.60156 1.9062l1.2617 0.76953-1.1914 0.86719c-0.38672 0.28516-0.61719 0.73438-0.62109 1.2148-0.007812 0.47656 0.21484 0.93359 0.59766 1.2227 1.0508 0.80469 1.8047 1.9375 2.1445 3.2188-0.80469 1.957-2.1367 6.3672 0.046874 10.359 2.043 3.7266 6.2773 3.0664 10.012 2.4805 4.7109-0.73828 7.6641-0.99219 8.8789 2.8984l4.5586 17.32c0.11328 0.42578 0.40625 0.78125 0.80078 0.97266 0.39453 0.19531 0.85156 0.21094 1.2578 0.039063l29.035-12.219c0.73047-0.30469 1.1016-1.1211 0.85547-1.875-1.0469-3.1406-2.25-6.2266-3.6094-9.2461-2.9766-6.8359-3.6797-8.4609 2.3008-12.508 0.03125-0.019532 0.0625-0.042969 0.089844-0.066407v-0.003906c5.7969-4.5898 9.9727-10.914 11.922-18.047 1.9492-7.1289 1.5664-14.699-1.0898-21.598zm-8.7383 25.418c-1.918 2.7812-4.25 4.2891-6.4961 4.2891-0.28125 0-0.56641-0.027344-0.84375-0.074219-0.17188 0.12891-0.35156 0.24609-0.54297 0.34766-1.3555 0.71875-3.5195 0.78125-5.6484-1-0.71484 0.50781-1.5898 0.74219-2.4609 0.65234-0.082031 1.418-0.003906 2.8359 0.23438 4.2344 0.082031 0.64844 0.16406 1.2578 0.20703 1.7773v0.003906c0.03125 0.39453-0.097657 0.78906-0.35156 1.0938-0.96094 1.1797-2.25 2.0469-3.7031 2.4922-0.41016 0.14062-0.85547 0.10156-1.2344-0.10547s-0.64844-0.56641-0.74609-0.98828c-0.74609-3.2422-1.2617-5.7422-1.6797-7.75-0.66406-3.1953-1.0625-5.1211-1.5547-5.9062-0.28906-0.46094-0.69531-0.60547-2.4453-1.0625-0.33984-0.089844-0.71094-0.18359-1.1172-0.29688l-0.59375-0.16406c-3.9805-1.0859-6.75-1.8398-7.8008-6.5039h-0.003906c-3.3828 0.32031-6.6719-1.2305-8.5781-4.0469-1.0977-1.6406-1.2695-3.7344-0.45312-5.5312-1.0234-1.7461-0.86328-3.9453 0.40625-5.5195 0.38281-0.49219 0.84766-0.91016 1.3789-1.2344-0.097656-2.2656 1.0156-4.4141 2.9219-5.6406 2.3281-1.5078 5.2148-1.8828 7.8516-1.0234 0.78125-1.2734 2.1758-2.0352 3.668-2.0117 0.92578-0.007812 1.8281 0.28125 2.5781 0.82031 0.82812-0.80469 1.875-1.3555 3.0078-1.5781 4.7031-1.0586 12.387 1.8359 15.227 5.7305h-0.003906c0.27734 0.375 0.51562 0.78125 0.70703 1.207 2.8242-0.59375 5.7148 0.64844 7.2266 3.1055 1.3125 2.0078 1.5977 4.5195 0.76953 6.7695 1.1953 0.85547 1.957 2.1953 2.082 3.6602 0.074219 0.71875-0.007812 1.4453-0.23437 2.1328 2.0312 3.3398 0.74609 8.4688-1.7695 12.113zm-1.0352-9.082c-0.76953 0.33203-1.6602-0.027343-1.9922-0.79688-0.33203-0.76953 0.023438-1.6641 0.79688-1.9922 0.8125-0.35938 1.3047-1.1992 1.2188-2.082-0.085937-0.88672-0.73047-1.6133-1.5938-1.8086-0.054687-0.015625-0.10938-0.03125-0.16406-0.046875 0.12109 0.125 0.21875 0.26953 0.29297 0.42969 0.16406 0.37109 0.17187 0.78906 0.027343 1.1641s-0.43359 0.67578-0.80078 0.83984c-2.5547 1.1367-5.5586 0.32422-7.1953-1.9414-1.1133 0.46875-2.3047 0.71094-3.5078 0.71094h-0.11328c-0.83594-0.011719-1.5078-0.69922-1.5-1.5391 0.011718-0.83594 0.69922-1.5078 1.5391-1.4961 0.85547 0.007812 1.7031-0.16797 2.4883-0.51172-0.070313-0.65234-0.03125-1.3086 0.11328-1.9492 0.1875-0.81641 1-1.3281 1.8164-1.1445 0.82031 0.1875 1.332 1 1.1445 1.8203-0.24219 1.0625 0.13672 2.1719 0.98047 2.8672 0.84375 0.69531 2.0039 0.85156 3.0039 0.41016 0.34766-0.15625 0.74219-0.17188 1.1016-0.050781-0.57422-0.58984-0.56641-1.5391 0.019531-2.1211 0.97656-0.97656 0.95312-3.1484-0.050781-4.7383-0.87891-1.4805-2.6484-2.1797-4.3008-1.6992-0.10937 0.48438-0.29687 0.94531-0.54687 1.3672-0.42578 0.72266-1.3594 0.96484-2.082 0.53906-0.71875-0.42578-0.96094-1.3594-0.53516-2.082 0.16016-0.26953 0.57812-0.98047-0.35938-2.2695-2.1289-2.9219-8.5781-5.3516-12.105-4.5586-1.5742 0.35547-1.9102 1.1992-2.0234 1.8047-0.13281 0.71094-0.75 1.2305-1.4766 1.2383h-0.015625 0.003907c-0.71875 0-1.3398-0.50391-1.4883-1.207-0.125-0.55469-0.60156-0.96094-1.168-0.99609-0.56641-0.035157-1.0898 0.30469-1.2852 0.83984 0.51953 0.82812 0.71094 1.8203 0.53906 2.7852-0.13281 0.82812-0.91016 1.3906-1.7383 1.2578-0.82812-0.13281-1.3906-0.91016-1.2578-1.7383 0.097656-0.43359-0.12109-0.87891-0.52344-1.0664-1.832-0.82422-3.9609-0.66016-5.6445 0.4375-0.86719 0.53125-1.4414 1.4297-1.5625 2.4336 0.54688 0.0625 1.0781 0.21484 1.5781 0.44531 0.37109 0.16797 0.65625 0.47656 0.79688 0.85547 0.14062 0.38281 0.125 0.80078-0.046875 1.168-0.17188 0.36719-0.48047 0.65234-0.86328 0.78906-0.37891 0.13672-0.80078 0.11719-1.1641-0.058594-0.81641-0.40625-1.8086-0.16016-2.3398 0.58203-0.12891 0.16406-0.23047 0.34766-0.30469 0.53906 0.17578-0.14453 0.35547-0.28516 0.54688-0.42578l-0.003906 0.003906c0.32422-0.25781 0.73828-0.37109 1.1445-0.31641 0.41016 0.054687 0.77734 0.27344 1.0234 0.60547 0.24219 0.32812 0.34375 0.74609 0.27344 1.1523-0.070312 0.40625-0.30078 0.76953-0.64062 1-1.543 1.1289-3.1055 2.918-1.8008 5.0156s4.6562 3.3125 6.5117 2.3477c0.44141-0.23047 0.97266-0.22656 1.4141 0.007813 0.44141 0.23438 0.73828 0.67188 0.79297 1.168 0.48438 4.2344 1.6289 4.5469 5.875 5.7031l0.60156 0.16406c0.39453 0.10547 0.75 0.20312 1.082 0.28906 1.9102 0.5 3.293 0.85938 4.25 2.3867 0.78516 1.25 1.1523 3.0195 1.957 6.9023 0.33203 1.5898 0.73047 3.4883 1.2422 5.8164 0.14453-0.10938 0.28125-0.22656 0.41016-0.35156-0.035157-0.30469-0.078125-0.64062-0.12109-0.98438-0.35938-2.7734-0.73047-5.6445 0.72266-7.0234h-0.003906c0.61719-0.57031 1.4727-0.80078 2.293-0.625 0.29688 0.054688 0.58984-0.11328 0.6875-0.40234 0.1875-0.51562 0.63672-0.89453 1.1758-0.98828 0.54297-0.089843 1.0938 0.11719 1.4375 0.54297 1.25 1.5547 2.4844 1.8945 3.1445 1.543 0.58594-0.42188 0.78125-1.207 0.46875-1.8594-0.11719-0.38672-0.078125-0.80078 0.11328-1.1562 0.1875-0.35547 0.51172-0.62109 0.89453-0.73828 0.80469-0.24609 1.6523 0.20703 1.8984 1.0078 0.19922 0.63281 0.27734 1.3008 0.23438 1.9648 1.3203-0.61328 2.4336-1.5938 3.2031-2.8281 1.582-2.293 2.5977-5.4805 2.1094-7.6914l0.003907 0.003906c-0.21094 0.125-0.42578 0.23438-0.64844 0.32812zm-29.129-16.355c0.24609-0.80078 1.0977-1.25 1.8984-1.0039 2.2383 0.69922 4.6641-0.24219 5.8398-2.2695 0.42188-0.72656 1.3516-0.97266 2.0781-0.54688 0.72266 0.42188 0.96875 1.3516 0.54688 2.0742-0.27734 0.46875-0.59766 0.91016-0.95703 1.3164 0.91406 0.66797 1.9883 1.082 3.1133 1.2109 0.79688 0.09375 1.3867 0.79297 1.3398 1.5938-0.046874 0.80078-0.70703 1.4297-1.5117 1.4336-0.054688 0-0.11328-0.003906-0.17188-0.011718-1.9531-0.21875-3.793-1.0391-5.2656-2.3398-1.0898 0.52734-2.2891 0.80078-3.5 0.80078-0.81641 0-1.625-0.12109-2.4023-0.36328-0.38672-0.11719-0.70703-0.38672-0.89453-0.74219-0.19141-0.35547-0.23047-0.76953-0.10938-1.1562zm-7.0703 10.582c-0.35938 0.18359-0.77344 0.22266-1.1602 0.10156-0.38281-0.12109-0.70312-0.39062-0.88672-0.75-0.39062-0.74219-0.10156-1.6602 0.64453-2.0469 1.2344-0.64453 2.1445-1.7773 2.5078-3.1211 0.35938-1.3477 0.14062-2.7852-0.60938-3.9609-0.45312-0.70703-0.24609-1.6484 0.46094-2.0977 0.70703-0.45312 1.6484-0.24609 2.1016 0.46094 1.207 1.8945 1.5625 4.207 0.98047 6.3789-0.58203 2.1719-2.0469 3.9961-4.0391 5.0352zm12.934-0.027344c-0.58984 0.15234-1.125 0.46484-1.5508 0.89844 0.75781 0.65625 1.3945 1.4375 1.8828 2.3125 0.40625 0.73437 0.14453 1.6562-0.58984 2.0664-0.73047 0.40625-1.6562 0.14453-2.0625-0.58984-0.98828-1.7734-2.8672-2.8555-4.8984-2.8203h-0.027344 0.003906c-0.82422-0.015626-1.4883-0.68359-1.4961-1.5078-0.007813-0.82422 0.64453-1.5039 1.4688-1.5312 1.043-0.019531 2.0781 0.15625 3.0586 0.51172 2.1406-2.7617 6.0938-3.3047 8.8984-1.2266 0.67578 0.49609 0.81641 1.4453 0.32031 2.1211-0.5 0.67578-1.4492 0.81641-2.125 0.31641-0.82422-0.61328-1.8867-0.81641-2.8828-0.55078zm18.625 7.6445c-0.21094 0.8125-1.043 1.2969-1.8516 1.0859-0.94141-0.24609-1.9414-0.035157-2.7031 0.57031s-1.1914 1.5312-1.168 2.5039c0.011719 0.40234-0.13672 0.79297-0.41406 1.0859s-0.66016 0.46484-1.0625 0.47656h-0.042969c-0.82031 0-1.4922-0.65625-1.5156-1.4805-0.03125-1.3711 0.39453-2.7148 1.2109-3.8164-1.8672-1.332-4.2852-1.6406-6.4297-0.81641-0.77734 0.27344-1.6328-0.12109-1.9258-0.89062s0.082031-1.6328 0.84375-1.9453c3.3789-1.3008 7.1992-0.64453 9.9531 1.707 1.2656-0.55859 2.6797-0.67188 4.0195-0.32812 0.80859 0.21094 1.293 1.0391 1.0859 1.8477z" fill="#fff"></path></svg>