<svg xmlns="http://www.w3.org/2000/svg" width="128pt" height="128pt" viewBox="0 0 128 128"><path d="m58.879 70.488 0.20312-0.48828 0.003907 0.003906c1.6445 0.59766 3.3711 0.94531 5.1172 1.0234 7.207 0 9.4844-5.707 11.711-9.7539 2.293 4.1484 3.8398 8.1523 9.2422 9.4453 0-48.961 0.51172-47.438-1.2812-47.438-50.125 0-48.73-0.55078-48.73 1.2148 0 68.684-0.5625 65.727 1.2812 65.727l21.176 0.003906c-1.8203-5.5625-1.7383-11.574 0.23047-17.086h-16.18v-2.6523zm1.5352-42.727c4.2422 0.007812 8.0586 2.5625 9.6797 6.4805 1.6172 3.918 0.71875 8.4258-2.2812 11.422-3 2.9961-7.5078 3.8906-11.426 2.2656-3.9141-1.6211-6.4648-5.4453-6.4648-9.6836 0-2.7812 1.1055-5.4492 3.0742-7.418 1.9688-1.9648 4.6367-3.0664 7.418-3.0664zm-18.762 29.965h35.059v2.6641h-35.059zm0 6.3984h26.879v2.6484h-26.879zm7.8867 12.801v2.6484l-7.8867 0.003906v-2.7148z" fill="#2a4566"></path><path d="m58.137 35.969c0.75391 3.2109 3.8398 3.2383 4.582 0 0.70312-0.25781 1.0508-1 0.47266-1.9727h0.003906c0.22266-0.73047 0.22266-1.5078 0-2.2383-0.85547-0.89453-2.0781-1.332-3.3047-1.1914-0.79297 0.050782-1.5156 0.46484-1.9609 1.125-0.44531 0.66016-0.55469 1.4883-0.30469 2.2422-0.58984 1.0352-0.16406 1.8047 0.51172 2.0352z" fill="#2a4566"></path><path d="m56.32 45.953h8.2812c0.50391 0.003906 0.99219-0.19922 1.3438-0.5625 0.35156-0.36328 0.54297-0.85156 0.52344-1.3594-0.11328-3.8398 0-3.418-4.0703-5.6328l-1.4688 3.457-0.20313-1.2812h0.078126c0-1.2812 1.1914-1.2812-0.83203-1.2812l-0.003906 0.003906c-0.09375-0.003906-0.17969 0.042969-0.23047 0.125-0.046875 0.078125-0.046875 0.17578 0 0.25781 0.17188 0.28906 0.27734 0.61328 0.30469 0.94922h0.11719l-0.19141 1.2812-1.4844-3.5117c-3.9805 2.1758-3.957 1.7422-4.0703 5.6328-0.019531 0.51172 0.17578 1.0117 0.53516 1.375 0.36328 0.36328 0.85938 0.55859 1.3711 0.54688z" fill="#2a4566"></path><path d="m91.176 73.164c-5.9609 1.6602-12.285-0.98828-15.285-6.3984-2.9922 5.4141-9.3125 8.0625-15.27 6.3984-2.4883 6.2031-2.25 13.168 0.65625 19.184 2.9062 6.0195 8.2109 10.535 14.613 12.445 6.4062-1.9062 11.715-6.4219 14.625-12.441 2.9062-6.0156 3.1484-12.984 0.66016-19.188zm-5.582 15.977h-6.2344v6.5391h-6.9102v-6.5391h-6.2461v-6.8125h6.2344l-0.003906-6.4883h6.9258v6.4883h6.2461z" fill="#2a4566"></path></svg>