<svg xmlns="http://www.w3.org/2000/svg" width="100pt" height="100pt" viewBox="0 0 100 100"><path d="m29.5 59.898h-0.30078c-3.6016-0.19922-6.3984-3.3008-6.3008-6.8984 0.10156-2.1992 0.5-4.8984 1.1992-7.6016h-1.6016c-1.1992 0-2.1992 0.89844-2.3008 2.1992l-0.89844 12.699c-0.10156 1.3008 1 2.5 2.3008 2.5h5.1016l-2.3008 28.699c-1.3984 0.10156-2.6016 1.3008-2.6016 2.8008v2.5c0 0.5 0.39844 0.89844 0.89844 0.89844h6.8984c0.5 0 0.89844-0.39844 0.89844-0.89844v-2.5c0-1.3008-0.89844-2.3984-2.1016-2.6992l2.6094-31.898c-0.5 0.10156-1 0.19922-1.5 0.19922z" fill="#fff"></path><path d="m79.699 47.5c-0.10156-1.1992-1.1016-2.1992-2.3008-2.1992h-1.5c0.80078 2.8008 1.1016 5.3984 1.1992 7.6016 0.19922 3.6016-2.6016 6.6992-6.3008 6.8984-0.69922 0-1.3008 0-1.8984-0.19922l2.5 31.699c-1.1992 0.30078-2.1992 1.3984-2.1992 2.6992v2.5c0 0.5 0.39844 0.89844 0.89844 0.89844h6.8984c0.5 0 0.89844-0.39844 0.89844-0.89844v-2.5c0-1.5-1.1016-2.6992-2.6016-2.8008l-2.3008-28.699h5.1016c1.3008 0 2.3984-1.1016 2.3008-2.5z" fill="#fff"></path><path d="m60.102 12.602c0 5.5781-4.5234 10.098-10.102 10.098s-10.102-4.5195-10.102-10.098c0-5.5781 4.5234-10.102 10.102-10.102s10.102 4.5234 10.102 10.102z" fill="#fff"></path><path d="m70.801 57.898c2.5-0.10156 4.3984-2.3008 4.3008-4.8008-0.5-9.6016-6.3984-27.699-25.102-27.699-18.699 0-24.602 18.102-25.102 27.699-0.10156 2.5 1.8008 4.6992 4.3008 4.8008h0.19922c2.3984 0 4.3984-1.8984 4.5-4.3008 0-0.5 0.60156-9 5.3984-14.398l-0.10156 18.602-2.6992 34.199c-0.19922 2.8008 1.8984 5.1992 4.6016 5.5h0.39844c2.6016 0 4.8008-2 5-4.6992l2.8047-32.801c0-0.5 0.39844-0.80078 0.89844-0.80078 0.39844 0 0.69922 0.19922 0.80078 0.60156l4.6992 12.898-4.6016 8.8984c-1.1992 2.3984-0.60156 5.3008 1.6992 6.8008 2.6016 1.6016 5.8984 0.69922 7.1992-1.8984l5.6992-11.102c0.60156-1.3008 0.69922-2.6992 0.30078-4.1016l-5.1953-14.297-0.10156-17.801c4.8008 5.5 5.3008 13.801 5.3984 14.301 0.10156 2.6016 2.2031 4.5 4.7031 4.3984z" fill="#fff"></path></svg>