<svg xmlns="http://www.w3.org/2000/svg" width="100pt" height="100pt" viewBox="0 0 100 100"><path d="m98.434 48.16-0.58203-3.543c-0.14453-0.875-0.94531-1.5156-1.8047-1.4922l-5.1172 0.13281c-0.29688 0.007813-0.57031 0.089844-0.8125 0.22266l-0.625-2.4141c-1.8086-6.9688-8.0977-11.836-15.297-11.836l-21.598-0.003907c-3.2422 0-6.293 0.99219-8.8359 2.7109l1.8906 4.8281c1.8984-1.5938 4.332-2.543 6.9492-2.543h21.602c4.9219 0 9.2227 3.3281 10.457 8.0898l1.3203 5.0977-36.164 0.003906 2.9805 7.6172c1.7539 4.4805-0.19922 9.5703-4.4453 11.586-1.2227 0.57812-2.5234 0.875-3.8672 0.875-1.0703 0-2.1016-0.18359-3.0625-0.52734l0.43359 7.8789h44.055v4.832c0 1.2969 1.0508 2.3477 2.3477 2.3477h4.4727c1.2969 0 2.3477-1.0508 2.3477-2.3477v-5.3047c0.83594-0.53125 1.3984-1.4648 1.3984-2.5273v-3.9805c0-0.53516-0.15234-1.0273-0.39844-1.4648v-5.25c0-1.3906-0.29688-2.7812-0.85938-4.0312l-2.9023-6.4766 4.5195-0.41797c0.49219-0.046875 0.94531-0.29688 1.2461-0.68359 0.30078-0.39062 0.42969-0.89453 0.35156-1.3789zm-27.797 22.098c0 0.82813-0.67188 1.5-1.5 1.5h-11.484c-0.82812 0-1.5-0.67187-1.5-1.5v-2.8164c0-0.82812 0.67188-1.5 1.5-1.5h11.484c0.82812 0 1.5 0.67188 1.5 1.5zm22.176-10.324v3.9297c0 1.1055-0.89453 2-2 2h-7.832c-1.1055 0-2-0.89453-2-2v-2.0156c0-0.92188 0.62891-1.7227 1.5234-1.9414l7.832-1.9141c1.2617-0.3125 2.4766 0.64453 2.4766 1.9414zm-56.574-11.543-0.28516 10.145 1.5312 27.918c0.14062 2.5352-1.8047 4.707-4.3398 4.8438-0.085937 0.003906-0.17188 0.007813-0.25781 0.007813-2.4258 0-4.457-1.8984-4.5898-4.3477l-1.3555-24.746c-0.015625-0.26563-0.23438-0.47266-0.5-0.47266h-2.9062c-0.26562 0-0.48438 0.20703-0.5 0.47266l-1.3555 24.746c-0.13281 2.4531-2.1641 4.3477-4.5898 4.3477-0.085938 0-0.17188-0.003907-0.25781-0.007813-2.5352-0.14062-4.4805-2.3086-4.3398-4.8438l1.5352-27.922-0.28516-10.137-4.5234 11.555c-0.61719 1.5781-2.125 2.543-3.7266 2.543-0.57422 0-1.1602-0.125-1.7188-0.39063-1.9258-0.91406-2.7109-3.2617-1.9336-5.2461l9.7344-24.867c0.54297-1.3906 1.7812-2.2852 3.1602-2.4844h20.512c1.3789 0.19922 2.6172 1.0938 3.1602 2.4844l9.7344 24.867c0.77734 1.9844-0.007813 4.332-1.9336 5.2461-0.55859 0.26563-1.1445 0.39063-1.7188 0.39063-1.5977 0-3.1094-0.96484-3.7266-2.543zm-19.852-31.09c0-4.7461 3.8594-8.6055 8.6016-8.6055 4.7422 0 8.6055 3.8594 8.6055 8.6055 0 4.7422-3.8594 8.6055-8.6055 8.6055-4.7422-0.003906-8.6016-3.8633-8.6016-8.6055z" fill="#fff"></path></svg>