<?xml version="1.0" encoding="UTF-8"?>
<svg width="128pt" height="128pt" version="1.1" viewBox="0 0 128 128" xmlns="http://www.w3.org/2000/svg">
 <path d="m57.602 8-2.6797 17.418c-0.55859 3.6211-0.32031 7.3789 1.0781 10.762 1.8008 4.3789 5.1211 8.0781 9.4609 10.34 7.9414 4.1211 8.6797 7.6211 19.422 9.6992 3.0586 0.60156 6.1797 0.85938 9.3008 0.85938h1.1797c4.3203 0 7.8398 3.3008 7.8398 7.3398 0 2.0195-0.87891 3.8594-2.2812 5.1992-1.4414 1.3203-3.4219 2.1406-5.5586 2.1406h-11.461c-6.0195 0-7.9414-0.69922-13.781-2.0586l-5.3398-0.89844c-6.8789-1.1797-13.941-0.87891-20.621 0.87891l-5.6602 1.4805c-1.0195 0.33984-2.1406 0.55859-3.2383 0.57812 0.10156 0.019531 0.17969 0.019531 0.28125 0.019531h-0.62109c0.10156 0 0.21875 0 0.32031-0.019531-6.0391-0.12109-10.898-4.7617-10.898-10.441 0-4.3398 0.80078-8.6602 2.3594-12.762l0.53906-1.4414v-0.058594c0.80078-2.0781 1.3203-4.2617 1.5195-6.4805 0-1.7188-0.23828-4.4414-0.5-6.1211-0.87891-5.3594-1.6406-10.961-2.2383-16.801-0.28125-2.8984-0.73828-6.1992-1.2188-9.6406" fill="#fff"/>
 <path d="m98.281 109.08-4.9609-5.5195c-0.76172-0.83984-2.2188-0.83984-2.9805 0l-4.9609 5.5195c-0.73828 0.82031-0.67969 2.0781 0.14062 2.8203 0.82031 0.73828 2.0781 0.67969 2.8203-0.14062l1.4805-1.6406v10c0 1.0391 0.89844 1.8789 2 1.8789 1.1016 0 2-0.83984 2-1.8789v-10l1.4805 1.6406c0.39844 0.44141 0.94141 0.66016 1.4805 0.66016 0.48047 0 0.96094-0.16016 1.3398-0.51953 0.82031-0.73828 0.87891-2 0.14062-2.8203z" fill="#fff"/>
 <path d="m75.02 103.56c-0.37891-0.42188-0.92188-0.66016-1.4805-0.66016-0.55859 0-1.1016 0.23828-1.4805 0.66016l-4.9609 5.5195c-0.73828 0.82031-0.67969 2.0781 0.14062 2.8203 0.82031 0.73828 2.0781 0.67969 2.8203-0.14063l1.4805-1.6406v10c0 1.0391 0.89844 1.8789 2 1.8789 1.1016 0 2-0.83984 2-1.8789v-10l1.4805 1.6406c0.39844 0.44141 0.94141 0.66016 1.4805 0.66016 0.48047 0 0.96094-0.16016 1.3398-0.51953 0.82031-0.73828 0.87891-2 0.14062-2.8203z" fill="#fff"/>
 <path d="m56.738 103.56c-0.76172-0.83984-2.2188-0.83984-2.9805 0l-4.9609 5.5195c-0.73828 0.82031-0.67969 2.0781 0.14062 2.8203 0.37891 0.33984 0.85938 0.51953 1.3398 0.51953 0.53906 0 1.1016-0.21875 1.4805-0.66016l1.4805-1.6406v10c0 1.0391 0.89844 1.8789 2 1.8789 1.1016 0 2-0.83984 2-1.8789v-10l1.4805 1.6406c0.73828 0.82031 2 0.87891 2.8203 0.14063 0.82031-0.73828 0.87891-2 0.14063-2.8203l-4.9609-5.5195z" fill="#fff"/>
 <path d="m38.461 103.56c-0.76172-0.83984-2.2188-0.83984-2.9805 0l-4.9609 5.5195c-0.73828 0.82031-0.67969 2.0781 0.14062 2.8203 0.37891 0.33984 0.85938 0.51953 1.3398 0.51953 0.53906 0 1.1016-0.21875 1.4805-0.66016l1.4805-1.6406v10c0 1.0391 0.89844 1.8789 2 1.8789 1.1016 0 2-0.83984 2-1.8789v-10l1.4805 1.6406c0.73828 0.82031 2 0.87891 2.8203 0.14063 0.82031-0.73828 0.87891-2 0.14062-2.8203l-4.9609-5.5195z" fill="#fff"/>
 <path d="m25.16 79.5s5.8398 2.9805 15.641 0.78125c10.281-2.3008 18.781-3.6406 24.18-1.4805 10.461 4.1797 12.48 8.0195 23.5 8.0195 5.1797 0 9.3203-1.2188 12.238-2.5195 1.6992-0.76172 3.4414 0.94141 2.7188 2.6602l-1.5781 3.8594c-1.2617 3.1016-4.2812 5.1211-7.6211 5.1211h-59.141c-3.9219 0-7.3008-2.7617-8.0586-6.6016z" fill="#fff"/>
</svg>
