<?xml version="1.0" encoding="UTF-8"?>
<svg width="128pt" height="128pt" version="1.1" viewBox="0 0 128 128" xmlns="http://www.w3.org/2000/svg">
 <path d="m9.0781 63.98c0-15.652 2.4609-28.16 0.41016-32.48-1.5352-3.2344-2.1953-6.5469-0.44922-9.2617 1.7188-2.6758 5.6445-2.6133 8.2148-1.2695 5.6289 2.9531 23.465 0.003906 46.73 0.003906 23.27 0 41.098 2.9453 46.73-0.003906 2.5664-1.3438 6.4961-1.4062 8.2148 1.2695 1.7461 2.7188 1.0859 6.0312-0.44922 9.2617-2.0508 4.3242 0.41016 16.828 0.41016 32.48 0 15.652-2.4609 28.16-0.41016 32.48 1.5352 3.2344 2.1953 6.5469 0.44922 9.2617-1.7188 2.6758-5.6445 2.6133-8.2148 1.2695-5.6289-2.9531-23.465-0.003907-46.73-0.003907-23.27 0-41.098-2.9453-46.73 0.003907-2.5664 1.3438-6.4961 1.4062-8.2148-1.2695-1.7461-2.7188-1.0859-6.0312 0.44922-9.2617 2.0508-4.3242-0.41016-16.828-0.41016-32.48z" fill="#fff" fill-rule="evenodd"/>
</svg>
