<svg xmlns="http://www.w3.org/2000/svg" width="100pt" height="100pt" viewBox="0 0 100 100"><path d="m274.25-26.512c-0.80078-8.9102-5.0664-7.6445-13.492-7.6445-8.4922 0-7.9141-14.004-7.3359-19.293 0.10938-1.0664 0.089844-1.6445-1.0898-1.6445-1.6445 0.023438-3.2891 0.10938-4.9336 0.042969-5.2695-0.22266-1.0898-9.0234 0.019531-11.355 1.3789-2.8477 2.9805-5.4219 4.4023-8.1797 1.1992-2.3555 1.5117-4.5117 1.1797-7.1133-1.1562-9.0664 0.64453-17.938 7.4023-24.449 11.18-10.781 32.785-11.27 47.453-4.8477h-33.719c-4.8906 0-8.8906 4-8.8906 8.8906v25.516c0 4.9102 4 8.8906 8.8906 8.8906h48.344c0.48828 0 0.95703-0.019531 1.4219-0.10938-0.64453 1.957-1.4023 3.9102-2.2461 5.8242-3.3984 7.7773-6.8672 12.801-7.8008 21.691-0.55859 5.3359-0.24219 8.2461 1.3789 13.492 0.26562 0.86719 0.33203 1.9805-0.93359 1.9805h-38.852c-1.0664 0-1.1328-0.91016-1.1992-1.6914zm40.164-74.77h5.8906c0.84375 0 1.5312 0.6875 1.5312 1.5352v20.824c0 0.82031-0.6875 1.5117-1.5312 1.5117h-5.8906c-0.82031 0-1.5117-0.6875-1.5117-1.5117v-20.824c0-0.84766 0.6875-1.5352 1.5117-1.5352zm-12.691 0h5.8906c0.82031 0 1.5117 0.6875 1.5117 1.5352v20.824c0 0.82031-0.6875 1.5117-1.5117 1.5117h-5.8906c-0.84375 0-1.5312-0.6875-1.5312-1.5117v-20.824c-0.003906-0.84766 0.6875-1.5352 1.5312-1.5352zm-12.715 0h5.8906c0.84766 0 1.5352 0.6875 1.5352 1.5352v20.824c0 0.82031-0.6875 1.5117-1.5352 1.5117h-5.8906c-0.82031 0-1.5117-0.6875-1.5117-1.5117v-20.824c0-0.84766 0.6875-1.5352 1.5117-1.5352zm-12.691 0h5.8906c0.82031 0 1.5117 0.6875 1.5117 1.5352v20.824c0 0.82031-0.6875 1.5117-1.5117 1.5117h-5.8906c-0.84375 0-1.5312-0.6875-1.5312-1.5117v-20.824c-0.003906-0.84766 0.6875-1.5352 1.5312-1.5352zm52.055 4.5781h4.0664c1.5117 0 2.7578 1.2461 2.7578 2.7773v9.1797c0 1.5117-1.2461 2.7578-2.7578 2.7578h-4.0664v5.3984c0 3.2461-2.6641 5.8906-5.8906 5.8906h-48.344c-3.2227 0-5.8906-2.6445-5.8906-5.8906v-25.516c0-3.2227 2.668-5.8906 5.8906-5.8906h48.344c3.2227 0 5.8906 2.668 5.8906 5.8906zm-54.23-8.2227h48.344c1.5547 0 2.8242 1.2695 2.8242 2.8203v25.516c0 1.5586-1.2695 2.8242-2.8242 2.8242h-48.344c-1.5586 0-2.8008-1.2656-2.8008-2.8242v-25.516c0-1.5508 1.2422-2.8203 2.8008-2.8203zm-452.73 198.42c0.80078-8.9102 5.0664-7.6445 13.492-7.6445 8.4883 0 7.9141-14.004 7.3359-19.293-0.10938-1.0664-0.089843-1.6445 1.0898-1.6445 1.6445 0.023438 3.2891 0.10938 4.9336 0.042969 5.2695-0.22266 1.0898-9.0234-0.023438-11.355-1.3789-2.8477-2.9805-5.4219-4.3984-8.1797-1.1992-2.3555-1.5117-4.5117-1.1797-7.1133 1.1562-9.0664-0.64453-17.938-7.4023-24.449-12.602-12.137-38.43-11.246-52.633-2.0898-16.535 10.691-15.891 29.676-8.625 46.258 3.4023 7.7773 6.8672 12.801 7.8008 21.691 0.55469 5.3359 0.24609 8.2461-1.3789 13.492-0.26953 0.86719-0.33594 1.9805 0.93359 1.9805h38.852c1.0703-0.003906 1.1367-0.91797 1.2031-1.6953zm-37.875-58.121h6.3789c0.84375 0 1.5352 0.6875 1.5352 1.5312 0 0.35547-0.13281 0.71484-0.35547 0.98047-0.24219 0.28906-0.35547 0.60156-0.35547 0.95703 0 0.82031 0.64453 1.4648 1.4453 1.4648 0.82031 0 1.4688-0.64453 1.4688-1.4648 0-0.37891-0.13281-0.66797-0.37891-0.95703-0.22266-0.26562-0.35547-0.62109-0.35547-0.98047 0-0.84375 0.71094-1.5312 1.5312-1.5312h6.4023v-4.1562c-0.13281 0.019531-0.28906 0.019531-0.42187 0.019531-2.5117 0-4.5352-2.0234-4.5352-4.5352 0-2.4883 2.0234-4.5312 4.5352-4.5312 0.13281 0 0.28906 0.019531 0.42187 0.019531v-4.1328c-9.2227 0.73438-16.582 8.0898-17.316 17.316zm18.852-20.449c12.113 0 21.961 9.8672 21.961 21.98s-9.8047 21.938-21.918 21.961h-0.089844c-12.113-0.023438-21.938-9.8477-21.938-21.961 0-12.133 9.8477-21.98 21.984-21.98zm1.5312 3.1328v6.3789c0 0.84766-0.6875 1.5352-1.5352 1.5352-0.37891 0-0.73437-0.13281-1-0.37891-0.28906-0.22266-0.60156-0.35547-0.95703-0.35547-0.80078 0-1.4688 0.66797-1.4688 1.4688 0 0.82422 0.66797 1.4688 1.4688 1.4688 0.37891 0 0.6875-0.13281 0.95703-0.35547 0.26563-0.22266 0.62109-0.37891 1-0.37891 0.84375 0 1.5352 0.71094 1.5352 1.5312v6.4023h4.1328c0-0.13281-0.023437-0.28906-0.023437-0.42188 0-2.5117 2.043-4.5312 4.5352-4.5312 2.5117 0 4.5352 2.0195 4.5352 4.5312 0 0.13281 0 0.28906-0.019531 0.42188h4.1562c-0.75781-9.2266-8.1133-16.582-17.316-17.316zm17.316 20.383h-6.4023c-0.84375 0-1.5352-0.69141-1.5352-1.5352 0-0.35547 0.13281-0.71094 0.35547-0.97656 0.24609-0.28906 0.37891-0.60156 0.37891-0.98047 0-0.80078-0.66797-1.4648-1.4688-1.4648s-1.4648 0.66797-1.4648 1.4648c0 0.35547 0.13281 0.66797 0.35547 0.95703 0.24609 0.26562 0.37891 0.62109 0.37891 1 0 0.84375-0.6875 1.5352-1.5312 1.5352h-6.3789v4.1367c0.13281 0 0.26562-0.023437 0.39844-0.023437 2.5117 0 4.5352 2.0195 4.5352 4.5352 0 2.5117-2.0234 4.5312-4.5352 4.5312-0.13281 0-0.26562 0-0.39844-0.019532v4.1562c9.1992-0.75781 16.555-8.0938 17.312-17.316zm-20.383 17.316v-6.4023c0-0.84375 0.6875-1.5352 1.5352-1.5352 0.35547 0 0.6875 0.13672 0.97656 0.35547 0.26562 0.24219 0.57812 0.37891 0.95703 0.37891 0.82031 0 1.4688-0.66797 1.4688-1.4648 0-0.80078-0.64453-1.4688-1.4688-1.4688-0.37891 0-0.66797 0.13672-0.95703 0.37891-0.26562 0.22266-0.62109 0.35547-0.97656 0.35547-0.84375 0-1.5352-0.6875-1.5352-1.5352v-6.3789h-4.1562c0.023438 0.13281 0.023438 0.26562 0.023438 0.40234 0 2.5117-2.0234 4.5312-4.5352 4.5312-2.4883 0-4.5117-2.0195-4.5117-4.5312v-0.40234h-4.1328c0.73047 9.2227 8.0898 16.559 17.312 17.316zm262.72 37.734c0.80078-8.8906 5.0664-7.6445 13.492-7.6445 8.4883 0 7.9141-13.98 7.3359-19.293-0.10938-1.0664-0.089844-1.6445 1.0898-1.6211 1.6445 0 3.2891 0.10938 4.9336 0.019531 5.2695-0.22266 1.0898-9.0234-0.019531-11.336-1.3555-2.8672-2.9805-5.4453-4.3984-8.2031-1.1992-2.3359-1.5117-4.4883-1.1797-7.0898 1.1562-9.0664-0.64453-17.961-7.4023-24.473-7.6484-7.3594-20.141-9.9102-31.965-8.7539 4.0234 2.8008 6.8906 7.1523 7.6914 12.199 7.2695 1.2891 12.805 7.6211 12.805 15.27 0 8.5781-6.957 15.516-15.516 15.516h-5.2227l-11.625 13.914c-3.0664 3.6641-8.8906 0.71094-7.8711-4.0469l1.4883-6.9375-1.6641 0.003906c-2.1562 0.13281-3.9102-1.1797-4.5781-2.9336h-1.5117c-2.5547 0-4.9805-0.62109-7.1367-1.7344 0.84375 3.9336 2.1797 7.8672 3.8477 11.668 3.3984 7.7812 6.8672 12.805 7.8008 21.719 0.55469 5.3359 0.24219 8.2227-1.3789 13.492-0.26563 0.84766-0.33594 1.9805 0.93359 1.9805h38.852c1.0664-0.003906 1.1328-0.9375 1.1992-1.7148zm-32.293-33.43c4.8672-5.8242 9.7344-11.645 14.602-17.445 0.77734-0.95703 0.15625-2.4883-1.1523-2.4883h-5.1562l3-5.9102c0.57813-1.1133 0.089844-2.4023-1.2227-2.4023h-9.6445c-1.1562 0-1.2891 0.13672-1.8008 1.2227l-6 12.691c-0.6875 1.1328 0.26562 2.3984 1.5117 2.2695h5.5352l-2.2695 10.602c-0.38281 1.7266 1.5742 2.707 2.5977 1.4609zm-11.758-40.008c0.089844-8.4258 6.957-15.246 15.426-15.246s15.34 6.8242 15.426 15.246h0.066406c6.9141 0 12.512 5.6016 12.512 12.516 0 6.9102-5.6016 12.516-12.512 12.516h-2.7109l0.46875-0.55859c2.4453-2.9102 0.37891-7.4258-3.4688-7.4258h-0.24219l0.77734-1.5312c1.5781-3.0898-0.3125-6.7578-3.9102-6.7578h-9.6445c-2.3789 0-3.5352 0.82031-4.5117 2.9375l-5.957 12.578c-0.13281 0.24219-0.24609 0.48828-0.33594 0.75781h-1.4453c-6.8906 0-12.488-5.6016-12.488-12.516 0-6.9141 5.6016-12.516 12.488-12.516zm166.24 73.445c0.80078-8.9102 5.0703-7.6445 13.469-7.6445 8.4922 0 7.9141-14.004 7.3555-19.293-0.10938-1.0664-0.089843-1.6445 1.0664-1.6445 1.6445 0.023437 3.3125 0.10938 4.957 0.042969 5.2461-0.22266 1.0664-9.0234-0.042969-11.355-1.3555-2.8477-2.9531-5.4219-4.3789-8.1797-1.2227-2.3555-1.5117-4.5117-1.1758-7.1133 1.1328-9.0664-0.64453-17.938-7.4258-24.449-7.5586-7.2891-19.918-9.8672-31.633-8.8008 10.625 5.2227 17.938 16.16 17.938 28.781 0 17.715-14.355 32.051-32.051 32.051-4.6875 0-9.1367-1-13.156-2.8008 2.5312 5.2461 4.7344 9.8008 5.4453 16.625 0.55859 5.3359 0.26953 8.2461-1.3789 13.492-0.24609 0.86719-0.3125 1.9805 0.95312 1.9805h38.828c1.1016 0 1.1641-0.91406 1.2305-1.6914zm-31.918-30.602c16.027 0 29.027-13.004 29.027-29.051 0-16.027-13.004-29.027-29.027-29.027-16.047 0-29.051 13.004-29.051 29.027 0 16.047 13.004 29.051 29.051 29.051zm-6.1328-44.656c2.3789-2.1133 5.2891-3.4219 8.7148-3.0234 2.8672 0.33594 5.4883 1.8008 7.6445 3.7344 3.7773-0.71484 7.5781 0.44141 9.2695 4.2695 0.82422 1.8672 0.91406 4.0195 0.24609 5.9531-0.55469 1.6445-1.5117 2.8477-2.6875 3.6875-0.066406 1.4219-0.44531 2.8477-1.3359 4-2.4023 3.0938-6.8672 2.5117-10.156 1.5352-2.0234-0.60156-4.0898-1.0898-6.1797-1.4453 0.066406 0.089844 0.15625 0.15625 0.22266 0.24609 2.1562 2.2656 4.4453 5.5781 4.2227 8.8242 1.9531 0.24609 4 0.066406 5.7773-0.19922l1.4688-0.19922c2.0898-0.28906 2.5352 2.8008 0.46875 3.0898l-1.4883 0.22266c-2.3359 0.33203-4.8672 0.48828-7.2461 0.10938-2.2227 3.3125-7.0703 4.0039-10.691 3.2227-4.7773-1.0195-8.3125-4.4219-8.9805-9.3359-0.33594-2.3789 0.023438-4.7812 1.668-6.625 0.37891-0.39844 0.80078-0.77734 1.2461-1.0898-1.5781-1.5117-2.8008-3.3359-2.4219-5.3125 0.33203-1.8438 1.9336-3.2227 3.2891-4.3789 1.4883-1.2695 2.9805-2.4883 4.1367-4.1133 0.19922-0.26953 0.39844-0.55469 0.62109-0.82031-0.84375-0.46875-1.6875-0.75391-2.4883-0.82031-2.3125-0.17969-4.2227 1.4883-5.6211 3.1328l-0.98047 1.1094c-1.3984 1.6445-3.7109-0.46875-2.3789-2l1-1.1523c2.0898-2.4453 4.8242-4.4688 8.2266-4.1992 1.5234 0.10938 3.0117 0.71094 4.4336 1.5781zm2.6016 1.8906c1.2422 1.0195 2.4219 2.1562 3.4883 3.2227 2.0469-1.3984 4.3789-2.5117 6.6016-3.3125-1.332-0.89062-2.8008-1.5312-4.3359-1.7109-2.2227-0.26562-4.1328 0.51172-5.7539 1.8008zm5.7539 5.4688c2.2461 2.1797 5.1133 4.7344 8.0039 5.3555 1.1992 0.26562 2.4688 0.3125 3.5547 0-0.046875-0.28906-0.10938-0.57812-0.17969-0.84375-0.6875-2.7773-2.3555-5.5781-4.3125-7.6914-2.4648 0.73047-4.9102 1.8008-7.0664 3.1797zm14.273 3.2422c0.10937-0.19922 0.19922-0.44531 0.28906-0.66797 0.39844-1.1992 0.35547-2.5586-0.15625-3.7148-0.73047-1.6875-2.1328-2.4219-3.7109-2.5781 1.5781 2.0703 2.8633 4.4922 3.5781 6.9609zm-16.762-1.2891c-1.1992 1.1797-2.1094 2.5117-2.3789 4-0.10937 0.69141-0.089843 1.3359 0.066407 1.957 3.3789 0.37891 6.6914 1.1992 9.0234 1.9102 1.8008 0.53125 5.3789 1.3359 6.8008-0.46875 0.17969-0.24219 0.3125-0.51172 0.42578-0.80078-1.3125 0.22266-2.7109 0.15234-4.0898-0.15625-3.7812-0.79688-7.0898-3.7734-9.8477-6.4414zm-10.488 6.2656c1.5117-0.37891 3.2227-0.53125 4.9766-0.51172-0.089844-0.73438-0.089844-1.5117 0.066406-2.2891 0.37891-2.1797 1.5781-4.0703 3.2422-5.668-0.97656-0.98047-2.1094-2.0664-3.2656-3-0.24609 0.28906-0.46875 0.57813-0.6875 0.89063-1.3125 1.8438-2.9336 3.1992-4.6445 4.668-0.60156 0.53125-2.0898 1.7344-2.2461 2.5781-0.15625 0.91016 1.1562 2.2227 2.5586 3.332zm3.5977 2.6484c0.86719 0.73438 1.6211 1.6016 2.3125 2.5781 1.3555 1.8672 2.5117 4.1133 4.4219 5.4922 0.35547 0.24219 0.73438 0.44531 1.1094 0.64453-0.19922-2.1797-2.1328-4.5352-3.3555-5.8242-0.82422-0.89062-1.5547-1.8477-2.0898-2.8906-0.79688-0.023438-1.5977-0.046875-2.3984 0zm6.668 11.602c-0.60156-0.26953-1.1797-0.60156-1.7344-1-2.3984-1.7109-3.4883-3.9102-5.1562-6.1992-0.71094-0.98047-1.4883-1.8672-2.4883-2.5352-0.44531-0.3125-0.95703-0.64453-1.4883-1.0234-0.60156 0.28906-1.1094 0.64453-1.5117 1.0898-1.0195 1.1367-1.1094 2.6875-0.91016 4.1133 0.48828 3.6016 3.0469 5.957 6.5312 6.7109 1.9805 0.42188 5.0469 0.28906 6.7578-1.1562zm122.61 19.848v-10.047l-3 5.1797c-0.13281 0.26562-0.30859 0.46484-0.57813 0.62109l-17.914 10.336c-3.0664 1.7773-7.0469 0.71094-8.8242-2.3555-1.7578-3.0664-0.6875-7.0469 2.3789-8.8242l15.137-8.7344 8.4258-14.469c1.3789-2.3555 4.2461-3.7773 6.9336-3.7773h22.961c2.6875 0 5.5352 1.4219 6.9141 3.7773l8.4453 14.469 15.137 8.7344c3.0664 1.7773 4.1367 5.7344 2.3555 8.8242-1.7578 3.0664-5.7344 4.1328-8.8047 2.3555l-17.914-10.332c-0.26562-0.15625-0.44531-0.35547-0.57812-0.62109l-3-5.1797v10.047l18.047 13.582c4.668 3.4883 3.0469 10.27-2.9102 10.27h-34.852c-1.9766-0.33203-3.5117-2.043-3.5117-4.1133 0-2.3125 1.8906-4.1797 4.1797-4.1797h22.582c0.82031 0 1.5117-0.6875 1.5117-1.5117s-0.6875-1.5117-1.5117-1.5117h-22.582c-3.957 0-7.1797 3.2461-7.1797 7.1992 0 1.4688 0.44531 2.9141 1.3125 4.1133l-18.297-0.003906c-5.957 0-7.5781-6.7773-2.9336-10.27zm14.027-35.449c6.6914 0 12.109-5.4258 12.109-12.113s-5.4219-12.113-12.109-12.113c-6.6914 0-12.113 5.4258-12.113 12.113s5.4219 12.113 12.113 12.113zm-255.76-178.97c-0.80078-8.9102-5.0469-7.6445-13.469-7.6445-8.4883 0-7.9141-14.004-7.3555-19.293 0.10938-1.0664 0.10938-1.6445-1.0664-1.6211-1.6445 0-3.3125 0.089844-4.957 0.023438-5.2461-0.22266-1.0664-9.0234 0.042969-11.336 1.3555-2.8672 2.957-5.4453 4.3789-8.1992 1.2227-2.3359 1.5117-4.5117 1.1992-7.1133-1.1562-9.0664 0.62109-17.938 7.4023-24.449 7.4883-7.2266 19.668-9.8242 31.297-8.8242-10.805 5.2461-18.246 16.312-18.246 29.141 0 17.895 14.492 32.383 32.387 32.383 4.6641 0 9.1328-1 13.137-2.7773-4.8672 10.156-7.1562 18.383-3.7344 29.43 0.26953 0.86719 0.33594 1.9805-0.95703 1.9805h-38.828c-1.0977-0.007813-1.1641-0.91797-1.2305-1.6992zm31.609-29.961c16.203 0 29.359-13.137 29.359-29.359 0-16.227-13.156-29.363-29.359-29.363-16.227 0-29.387 13.137-29.387 29.363 0 16.223 13.156 29.359 29.387 29.359zm1.3945-24.602c1.7344-0.62109 2.957-2.2656 2.957-4.1992 0-2.4688-2-4.4688-4.4688-4.4688-2.4453 0-4.4453 2-4.4453 4.4688 0 1.9336 1.2227 3.5781 2.957 4.1992v3.1133c0 0.82031 0.66797 1.5117 1.4883 1.5117 0.84375 0 1.5117-0.6875 1.5117-1.5117zm-1.5078-5.6484c0.80078 0 1.4688 0.64453 1.4688 1.4453s-0.66406 1.4453-1.4688 1.4453c-0.80078 0-1.4453-0.64453-1.4453-1.4453s0.64453-1.4453 1.4453-1.4453zm-11.715-8.8008h0.023438v-4.1797c0-4.0469 3.2891-7.3359 7.3359-7.3359h8.9336c4.0234 0 7.3359 3.2891 7.3359 7.3359v4.1797c3.0234 0 5.4883 2.4688 5.4883 5.4883v14.602c0 3.0234-2.4688 5.4922-5.4883 5.4922h-23.629c-3.0039 0-5.4688-2.4688-5.4688-5.4922v-14.602c0-3.0234 2.4688-5.4883 5.4688-5.4883zm3.0234 0h17.578v-4.1797c0-2.3789-1.9336-4.3359-4.3125-4.3359h-8.9336c-2.3789 0-4.3359 1.957-4.3359 4.3359zm-3.0234 3.0234h23.629c1.3555 0 2.4648 1.1094 2.4648 2.4688v14.602c0 1.3789-1.1094 2.4883-2.4648 2.4883h-23.629c-1.3555 0-2.4688-1.1094-2.4688-2.4883v-14.602c0.003907-1.3594 1.1133-2.4688 2.4688-2.4688zm224.55-54.016c-0.77734-8.9102-5.0469-7.6445-13.469-7.6445-8.4883 0-7.9102-14.004-7.3555-19.293 0.13281-1.0664 0.10938-1.6445-1.0664-1.6211-1.6445 0-3.2891 0.089844-4.9336 0.023438-5.2695-0.22266-1.0898-9.0234 0.019531-11.336 1.3555-2.8672 2.957-5.4453 4.4023-8.1992 1.1992-2.3359 1.5117-4.5117 1.1797-7.1133-1.1562-9.0664 0.64453-17.938 7.4023-24.449 12.605-12.137 38.406-11.246 52.633-2.0898 16.535 10.691 15.891 29.676 8.625 46.258-3.4023 7.7773-6.8672 12.801-7.8008 21.691-0.55469 5.3359-0.24609 8.2461 1.3789 13.492 0.26562 0.86719 0.33203 1.9805-0.93359 1.9805h-38.852c-1.0742-0.007812-1.1406-0.92187-1.2305-1.6992zm4.0898-49.477c9.0898 0 16.473-7.3555 16.473-16.469 0-9.0898-7.3789-16.449-16.473-16.449-9.0898 0-16.469 7.3555-16.469 16.449 0 9.1133 7.3789 16.469 16.469 16.469zm0-3c7.4219 0 13.445-6.0234 13.445-13.469 0-7.4258-6.0234-13.449-13.445-13.449-7.4453 0-13.469 6.0234-13.469 13.449 0 7.4453 6.0234 13.469 13.469 13.469zm0-3.0234c4.3125 0 8-2.6016 9.6016-6.3125 0.42188-1.0234 0.15625-2.3555-1.2891-2.3555h-16.648c-1.3555 0-1.7109 1.2656-1.2891 2.2891 1.5781 3.7539 5.2891 6.3789 9.625 6.3789zm5.6914-5.6445c-1.3789 1.6211-3.4023 2.6445-5.6914 2.6445-2.2891 0-4.3359-1.0234-5.6914-2.6445zm-11.047-6.3125c1.4453 0 2.6016-1.1797 2.6016-2.6016 0-1.4453-1.1523-2.6016-2.6016-2.6016-1.4453 0-2.6016 1.1562-2.6016 2.6016 0 1.4219 1.1562 2.6016 2.6016 2.6016zm10.711 0c1.4219 0 2.5781-1.1797 2.5781-2.6016 0-1.4453-1.1562-2.6016-2.5781-2.6016-1.4453 0-2.6016 1.1562-2.6016 2.6016 0.003906 1.4219 1.1562 2.6016 2.6016 2.6016zm15.516 45.117c9.0898 0 16.469-7.3789 16.469-16.469s-7.3789-16.469-16.469-16.469c-9.0898 0-16.469 7.3789-16.469 16.469s7.3789 16.469 16.469 16.469zm0-3c7.4258 0 13.445-6.0234 13.445-13.469 0-7.4258-6.0234-13.445-13.445-13.445-7.4258 0-13.449 6.0234-13.449 13.445 0 7.4492 6.0273 13.469 13.449 13.469zm-5.3555-14.977c1.4453 0 2.6016-1.1797 2.6016-2.6016 0-1.4453-1.1562-2.6016-2.6016-2.6016-1.4219 0-2.6016 1.1562-2.6016 2.6016 0 1.4219 1.1758 2.6016 2.6016 2.6016zm10.711 0c1.4219 0 2.6016-1.1797 2.6016-2.6016 0-1.4453-1.1797-2.6016-2.6016-2.6016-1.4453 0-2.6016 1.1562-2.6016 2.6016 0 1.4219 1.1602 2.6016 2.6016 2.6016zm-5.3555 1.4844c4.3359 0 8.0469 2.6211 9.625 6.3789 0.42188 1.0234 0.066407 2.2891-1.3125 2.2891h-16.648c-1.3359 0-1.7344-1.2656-1.3125-2.2656 1.5781-3.7539 5.3125-6.4023 9.6484-6.4023zm5.6914 5.6484c-1.3555-1.6211-3.4023-2.6445-5.6914-2.6445-2.2891 0-4.3359 1.0234-5.6875 2.6445zm-128.2-29c-0.82031 0-1.4883 0.66797-1.4883 1.4883v5.7773c0 0.84375 0.66797 1.5117 1.4883 1.5117 0.84375 0 1.5117-0.66797 1.5117-1.5117v-5.7773c-0.003907-0.82031-0.67188-1.4883-1.5117-1.4883zm-26.41 0c-0.82031 0-1.5117 0.66797-1.5117 1.4883v5.7773c0 0.84375 0.69141 1.5117 1.5117 1.5117 0.82031 0 1.5117-0.66797 1.5117-1.5117v-5.7773c0-0.82031-0.6875-1.4883-1.5117-1.4883zm4.3594 0c-0.82031 0-1.5117 0.66797-1.5117 1.4883v5.7773c0 0.84375 0.6875 1.5117 1.5117 1.5117 0.82422 0 1.5117-0.66797 1.5117-1.5117v-5.7773c0-0.82031-0.69141-1.4883-1.5117-1.4883zm2.4219-1.4883c-4.5781 0-8.2891-3.7148-8.2891-8.2891 0-4.1562 3.0664-7.6016 7.0664-8.1992 0.66797-4.8242 4.8242-8.5586 9.8242-8.5586 5.0234 0 9.1797 3.7344 9.8242 8.5586 4 0.60156 7.0664 4.0469 7.0664 8.1992 0 4.5781-3.7109 8.2891-8.2891 8.2891zm-36.586 50.609c0 0.82422 0.66406 1.5117 1.4883 1.5117h22.848l1.2227 9.3359c0.75781 5.8906 9.8672 4.8008 9.0898-1.1992l-1.0664-8.1328h23.203l-1.0664 8.1328c-0.77734 6.0234 8.3125 7.2031 9.1133 1.1992l1.2227-9.3359h22.824c0.82031 0 1.5117-0.6875 1.5117-1.5117 0-0.82031-0.6875-1.5117-1.5117-1.5117h-22.449l1.1094-8.5352c0.15625-1.0898-0.10938-2.1367-0.64453-3l-6.6914 5.1094c-3.4883 2.5117-8.2891 1.668-10.18-2.3125-1.4883-3.0898-0.26953-6.3555 2.3789-8.2891l4.7578-3.6641 0.39844-0.3125v-4.6211l3.3789 5.2656c0.19922 0.22266 0.22266 0.37891-0.046875 0.57812l-6.6914 5.1562c-4.3789 3.1797 0.046875 8.7812 4.1992 5.8008l7.1562-5.4883c3.2227-2.4688 3.6016-6.5781 1.3984-10.004l-6.0469-9.3789c-0.82422-1.2891-2.0234-2.3789-3.2891-3.2461v0.22266c0 6.8672-5.5781 12.445-12.445 12.445s-12.426-5.5781-12.426-12.445v-0.22266c-1.2695 0.84375-2.4688 1.9531-3.2891 3.2461l-6.0664 9.3789c-2.1992 3.4258-1.8242 7.5352 1.3984 10.004l7.1797 5.4883c4.1328 2.9805 8.5586-2.6211 4.1992-5.8008l-6.7109-5.1562c-0.26562-0.19922-0.22266-0.35547-0.046875-0.57812l3.3789-5.2656v4.6211l0.42187 0.3125 4.7578 3.6641c2.6445 1.9336 3.8438 5.2031 2.3789 8.2891-1.8906 3.9336-6.668 4.8477-10.156 2.3555l-6.7148-5.1562c-0.55469 0.86719-0.80078 1.9102-0.66406 3l1.1094 8.5352h-22.449c-0.80469 0.007812-1.4727 0.69531-1.4727 1.5156zm57.191-1.5078h-24.004l-0.35547-2.8008 8.0234 2.2891c1.5781 0.44531 3.1992 0.023438 4.3359-1 1.1328 1.0234 2.7539 1.4453 4.332 1l8.0234-2.2891zm-12.004-27.277c5.1992 0 9.4258-4.2227 9.4258-9.4453 0-5.1992-4.2227-9.4258-9.4258-9.4258-5.1992 0-9.4258 4.2227-9.4258 9.4258 0 5.2266 4.2266 9.4453 9.4258 9.4453zm15.402-20.336c-0.84375 0-1.5117 0.66797-1.5117 1.4883v5.7773c0 0.84375 0.66797 1.5117 1.5117 1.5117 0.82031 0 1.4883-0.66797 1.4883-1.5117v-5.7773c0.003906-0.82031-0.66406-1.4883-1.4883-1.4883zm-271.15 62.184c-0.80078-8.9102-5.0664-7.6445-13.492-7.6445-8.4688 0-7.8906-14.004-7.3359-19.293 0.10938-1.0664 0.089844-1.6445-1.0664-1.6211-1.668 0-3.3125 0.089844-4.957 0.023438-5.2695-0.22266-1.0664-9.0234 0.046875-11.336 1.3555-2.8672 2.957-5.4453 4.3789-8.1992 1.1992-2.3359 1.5117-4.5117 1.1797-7.1133-1.1562-9.0664 0.64453-17.938 7.4219-24.449 11.801-11.359 35.207-11.312 49.812-3.7109-1.4453-0.19922-2.9141-0.28906-4.4023-0.28906-17.871 0-32.363 14.492-32.363 32.387 0 17.867 14.492 32.363 32.363 32.363 3.2227 0 6.3555-0.46875 9.2891-1.3555-0.57812 1.9805-1 4.0898-1.2461 6.4688-0.57813 5.3359-0.26563 8.2461 1.3555 13.492 0.26953 0.86719 0.33203 1.9805-0.93359 1.9805h-38.852c-1.0664-0.015625-1.1328-0.92578-1.1992-1.7031zm31.586-21.895c16.227 0 29.383-13.156 29.383-29.359 0-16.227-13.16-29.387-29.383-29.387-16.203 0-29.363 13.156-29.363 29.387 0 16.203 13.156 29.359 29.363 29.359zm21.312-18.98c0.73438 0.77734 0.71094 0.84375-0.066407 1.5781-6.8242 6.3555-14.602 6.7344-21.25 1.2461-6.6445 5.4883-14.402 5.1133-21.227-1.2461-0.80078-0.73438-0.80078-0.80078-0.066406-1.5781 1.4219-1.5312 2.9102-2.7578 4.4453-3.6875-3.3555-3.6445-5.2461-8.7578-5.3359-15.047-0.023438-1.3555 0.023437-1.3984 1.3789-1.3789 5.1797 0.089844 9.5586 1.3555 12.98 3.6875 0.6875-4.3789 2.957-8.6875 6.8242-12.691 0.97656-1 1.0469-1 2.0234 0 3.8672 4.0039 6.1367 8.3125 6.8242 12.691 3.4219-2.3359 7.8008-3.6016 12.957-3.6875 1.3789-0.019531 1.4219 0.023438 1.3984 1.3789-0.10938 6.2891-1.9766 11.402-5.3359 15.047 1.5391 0.92969 3.0273 2.1523 4.4492 3.6875zm-35.805-1.5781c-1.0898 0.57812-2.1328 1.3125-3.1797 2.2227 4.3125 3.3359 8.7773 3.8906 13.004 1.7109-3.8672-0.57812-7.1797-1.9102-9.8242-3.9336zm11.402 1.0898c-3.0898-3.9336-4.7344-8.0938-4.9336-12.27-2.7578-2.4688-6.4922-3.9102-11.07-4.2695 0.75391 9.6914 6.4453 15.582 16.004 16.539zm6.1992 0c9.5586-0.95703 15.246-6.8477 16.004-16.535-4.5781 0.35547-8.3125 1.8008-11.07 4.2422-0.19922 4.1992-1.8438 8.3555-4.9336 12.293zm-3.1094-0.95703c6.7344-7.8203 6.7344-16.492 0-24.316-6.7148 7.8242-6.7148 16.492 0 24.316zm4.6641 3.8008c4.2461 2.1797 8.7148 1.6211 13.023-1.7109-1.0469-0.91016-2.1133-1.6445-3.1797-2.2227-2.6641 2.0234-5.9727 3.3555-9.8438 3.9336zm79.652-10.07-7.0234 6.6016c-0.39844 0.39844-0.33203 0.64453 0.042968 1l9.625 8.9805h34.43l9.625-8.9805c0.37891-0.35547 0.46875-0.60156 0.046875-1l-6.957-6.5586c-6.957-6.5586 1.6016-15.023 7.8672-9.1367l8.1562 7.6875c4.9805 4.6914 4.9805 12.293-0.023437 16.961l-16.359 15.32v17.914c-0.019531 0.84375-0.66797 1.5117-1.5117 1.5117h-36.117c-0.82031 0-1.4883-0.64453-1.5117-1.5117v-17.914l-16.359-15.316c-5-4.668-5-12.27-0.023437-16.961l8.1367-7.668c6.3125-5.9336 14.801 2.5781 7.957 9.0703zm28.738-28.582v0.023437c1.6445 5.5352 10.066 4.6016 10.18-1.1367 0.042968-1.6211-0.51172-3.1328-1.7773-4.1797-1.2461-1.0469-2.8477-1.4219-4.4258-1.2695 0.6875-0.98047 1.6211-1.6641 2.7773-1.8008l1.4688-0.15625c0.77734-0.066407 1.3555-0.73438 1.3555-1.4883 0-0.93359-0.77734-1.6016-1.6875-1.5117l-1.4688 0.17969c-3.2656 0.35547-5.5586 3.1367-6.4023 6.2695-2.8906 2.0898-3.7109 5.6016-3.0234 9.0469l0.28906 1.4453c0.13281 0.71094 0.73438 1.2461 1.4688 1.2461 0.98047 0 1.668-0.89063 1.4883-1.8242l-0.28906-1.4688c-0.24219-1.1328-0.26562-2.3086 0.046875-3.375zm2.7109-3.1797c1.1992-0.51172 2.7773-0.64453 3.7578 0.17969 0.55469 0.46875 0.71094 1.1328 0.71094 1.8203-0.046875 2.3125-3.625 2.6211-4.3125 0.33594-0.19922-0.69141-0.24219-1.4922-0.15625-2.3359zm-20.445 3.1797s0 0.023437-0.023437 0.023437c-1.3125 4.3984-6.8672 4.7109-9.1797 1.8008-1.6445-2.0664-1.2422-5.4258 0.77734-7.1133 1.2422-1.0469 2.8438-1.4219 4.4219-1.2695-0.6875-0.98047-1.6211-1.6641-2.7773-1.8008l-1.4648-0.15625c-0.75781-0.066406-1.3555-0.73438-1.3555-1.4883 0-0.93359 0.80078-1.6016 1.6875-1.5117l1.4688 0.17969c3.2695 0.35547 5.5586 3.1367 6.4023 6.2695 2.8906 2.0898 3.7109 5.6016 3.0234 9.0469l-0.28906 1.4453c-0.13281 0.71094-0.73438 1.2461-1.4648 1.2461-0.98047 0-1.668-0.89062-1.4688-1.8242l0.28906-1.4688c0.21875-1.1367 0.23828-2.3125-0.046875-3.3789zm-2.7344-3.1797c-1.1992-0.51172-2.7578-0.64453-3.7578 0.17969-0.77734 0.66797-0.95703 2.0898-0.35547 2.9102 0.93359 1.2461 3.4023 1.1094 3.957-0.75781 0.19922-0.6875 0.24219-1.4883 0.15625-2.332zm-32.785 5.5781c1.6445-2.8438 5.2227-3.8906 8.1133-2.3984 1.7109-2.9336 5.4453-3.9336 8.3789-2.2461 2.9336 1.7109 3.957 5.4688 2.2461 8.4023-0.44531 0.75391-1.2656 1.1328-2.1133 0.64453-0.80078-0.44531-0.93359-1.3789-0.48828-2.1562 0.86719-1.4883 0.35547-3.3984-1.1562-4.2695-1.4883-0.86719-3.4023-0.35547-4.2695 1.1328-0.19922 0.35547-0.33203 0.73438-0.39844 1.1094-0.17969 1.2695-1.8008 1.7773-2.6211 0.80078-0.22266-0.26953-0.48828-0.48828-0.80078-0.66797-1.4883-0.86328-3.4219-0.35547-4.2891 1.1562-0.86719 1.4883-0.33203 3.4023 1.1562 4.2695 0.3125 0.17969 0.62109 0.3125 0.95703 0.35547 1.2891 0.26562 1.668 1.8672 0.64453 2.6875-0.28906 0.24219-0.55469 0.53125-0.75781 0.89062-0.86719 1.4883-0.35547 3.4219 1.1328 4.2891 1.5117 0.84375 3.4219 0.33594 4.2891-1.1562 0.42187-0.77734 1.3125-1.1328 2.1133-0.66406 0.84375 0.48828 0.91016 1.4219 0.48828 2.1797-1.6914 2.9336-5.4453 3.9336-8.3789 2.2422-2.9336-1.6875-3.957-5.4453-2.2656-8.3789-2.7383-1.7773-3.625-5.3789-1.9805-8.2227zm13.223 6.3359 13.113 8.6016c0.6875 0.44531 1.6211 0.26562 2.0898-0.44531 0.44531-0.6875 0.24219-1.6211-0.44531-2.0664l-13.113-8.6016c-0.6875-0.46875-1.6445-0.26953-2.0898 0.42188-0.44141 0.69141-0.26562 1.6445 0.44531 2.0898zm-4.3555 3.5352 8.3789 3.9805c0.75781 0.35547 1.6445 0.046875 2-0.71094 0.35547-0.73438 0.046875-1.6445-0.71094-2l-8.3789-3.9805c-0.75781-0.35547-1.6445-0.046874-2 0.71094-0.35547 0.75391-0.042969 1.6406 0.71094 2zm79.883-9.8711c-1.6445-2.8438-5.2227-3.8906-8.1133-2.3984-1.6914-2.9336-5.4453-3.9336-8.3789-2.2461-2.9336 1.7109-3.957 5.4688-2.2461 8.4023l0.042969 0.089843v0.023438h0.023437c0.39844 0.71094 1.332 0.95312 2.0469 0.53125 0.80078-0.44531 0.93359-1.3789 0.48828-2.1562-0.86719-1.4883-0.35547-3.3984 1.1562-4.2695 1.4883-0.86719 3.3984-0.35547 4.2656 1.1328 0.19922 0.35547 0.33594 0.73438 0.39844 1.1094 0.17969 1.2891 1.8008 1.7773 2.6211 0.80078 0.22266-0.26953 0.48828-0.48828 0.80078-0.66797 1.5117-0.86328 3.4258-0.35547 4.2891 1.1562 0.86719 1.4883 0.35547 3.4023-1.1562 4.2695-0.3125 0.17969-0.64453 0.3125-0.95703 0.37891-1.2891 0.22266-1.6445 1.8672-0.64453 2.668 0.3125 0.24219 0.55469 0.53125 0.75781 0.89062 0.86719 1.4883 0.35547 3.4219-1.1328 4.2891-1.5117 0.84375-3.4219 0.33594-4.2891-1.1562-0.42188-0.77734-1.3125-1.1328-2.1094-0.66406-0.84375 0.48828-0.91016 1.4219-0.48828 2.1797 1.6875 2.9336 5.4453 3.9336 8.4023 2.2422 2.9336-1.6875 3.9336-5.4453 2.2422-8.3789 2.7383-1.7812 3.625-5.3828 1.9805-8.2266zm-13.203 6.3359-13.137 8.6016c-0.6875 0.44531-1.6211 0.26562-2.0898-0.44531-0.44531-0.6875-0.24609-1.6211 0.44531-2.0664l13.113-8.6016c0.71094-0.46875 1.6445-0.26953 2.0898 0.42188 0.46875 0.6875 0.26953 1.6445-0.42188 2.0898zm4.3359 3.5352-8.3789 3.9805c-0.75781 0.35547-1.6445 0.046875-2-0.71094-0.35547-0.73438-0.042968-1.6445 0.71094-2l8.3789-3.9805c0.75391-0.35547 1.6445-0.046874 2 0.71094 0.35547 0.75391 0.046875 1.6406-0.71094 2zm-35.496-2.625c6.9805 0 12.691 5.7148 12.691 12.715v6.4688c0 6.9805-5.7109 12.691-12.691 12.691-7 0-12.715-5.7109-12.715-12.691v-6.4688c0-7 5.7148-12.715 12.715-12.715zm-258.04 182.27c4.0664-0.33203 7.7812-1.957 10.734-4.4453l2.7109 2.7109-2.3555 2.3555c-1.4219 1.3984 0.71094 3.5312 2.1094 2.1328l6.8477-6.8477c1.4219-1.4219-0.71094-3.5312-2.1328-2.1328l-2.3555 2.3555-2.7109-2.7109c2.5117-2.9336 4.1367-6.6445 4.4453-10.734h3.8438v3.3359c0 2 3 2 3 0v-9.668c0-2-3-2-3 0v3.3359h-3.8438c-0.3125-4.0234-1.8906-7.6914-4.3359-10.605l4.5781-4.5781c1.8906 1 4.2891 0.71094 5.8906-0.89063l0.64453-0.64453c1.2227 1.2227 3.2227 1.2227 4.4453 0l4.5352-4.5352c0.35547 0.3125-2.5117-2.5781-3.8203-3.8477-0.60156-0.57812-0.60156-1.5547 0-2.1328 0.57812-0.57812 1.5312-0.57812 2.1094 0l3.8477 3.8477 2.6445-2.668-3.8242-3.8242c-0.60156-0.60156-0.60156-1.5547 0-2.1328 0.57812-0.57812 1.5312-0.57812 2.1094 0 1.2891 1.2695 2.5781 2.5586 3.8477 3.8477l2.6445-2.668c-1.2695-1.2656-2.5586-2.5547-3.8242-3.8438-0.60156-0.57812-0.60156-1.5352 0-2.1133 0.57813-0.60156 1.5312-0.60156 2.1328 0 1.2656 1.2695 2.5547 2.5586 3.8203 3.8242l2.668-2.6445c-1.2891-1.2891-2.5586-2.5547-3.8477-3.8438-0.57812-0.57812-0.57812-1.5352 0-2.1094 0.57812-0.60156 1.5312-0.60156 2.1328 0 1.2656 1.2656 2.5547 2.5547 3.8203 3.8203l4.6445-4.6211 2.3555 2.3789c0.59766 0.57812 1.5547 0.57812 2.1328 0 0.60156-0.60156 0.60156-1.5586 0-2.1367l-4.9805-4.9805 4.5586-4.5586 2.4219 2.4258c0.60156 0.57812 1.5547 0.57812 2.1367 0 0.57812-0.60156 0.57812-1.5586 0-2.1367l-11.203-11.203c-0.57812-0.57422-1.5547-0.57422-2.1328 0-0.57812 0.57813-0.57812 1.5352 0 2.1367l2.4219 2.4219-4.5586 4.5586-4.9805-4.9805c-0.57812-0.60156-1.5547-0.60156-2.1328 0-0.57812 0.57812-0.57812 1.5352 0 2.1094l2.3789 2.3789-25.648 25.648c-1.2227 1.2227-1.2227 3.2227 0 4.4219l0.066406 0.089844-0.64453 0.64453c-1.5547 1.5781-1.8672 3.9336-0.93359 5.8008l-4.5781 4.5781c-2.957-2.5547-6.7148-4.2227-10.848-4.5547v-3.8242h3.3359c1.9766 0 1.9766-3.0234 0-3.0234h-9.6914c-1.9805 0-1.9805 3.0234 0 3.0234h3.3359v3.8242c-4.0664 0.33203-7.7812 1.9531-10.715 4.4453l-2.7344-2.7109 2.3555-2.3555c1.4219-1.3984-0.71094-3.5352-2.1094-2.1367l-6.8477 6.8477c-1.4219 1.4219 0.71094 3.5352 2.1328 2.1328l2.3555-2.3555 2.7109 2.7109c-2.5117 2.9336-4.1328 6.6445-4.4453 10.734h-3.8438v-3.3359c0-2-3-2-3 0v9.668c0 2 3 2 3 0v-3.3359h3.8438c0.3125 4.0898 1.9336 7.8008 4.4453 10.734l-2.7109 2.7109-2.3555-2.3555c-1.4219-1.3984-3.5547 0.71094-2.1328 2.1328l6.8477 6.8477c1.3984 1.3984 3.5352-0.73438 2.1094-2.1328l-2.3555-2.3555 2.7109-2.7109c2.957 2.4883 6.668 4.1133 10.734 4.4453v3.8203h-3.3359c-1.9805 0-1.9805 3.0234 0 3.0234h9.6914c1.9766 0 1.9766-3.0234 0-3.0234h-3.3359zm51.543-69.547-2.0898-2.0898 4.5586-4.5781 2.0898 2.1094zm-58.699 62.035c2.9102 0 5.2461-2.3555 5.2461-5.2461s-2.332-5.2461-5.2461-5.2461c-2.8906 0-5.2461 2.3555-5.2461 5.2461s2.3555 5.2461 5.2461 5.2461zm0-7.4688c1.2422 0 2.2461 1 2.2461 2.2227 0 1.2422-1 2.2422-2.2461 2.2422-1.2227 0-2.2227-1-2.2227-2.2422 0-1.2227 1-2.2227 2.2227-2.2227zm1.9766-6.332c2.8906 0 5.2461-2.3555 5.2461-5.2461 0-2.9102-2.3555-5.2461-5.2461-5.2461s-5.2461 2.3359-5.2461 5.2461c0 2.8867 2.3555 5.2461 5.2461 5.2461zm0-7.4922c1.2227 0 2.2227 1 2.2227 2.2461 0 1.2227-1 2.2227-2.2227 2.2227-1.2227 0-2.2227-1-2.2227-2.2227 0-1.2461 1-2.2461 2.2227-2.2461zm13.426 16.402c2.8906 0 5.2461-2.3555 5.2461-5.2461 0-2.9102-2.3555-5.2461-5.2461-5.2461-2.9102 0-5.2461 2.3359-5.2461 5.2461 0 2.8906 2.332 5.2461 5.2461 5.2461zm0-7.4883c1.2227 0 2.2227 1 2.2227 2.2422 0 1.2227-1 2.2227-2.2227 2.2227-1.2422 0-2.2461-1-2.2461-2.2227 0-1.2422 1-2.2422 2.2461-2.2422zm110.03-15.777-7.1328 6.7344c-0.40234 0.37891-0.3125 0.62109 0.066406 0.97656l9.6016 8.9805h34.43l9.6211-8.9805c0.37891-0.35547 0.46875-0.60156 0.046874-0.97656l-7.0469-6.6445c-7.2695-6.8672 2.4883-14.734 7.8008-9.2031l8.3125 7.8242c4.9805 4.6875 4.9805 12.293 0 16.98l-16.379 15.289v10.137c-0.023437 0.86719-0.6875 1.5117-1.5117 1.5117h-36.117c-0.80078 0-1.4883-0.64453-1.4883-1.5117v-10.137l-16.383-15.289c-5.0039-4.6875-4.9805-12.293-0.019531-16.98l8.3125-7.8242c5.375-5.5781 14.977 2.4258 7.8867 9.1133zm16.516-47.766c0.82422 0 1.4883 0.66797 1.4883 1.5117v1.4883h1.5117c0.82031 0 1.5117 0.6875 1.5117 1.5117 0 0.82422-0.69141 1.5117-1.5117 1.5117h-1.5117v1.5117c0 0.82031-0.66406 1.4883-1.4883 1.4883-0.84375 0-1.5117-0.66797-1.5117-1.4883v-1.5117h-1.5117c-0.82031 0-1.5117-0.6875-1.5117-1.5117 0-0.82031 0.69141-1.5117 1.5117-1.5117h1.5117v-1.4883c0-0.84375 0.66406-1.5117 1.5117-1.5117zm27.781 9.1797c0.82031 0 1.4883 0.66797 1.4883 1.5117v1.4883h1.5117c0.82031 0 1.5117 0.6875 1.5117 1.5117 0 0.82422-0.69141 1.5117-1.5117 1.5117h-1.5117v1.5117c0 0.82422-0.66797 1.4883-1.4883 1.4883-0.84375 0-1.5117-0.66797-1.5117-1.4883v-1.5117h-1.5117c-0.82422 0-1.5117-0.6875-1.5117-1.5117 0-0.82031 0.6875-1.5117 1.5117-1.5117h1.5117v-1.4883c0-0.84375 0.66797-1.5117 1.5117-1.5117zm-40.695 20.406c0.82422 0 1.5117 0.66797 1.5117 1.5117v1.4883h1.5117c0.82031 0 1.4883 0.6875 1.4883 1.5117 0 0.82422-0.66797 1.5117-1.4883 1.5117h-1.5117v1.4883c0 0.84375-0.6875 1.5117-1.5117 1.5117-0.82031 0-1.5117-0.66797-1.5117-1.5117v-1.4883h-1.4883c-0.84375 0-1.5117-0.6875-1.5117-1.5117 0-0.82031 0.66797-1.5117 1.5117-1.5117h1.4883v-1.4883c0-0.84375 0.6875-1.5117 1.5117-1.5117zm16.156-19.004c9.0039-1.5547 16.359-0.24219 17.316 3.3789 0.24219 0.86719 0.089843 1.8008-0.39844 2.7773 4.1328 2.625 6.4453 5.5352 5.8008 7.957-1.1328 4.2461-11.023 5.2891-22.094 2.3359-0.19922-0.066407-0.42187-0.13281-0.62109-0.17969-0.22266 0.042969-0.42188 0.10938-0.64453 0.17969-11.047 2.9531-20.938 1.9102-22.07-2.3359-0.66797-2.4258 1.6445-5.3359 5.7773-7.957-0.48828-0.97656-0.62109-1.9102-0.39844-2.7773 0.97266-3.625 8.3086-4.9375 17.332-3.3789zm15.293 8.3555c-2.0898 2.1797-5.6016 4.332-9.957 6.0898 7.7148 1.5352 13.867 1.1562 14.469-1.1133 0.37891-1.3984-1.3984-3.1953-4.5117-4.9766zm-29.762-3.6211c1.8477-0.95703 3.9336-1.8438 6.1992-2.6211-3.4648 0-5.8008 0.6875-6.1562 2.043-0.042969 0.17578-0.066406 0.375-0.042969 0.57812zm10.492-0.77734c1.3555-0.37891 2.6914-0.6875 3.9805-0.93359 1.2891 0.24219 2.6211 0.55469 3.9805 0.93359 3.3125 0.89062 6.3555 1.9805 8.8672 3.1562-2.3789 2.0664-7.0898 4.3359-12.848 6.0234-5.7578-1.6875-10.492-3.957-12.848-6.0234 2.5117-1.1797 5.5312-2.2695 8.8672-3.1562zm12.223-1.8477c3.4688 0 5.8008 0.6875 6.1797 2.043 0.042968 0.17969 0.042968 0.37891 0.023437 0.57813-1.8438-0.95313-3.9336-1.8438-6.2031-2.6211zm-13.602 12.336c-7.6914 1.5352-13.848 1.1562-14.469-1.1133-0.35547-1.3984 1.3984-3.1992 4.5352-4.9766 2.0859 2.1797 5.5781 4.332 9.9336 6.0898zm5.3555 3.9141c6.9805 0 12.691 5.7344 12.691 12.715v6.4688c0 6.9805-5.7109 12.691-12.691 12.691-7 0-12.715-5.7109-12.715-12.691v-6.4688c0.003906-6.9805 5.7148-12.715 12.715-12.715zm208.36-28.941h63.301c2.9141 0 5.2891 2.3789 5.2891 5.2891v79.816c0 2.9102-2.3789 5.2891-5.2891 5.2891h-63.301c-2.9102 0-5.3125-2.3789-5.3125-5.2891v-79.816c0-2.9102 2.4023-5.2891 5.3125-5.2891zm8.3594 14.559c-0.26953-0.46875-0.37891-0.86719-0.84766-1.0898-0.48828-0.24219-2.3555 0.33203-3.2656 0.35547-1.2891 0-2.1367-0.48828-2.8477-1.3359-0.57812-0.6875-0.64453-0.82031-1.2422-1.8906-1.0898-1.8867 1.6641-3.4219 2.7109-1.6016 0.26953 0.48828 0.57812 1.2656 1.0469 1.5352 0.62109 0.35547 1.8047-0.19922 2.7344-0.3125 1.8438-0.19922 2.8438 0.46484 3.7773 1.7539 0.42188 0.60156 0.15625 0.13281 0.64453 0.98047 1.1094 1.9609-1.6211 3.4961-2.7109 1.6055zm-0.3125 6.1602c-0.35547-0.37891-0.57812-0.71094-1.0938-0.82422-0.51172-0.10938-2.1758 0.93359-3.0664 1.1797-1.2422 0.35547-2.1797 0.089844-3.0898-0.53516-0.73437-0.51172-0.82031-0.64453-1.6875-1.5117-1.5312-1.5586 0.71094-3.7344 2.1992-2.2227 0.39844 0.37891 0.89062 1.0469 1.4258 1.1797 0.6875 0.17969 1.6875-0.64453 2.5547-0.97656 1.7148-0.6875 2.8672-0.28906 4.0898 0.71094 0.57812 0.46875 0.19922 0.089843 0.86719 0.77734 1.6016 1.5977-0.64062 3.7734-2.1992 2.2227zm1.3125 6.043c-0.44141-0.26562-0.75781-0.55469-1.2695-0.51172-0.53125 0.023437-1.8672 1.4688-2.6445 1.9336-1.1328 0.64453-2.0898 0.64453-3.1328 0.26562-0.84766-0.3125-0.95703-0.39844-2.0234-1.0195-1.8906-1.0898-0.26953-3.7773 1.5547-2.7148 0.46875 0.26953 1.1367 0.80078 1.668 0.77734 0.71094 0 1.4688-1.043 2.1992-1.6016 1.4883-1.1094 2.7109-1.0195 4.1562-0.37891 0.66406 0.28906 0.19922 0.042969 1.0469 0.51172 1.957 1.1406 0.33203 3.8281-1.5547 2.7383zm45.59-3.7539c0.26562 0.44141 0.37891 0.84375 0.84375 1.0898 0.46484 0.22266 2.3359-0.35547 3.2695-0.35547 1.2891-0.023437 2.1094 0.48828 2.8438 1.332 0.57812 0.66797 0.62109 0.82031 1.2461 1.8906 1.0898 1.8906-1.668 3.4023-2.7109 1.5781-0.26953-0.48828-0.57812-1.2695-1.0469-1.5117-0.64453-0.35547-1.8008 0.17969-2.7305 0.28906-1.8438 0.22266-2.8477-0.46484-3.7773-1.7539-0.42188-0.60156-0.15625-0.13281-0.64453-0.98047-1.1211-1.957 1.6172-3.4688 2.707-1.5781zm0.28906-6.1797c0.37891 0.37891 0.60156 0.73438 1.1094 0.82031 0.50781 0.10938 2.1758-0.93359 3.043-1.1797 1.2695-0.33203 2.1992-0.089844 3.0938 0.55859 0.75391 0.51172 0.84375 0.62109 1.7109 1.4883 1.5352 1.5586-0.73047 3.7344-2.1992 2.2461-0.39844-0.39844-0.88672-1.0664-1.4219-1.1992-0.6875-0.17969-1.6875 0.64453-2.5547 1-1.7148 0.66797-2.8672 0.26953-4.0938-0.73438-0.57812-0.46484-0.19922-0.089843-0.89062-0.77734-1.5781-1.6016 0.66797-3.7812 2.2031-2.2227zm-1.3164-6.0469c0.46875 0.26562 0.75781 0.55469 1.2891 0.51172 0.53125-0.023437 1.8477-1.4688 2.6445-1.9336 1.1094-0.64453 2.0898-0.64453 3.1367-0.26562 0.84766 0.3125 0.95312 0.39844 2.0234 1.0195 1.8906 1.0898 0.26563 3.7773-1.5586 2.7148-0.46875-0.26953-1.1367-0.77734-1.6641-0.77734-0.73438 0-1.4688 1.0664-2.2266 1.6211-1.4883 1.1094-2.6875 1.0195-4.1328 0.37891-0.6875-0.3125-0.19922-0.046875-1.0469-0.53516-1.9531-1.1328-0.32812-3.8242 1.5352-2.7344zm-33.762-3.957c-0.60156-1.1094-1.7578-1.8672-3.1094-1.8672-1.9336 0-3.5156 1.5586-3.5156 3.5117 0 0.98047 0.39844 1.8672 1.0469 2.5117l-0.13281 0.55859c-1.2891 5.1797-1.2891 9.2891 0 14.469l0.13281 0.55859c-0.64453 0.64453-1.0469 1.5312-1.0469 2.5312 0 1.9336 1.5781 3.5117 3.5156 3.5117 1.3555 0 2.5117-0.75391 3.1094-1.8906 0.26953 0.089843 0.53516 0.17969 0.80078 0.24219-3.1797 1.8438-5.3359 5.2891-5.3359 9.1992v17.113c0 3.1992 2.6211 5.8242 5.8242 5.8242 3.2227 0 5.8477-2.6211 5.8477-5.8242v-13.602c0-0.84375-0.6875-1.5117-1.5156-1.5117-0.84375 0-1.5117 0.66406-1.5117 1.5117v13.602c0 1.5586-1.2695 2.8242-2.8203 2.8242-1.5586 0-2.8242-1.2656-2.8242-2.8242v-17.113c0-4.1797 3.4258-7.5781 7.5781-7.5781h10.891c4.1562 0 7.5586 3.3984 7.5586 7.5781v17.113c0 1.5586-1.2656 2.8242-2.8203 2.8242-1.5312 0-2.8008-1.2656-2.8008-2.8242v-13.602c0-0.84375-0.6875-1.5117-1.5117-1.5117-0.84375 0-1.5117 0.66406-1.5117 1.5117v13.602c0 3.1992 2.6211 5.8242 5.8242 5.8242 3.2227 0 5.8477-2.6211 5.8477-5.8242v-17.113c0-3.9102-2.1562-7.3555-5.3359-9.1992 0.26953-0.066406 0.53125-0.15625 0.80078-0.24219 0.57812 1.1328 1.7578 1.8906 3.1133 1.8906 1.9336 0 3.5117-1.5781 3.5117-3.5117 0-1-0.39844-1.8906-1.0664-2.5312l0.15625-0.55859c1.2656-5.1797 1.2656-9.2891 0-14.469l-0.15625-0.55859c0.66797-0.64453 1.0664-1.5312 1.0664-2.5117 0-1.9531-1.5781-3.5117-3.5117-3.5117-1.3555 0-2.5352 0.75781-3.1133 1.8672-7.4453-2.3984-15.535-2.3984-22.984 0zm11.492 21.805c5.4453 0 9.8477-4.4258 9.8477-9.8477 0-5.4453-4.3984-9.8711-9.8477-9.8711-5.4453 0-9.8477 4.4258-9.8477 9.8711 0 5.4258 4.4023 9.8477 9.8477 9.8477zm0-16.691c3.7773 0 6.8477 3.0664 6.8477 6.8477 0 3.7773-3.0703 6.8242-6.8477 6.8242-3.7773 0-6.8477-3.0469-6.8477-6.8242 0-3.7812 3.0664-6.8477 6.8477-6.8477zm-33.941 35.562h14.891v9.7812c0 4.8672 3.9805 8.8477 8.8477 8.8477 4.8672 0 8.8438-3.9766 8.8438-8.8477v-9.7812h2.7148v9.7812c0 4.8672 3.9531 8.8477 8.8203 8.8477 4.8906 0 8.8477-3.9766 8.8477-8.8477v-9.7812h14.914v-42.207c0-1.2422-1.0234-2.2891-2.2891-2.2891h-63.301c-1.2695 0-2.2891 1.0469-2.2891 2.2891l0.003906 42.207zm138.43 14.273h30.586c7.5312 0 13.715 6.1797 13.715 13.734v13.578c0 0.82031-0.66406 1.5117-1.5117 1.5117h-9.668v-13.824c0-0.82031-0.6875-1.5117-1.5117-1.5117-0.82031 0-1.5117 0.6875-1.5117 1.5117v13.824h-29.633v-13.824c0-0.82031-0.66406-1.5117-1.4883-1.5117-0.84375 0-1.5117 0.6875-1.5117 1.5117v13.824h-9.6914c-0.82031 0-1.4883-0.6875-1.4883-1.5117v-13.578c0-7.5547 6.1562-13.734 13.715-13.734zm24.227-37.719c2.6016-7.1328 4.4688-11.445 7.0664-18.582 0.42188-1.1562 2.0664-1.3789 2.7344-0.24219l1.7773 3.0898 2.7773-4.2891c0.80078-1.3125 2.0234-1.4453 2.7344-0.22266l3.4453 5.957c0.46875 0.80078 0.28906 1.2461-0.24219 2.0234l-7.1133 10.469c-0.64453 1.1797-2.2227 1-2.7578-0.15625l-1.3789-2.3984-6.4922 5.8672c-1.3047 1.1953-3.1016-0.003906-2.5508-1.5156zm-17.867 0c-2.6016-7.1328-4.4688-11.445-7.0898-18.582-0.42188-1.1562-2.0664-1.3789-2.7109-0.24219l-1.7773 3.0898-2.7773-4.2891c-0.82422-1.3125-2.0469-1.4453-2.7578-0.22266l-3.4219 5.957c-0.46875 0.80078-0.3125 1.2461 0.24219 2.0234l7.1133 10.469c0.64453 1.1797 2.2227 1 2.7305-0.15625l1.3789-2.3984 6.4883 5.8672c1.3164 1.1953 3.1367-0.003906 2.582-1.5156zm8.8672 2.2227c3.1797-6.8672 4.9336-11.246 8.1094-18.137 0.51172-1.1094-0.48438-2.4258-1.7539-2.0898l-3.4258 0.91016 1.0664-5c0.33594-1.4883-0.42188-2.4453-1.8008-2.0898l-6.6211 1.7773c-0.89062 0.24609-1.0898 0.66797-1.2695 1.6016l-2.3789 12.445c-0.37891 1.2891 0.86719 2.2695 2.0664 1.8203l2.6641-0.71094 0.42578 8.7344c0.09375 1.7812 2.2266 2.207 2.918 0.73828zm-44.922 23.293c0-3.2891 2.5781-5.9805 5.8242-6.1367 0-3.3984 2.7578-6.1367 6.1367-6.1367 3.3984 0 6.1562 2.7578 6.1562 6.1367-0.019532 0.89062-0.55469 1.6445-1.5117 1.6445-0.93359 0-1.5117-0.75781-1.5117-1.6445 0-1.7109-1.3984-3.1328-3.1367-3.1328-1.7344 0-3.1328 1.4219-3.1328 3.1328 0 0.42188 0.089843 0.80078 0.22266 1.1562 0.48828 1.1992-0.64453 2.4258-1.8906 2-0.3125-0.10938-0.66797-0.15625-1.0195-0.15625-1.7344 0-3.1367 1.3984-3.1367 3.1328 0 1.7109 1.3984 3.1367 3.1367 3.1367 0.35547 0 0.6875-0.066406 0.99609-0.17969 1.2461-0.39844 2.3984 0.77734 1.9102 2-0.13281 0.35547-0.22266 0.73438-0.22266 1.1562 0 1.7344 1.3984 3.1328 3.1328 3.1328s3.1367-1.3984 3.1367-3.1328c0-0.89062 0.57812-1.6211 1.5117-1.6211 0.95703 0 1.4883 0.75781 1.5117 1.6211 0 3.3789-2.7578 6.1367-6.1562 6.1367-3.3789 0-6.1367-2.7344-6.1367-6.1133-3.2422-0.17578-5.8203-2.8633-5.8203-6.1328zm14.602-1.1328 12.047 0.6875c0.82031 0.042968 1.5352-0.60156 1.5781-1.4258 0.046876-0.82031-0.60156-1.5312-1.4219-1.5781l-12.027-0.6875c-0.82031-0.042969-1.5312 0.60156-1.6016 1.4219-0.039062 0.82422 0.60547 1.5352 1.4258 1.582zm-1.9961 5.2461 9.2695-0.73438c0.82031-0.066406 1.4414-0.80078 1.3789-1.6211-0.066406-0.82031-0.80078-1.4453-1.6211-1.3984l-9.2461 0.75391c-0.84375 0.066407-1.4648 0.80078-1.3984 1.6211 0.058594 0.82422 0.79297 1.4453 1.6172 1.3789zm77.793-4.1133c0-3.2891-2.5781-5.9805-5.8242-6.1367 0-3.3984-2.7578-6.1367-6.1367-6.1367-3.3984 0-6.1562 2.7578-6.1562 6.1367 0.019531 0.89062 0.53125 1.6445 1.5117 1.6445 0.93359 0 1.5117-0.75781 1.5117-1.6445 0-1.7109 1.4023-3.1328 3.1367-3.1328 1.7109 0 3.1367 1.4219 3.1367 3.1328 0 0.42188-0.089844 0.80078-0.22656 1.1562-0.48437 1.2227 0.66797 2.4258 1.8672 2 0.33594-0.10938 0.66406-0.15625 1.0469-0.15625 1.7109 0 3.1367 1.3984 3.1367 3.1328 0 1.7109-1.4258 3.1367-3.1367 3.1367-0.37891 0-0.71094-0.066406-1.0234-0.17969-1.2422-0.42188-2.3789 0.80078-1.8906 2 0.13672 0.35547 0.22656 0.73438 0.22656 1.1562 0 1.7344-1.4258 3.1328-3.1367 3.1328-1.7305 0-3.1367-1.3984-3.1367-3.1328 0-0.89062-0.57813-1.6211-1.5117-1.6211-0.97656 0-1.4883 0.75781-1.5117 1.6211 0 3.3789 2.7578 6.1367 6.1562 6.1367 3.3789 0 6.1367-2.7344 6.1367-6.1133 3.2422-0.17578 5.8242-2.8633 5.8242-6.1328zm-14.602-1.1328-12.047 0.6875c-0.82031 0.042968-1.5312-0.60156-1.5781-1.4258-0.046875-0.82031 0.57812-1.5312 1.4219-1.5781l12.023-0.6875c0.82422-0.042969 1.5352 0.60156 1.5781 1.4219 0.042969 0.82422-0.57812 1.5352-1.3984 1.582zm1.9766 5.2461-9.2461-0.73438c-0.82031-0.066406-1.4414-0.80078-1.3789-1.6211 0.066406-0.82031 0.80078-1.4453 1.6211-1.3984l9.2461 0.75391c0.82031 0.066407 1.4414 0.80078 1.3789 1.6211-0.066406 0.82422-0.80078 1.4453-1.6211 1.3789zm-32.785-25.648c8.1562 0 14.848 6.0898 14.848 13.535v5.1133c0 7.4453-6.6875 13.535-14.848 13.535-8.1797 0-14.848-6.0898-14.848-13.535v-5.1133c0-7.4453 6.668-13.535 14.848-13.535zm-482.45 154.37c2.8008 2.043 5.6016 4.0898 8.4023 6.1328l-2.6445-8.6016-6.7578 1.8008c0.35547 0.17969 0.6875 0.40234 1 0.66797zm-30.117-27.629c0.13281-0.15625 0.22266-0.33594 0.24609-0.60156 0.042969-0.51172-1.1562-2.0469-1.4883-2.9102-0.46875-1.1992-0.3125-2.1562 0.22266-3.1328 0.44531-0.77734 0.55469-0.88672 1.332-1.8477 1.3789-1.6641 3.7773 0.35547 2.4453 1.9805-0.35547 0.42188-0.97656 1-1.0469 1.5117-0.10937 0.73047 0.80078 1.6211 1.2461 2.4453 0.80078 1.5547 0.60156 2.7109-0.17969 3.957-0.33594 0.53125-1.1094 1.4219-1.1562 1.8906-0.042969 0.53125 1.1797 2.0664 1.4883 2.9102 0.46875 1.2227 0.3125 2.1797-0.22266 3.1367-0.44531 0.80078-0.55469 0.89062-1.332 1.8438-1.3789 1.6875-3.7773-0.33203-2.4453-1.9766 0.35547-0.42187 0.97656-0.98047 1.0664-1.5117 0.089844-0.71094-0.82422-1.6211-1.2461-2.4453-1.1758-2.2695-0.17578-3.4727 1.0703-5.25zm7.3555 0c0.13281-0.15625 0.19922-0.33594 0.22266-0.60156 0.066406-0.51172-1.1562-2.0469-1.4883-2.9102-0.44531-1.1992-0.28906-2.1562 0.24609-3.1328 0.44531-0.77734 0.53125-0.88672 1.332-1.8477 1.3789-1.6641 3.7773 0.35547 2.4219 1.9805-0.33203 0.42188-0.95703 1-1.043 1.5117-0.089844 0.73047 0.82031 1.6211 1.2422 2.4453 0.82422 1.5547 0.60156 2.7109-0.15625 3.957-0.33203 0.53125-1.1133 1.4219-1.1562 1.8906-0.042969 0.53125 1.1562 2.0664 1.4883 2.9102 0.46875 1.2227 0.3125 2.1797-0.22266 3.1367-0.44531 0.80078-0.55469 0.89062-1.3359 1.8438-1.3789 1.6875-3.7773-0.33203-2.4453-1.9766 0.35547-0.42187 0.97656-0.98047 1.0469-1.5117 0.10937-0.71094-0.80078-1.6211-1.2461-2.4453-1.1719-2.2695-0.14844-3.4727 1.0938-5.25zm7.3594 0c0.10938-0.15625 0.19922-0.33594 0.22266-0.60156 0.042969-0.51172-1.1562-2.0469-1.4883-2.9102-0.46875-1.1992-0.28906-2.1562 0.24609-3.1328 0.42187-0.77734 0.53516-0.88672 1.3125-1.8477 1.3789-1.6641 3.7773 0.35547 2.4453 1.9805-0.35547 0.42188-0.95703 1-1.0469 1.5117-0.10938 0.73047 0.82031 1.6211 1.2461 2.4453 0.82031 1.5547 0.59766 2.7109-0.15625 3.957-0.33594 0.53125-1.1094 1.4219-1.1562 1.8906-0.042969 0.53125 1.1562 2.0664 1.4883 2.9102 0.46875 1.2227 0.28906 2.1797-0.24219 3.1367-0.42187 0.80078-0.53125 0.89062-1.3125 1.8438-1.3789 1.6875-3.7773-0.33203-2.4453-1.9766 0.35547-0.42187 0.95703-0.98047 1.0469-1.5117 0.10938-0.71094-0.82422-1.6211-1.2461-2.4453-1.1836-2.2695-0.16016-3.4727 1.0859-5.25zm-11.359-9.7344c-4.5781 0-8.2891-3.7148-8.2891-8.293 0-4.1562 3.0664-7.6016 7.0664-8.1992 0.66797-4.8242 4.8008-8.5586 9.8242-8.5586 5.0234 0 9.1562 3.7344 9.8242 8.5586 4 0.60156 7.0664 4.0469 7.0664 8.1992 0 4.5781-3.7109 8.293-8.2891 8.293zm60.324 9.7344c0.13281-0.15625 0.22266-0.33594 0.24219-0.60156 0.046875-0.51172-1.1758-2.0469-1.4883-2.9102-0.46875-1.1992-0.3125-2.1562 0.22266-3.1328 0.44531-0.77734 0.55469-0.88672 1.332-1.8477 1.3789-1.6641 3.7773 0.35547 2.4453 1.9805-0.35547 0.42188-0.97656 1-1.0469 1.5117-0.10938 0.73047 0.80078 1.6211 1.2461 2.4453 0.80078 1.5547 0.60156 2.7109-0.17578 3.957-0.33594 0.53125-1.1133 1.4219-1.1562 1.8906-0.042968 0.53125 1.1797 2.0664 1.4883 2.9102 0.46875 1.2227 0.3125 2.1797-0.22266 3.1367-0.44531 0.80078-0.55469 0.89062-1.332 1.8438-1.3789 1.6875-3.7773-0.33203-2.4453-1.9766 0.35547-0.42187 0.97656-0.98047 1.043-1.5117 0.10938-0.71094-0.80078-1.6211-1.2461-2.4453-1.1719-2.2695-0.15234-3.4727 1.0938-5.25zm-7.3359 0c0.10938-0.15625 0.19922-0.33594 0.22266-0.60156 0.046875-0.51172-1.1562-2.0469-1.4883-2.9102-0.46484-1.1992-0.3125-2.1562 0.22266-3.1328 0.44531-0.77734 0.55469-0.88672 1.3359-1.8477 1.3789-1.6641 3.7773 0.35547 2.4453 1.9805-0.35547 0.42188-0.98047 1-1.043 1.5117-0.10938 0.73047 0.80078 1.6211 1.2422 2.4453 0.80078 1.5547 0.60156 2.7109-0.15625 3.957-0.35547 0.53125-1.1133 1.4219-1.1562 1.8906-0.066406 0.53125 1.1562 2.0664 1.4883 2.9102 0.44531 1.2227 0.28906 2.1797-0.24219 3.1367-0.42188 0.80078-0.53516 0.89062-1.3359 1.8438-1.3789 1.6875-3.7773-0.33203-2.4219-1.9766 0.33203-0.42187 0.95312-0.98047 1.043-1.5117 0.089844-0.71094-0.82031-1.6211-1.2422-2.4453-1.1797-2.2695-0.17969-3.4727 1.0859-5.25zm-7.3555 0c0.10938-0.15625 0.19922-0.33594 0.22266-0.60156 0.046876-0.51172-1.1562-2.0469-1.4883-2.9102-0.46875-1.1992-0.28906-2.1562 0.24609-3.1328 0.42188-0.77734 0.53125-0.88672 1.3125-1.8477 1.3789-1.6641 3.7773 0.35547 2.4453 1.9805-0.35547 0.42188-0.95703 1-1.0469 1.5117-0.10937 0.73047 0.82031 1.6211 1.2461 2.4453 0.82031 1.5547 0.60156 2.7109-0.15625 3.957-0.33203 0.53125-1.1094 1.4219-1.1562 1.8906-0.042968 0.53125 1.1562 2.0664 1.4883 2.9102 0.46875 1.2227 0.28906 2.1797-0.24219 3.1367-0.42188 0.80078-0.53516 0.89062-1.3125 1.8438-1.3789 1.6875-3.7773-0.33203-2.4453-1.9766 0.35547-0.42187 0.95703-0.98047 1.0469-1.5117 0.10938-0.71094-0.82422-1.6211-1.2461-2.4453-1.1836-2.2695-0.16016-3.4727 1.0859-5.25zm-7.3594 0c0.13281-0.15625 0.19922-0.33594 0.22266-0.60156 0.066406-0.51172-1.1562-2.0469-1.4883-2.9102-0.44531-1.1992-0.28906-2.1562 0.24219-3.1328 0.42188-0.77734 0.53516-0.88672 1.3359-1.8477 1.3789-1.6641 3.7773 0.35547 2.4219 1.9805-0.33594 0.42188-0.95703 1-1.0469 1.5117-0.089843 0.73047 0.82031 1.6211 1.2461 2.4453 0.82031 1.5547 0.60156 2.7109-0.15625 3.957-0.33594 0.53125-1.1133 1.4219-1.1562 1.8906-0.046875 0.53125 1.1562 2.0664 1.4883 2.9102 0.46875 1.2227 0.3125 2.1797-0.22266 3.1367-0.44531 0.80078-0.55859 0.89062-1.3359 1.8438-1.3789 1.6875-3.7773-0.33203-2.4453-1.9766 0.35547-0.42187 0.97656-0.98047 1.043-1.5117 0.11328-0.71094-0.80078-1.6211-1.2461-2.4453-1.168-2.2695-0.14453-3.4727 1.0977-5.25zm3.3594-9.7344c-4.5781 0-8.2891-3.7148-8.2891-8.293 0-4.1562 3.0664-7.6016 7.0664-8.1992 0.64453-4.8242 4.8008-8.5586 9.8242-8.5586 5 0 9.1562 3.7344 9.8242 8.5586 4 0.60156 7.0664 4.0469 7.0664 8.1992 0 4.5781-3.7109 8.293-8.2891 8.293zm-16.184 26.918c5.668 0 10.289-4.6211 10.289-10.289 0-5.6875-4.625-10.289-10.289-10.289-5.6914 0-10.289 4.6016-10.289 10.289 0 5.6641 4.6016 10.289 10.289 10.289zm12.113-1.8008c4.0469-1.2695 8.4453 1 9.7148 5.1133l7.7148 25.113c2.2461 7.2891-6.2891 12.957-12.18 8.3594-6.2031-4.5781-12.426-9.1133-18.648-13.672l-10.203 12.734c-4.8477 6.0469-13.961-1.3984-9.1797-7.3555l13.336-16.672-0.44531 0.13281c-2.1562 0.57812-4.4023-0.73047-4.9766-2.8906-0.57812-2.1562 0.73438-4.3984 2.8906-4.9766zm120.5 1.9844c8.1133 4.8008 13.578 13.648 13.578 23.719v13.023c0 0.82031-0.66797 1.5117-1.4883 1.5117h-12.867v-13.824c0-0.82422-0.66797-1.5117-1.4883-1.5117-0.84375 0-1.5117 0.6875-1.5117 1.5117v13.824h-32.695v-13.824c0-0.82422-0.6875-1.5117-1.5117-1.5117-0.82031 0-1.5117 0.6875-1.5117 1.5117v13.824h-12.848c-0.82031 0-1.5117-0.6875-1.5117-1.5117v-13.023c0-10.066 5.4883-18.914 13.602-23.719 3.5547 7.5586 11.227 12.781 20.113 12.781 8.918 0 16.586-5.2227 20.141-12.781zm-10.023-41.098c0.10938-0.17969 0.19922-0.35547 0.22266-0.60156 0.046876-0.53125-1.1562-2.0664-1.4883-2.9102-0.46875-1.2227-0.28906-2.1797 0.24609-3.1367 0.42188-0.80078 0.53125-0.89062 1.3125-1.8438 1.3789-1.6875 3.7773 0.33203 2.4453 1.9766-0.35547 0.42187-0.95313 0.97656-1.043 1.5117-0.10938 0.71094 0.82031 1.6211 1.2422 2.4453 0.82031 1.5586 0.60156 2.6875-0.15625 3.9336-0.33203 0.55469-1.1094 1.4453-1.1562 1.9102-0.042968 0.51172 1.1562 2.043 1.4883 2.9102 0.46484 1.1992 0.28906 2.1562-0.24219 3.1328-0.42188 0.77734-0.53516 0.89062-1.3125 1.8438-1.3789 1.668-3.7773-0.35547-2.4453-1.9766 0.35547-0.42188 0.95703-0.99609 1.043-1.5117 0.11328-0.73438-0.82031-1.6211-1.2422-2.4453-1.1797-2.2578-0.15625-3.4805 1.0859-5.2383zm-7.3555 0c0.13281-0.17969 0.19922-0.35547 0.22266-0.60156 0.066406-0.53125-1.1562-2.0664-1.4883-2.9102-0.44531-1.2227-0.28906-2.1797 0.24609-3.1367 0.44531-0.80078 0.53125-0.89062 1.332-1.8438 1.3789-1.6875 3.7773 0.33203 2.4219 1.9766-0.33203 0.42187-0.95703 0.97656-1.043 1.5117-0.089844 0.71094 0.82031 1.6211 1.2461 2.4453 0.82031 1.5586 0.60156 2.6875-0.15625 3.9336-0.33203 0.55469-1.1094 1.4453-1.1562 1.9102-0.042969 0.51172 1.1562 2.043 1.4883 2.9102 0.46875 1.1992 0.3125 2.1562-0.22266 3.1328-0.44531 0.77734-0.55469 0.89062-1.332 1.8438-1.3789 1.668-3.7773-0.35547-2.4453-1.9766 0.35547-0.42188 0.97656-0.99609 1.0469-1.5117 0.10938-0.73438-0.80078-1.6211-1.2461-2.4453-1.1836-2.2578-0.16016-3.4805 1.0859-5.2383zm-7.3594 0c0.13281-0.17969 0.22266-0.35547 0.24219-0.60156 0.042969-0.53125-1.1562-2.0664-1.4883-2.9102-0.46875-1.2227-0.3125-2.1797 0.22266-3.1367 0.44531-0.80078 0.55469-0.89062 1.332-1.8438 1.3789-1.6875 3.7773 0.33203 2.4453 1.9766-0.35547 0.42187-0.97656 0.97656-1.043 1.5117-0.10938 0.71094 0.80078 1.6211 1.2461 2.4453 0.80078 1.5586 0.60156 2.6875-0.17969 3.9336-0.33203 0.55469-1.1133 1.4453-1.1562 1.9102-0.046875 0.51172 1.1797 2.043 1.4883 2.9102 0.46875 1.1992 0.3125 2.1562-0.22266 3.1328-0.44531 0.77734-0.55469 0.89062-1.3359 1.8438-1.3789 1.668-3.7773-0.35547-2.4453-1.9766 0.35547-0.42188 0.98047-0.99609 1.0664-1.5117 0.089843-0.73438-0.82031-1.6211-1.2422-2.4453-1.1719-2.2578-0.17188-3.4805 1.0703-5.2383zm-7.332 0c0.10938-0.17969 0.19922-0.35547 0.22266-0.60156 0.046874-0.53125-1.1562-2.0664-1.4883-2.9102-0.46875-1.2227-0.28906-2.1797 0.24219-3.1367 0.42188-0.80078 0.53516-0.89062 1.3125-1.8438 1.3789-1.6875 3.7773 0.33203 2.4453 1.9766-0.35547 0.42187-0.97656 0.97656-1.043 1.5117-0.10938 0.71094 0.82031 1.6211 1.2461 2.4453 0.80078 1.5586 0.60156 2.6875-0.15625 3.9336-0.33203 0.55469-1.1094 1.4453-1.1562 1.9102-0.066406 0.51172 1.1562 2.043 1.4883 2.9102 0.46875 1.1992 0.28906 2.1562-0.24219 3.1328-0.42188 0.77734-0.53516 0.89062-1.3125 1.8438-1.4023 1.668-3.7773-0.35547-2.4453-1.9766 0.35547-0.42188 0.95313-0.99609 1.043-1.5117 0.11328-0.73438-0.82031-1.6211-1.2461-2.4453-1.1797-2.2578-0.15625-3.4805 1.0898-5.2383zm46.297 10.938v1.043c-6.3125 2.3359-10.801 8.4023-10.801 15.535 0 9.1367 7.4258 16.559 16.559 16.559 9.1562 0 16.582-7.4258 16.582-16.559 0-7.1367-4.4883-13.203-10.801-15.535v-1.043h0.17969c2 0 3.6445-1.6445 3.6445-3.6445 0-0.75391-0.24609-1.5117-0.6875-2.1328 0.42187-0.60156 0.6875-1.332 0.6875-2.1328 0-0.75391-0.24609-1.5117-0.6875-2.1328 0.42187-0.60156 0.6875-1.3359 0.6875-2.1094 0-2-1.6445-3.6445-3.6445-3.6445h-2.3125v-4.6875c0-0.82031-0.66797-1.4883-1.5117-1.4883-0.82422 0-1.4883 0.66797-1.4883 1.4883v4.6875h-1.2656v-4.6875c0-0.82031-0.66797-1.4883-1.5117-1.4883-0.82031 0-1.4883 0.66797-1.4883 1.4883v4.6875h-2.3359c-2 0-3.6211 1.6445-3.6211 3.6445 0 0.75391 0.24609 1.5117 0.6875 2.1094-0.44531 0.60156-0.6875 1.3555-0.6875 2.1328s0.24609 1.5117 0.6875 2.1328c-0.44531 0.60156-0.6875 1.3359-0.6875 2.1328 0 2 1.6211 3.6445 3.6211 3.6445zm8.5117 0v2.1328c0 0.71484 0.46484 1.2422 1.1562 1.4688 5.5781 1.668 9.6445 6.8477 9.6445 12.98 0 7.4688-6.0664 13.559-13.559 13.559-7.4688 0-13.535-6.0898-13.535-13.559 0-6.1562 4.0898-11.355 9.7109-13.004 0.66797-0.19922 1.0664-0.82031 1.0664-1.4883v-2.0898h1.2656v3.7773c0 0.53125-0.35547 0.62109-0.75781 0.71094-5.7109 1.0469-10.047 6.0703-10.047 12.09 0 6.7773 5.5117 12.293 12.293 12.293 6.8008 0 12.312-5.5156 12.312-12.293 0-6.0469-4.3555-11.066-10.09-12.113-0.44531-0.066406-0.71094-0.20312-0.71094-0.6875v-3.7773zm-2.7539 6.7539c-0.42188 0.3125-0.98047 0.57812-1.5117 0.64453-4.4023 0.73438-7.7812 4.5586-7.7812 9.1797 0 5.1367 4.1797 9.2891 9.2891 9.2891 5.1328 0 9.2891-4.1562 9.2891-9.2891 0-4.5117-3.2227-8.2891-7.4922-9.1133-0.68359-0.15234-1.1719-0.26562-1.793-0.71094zm-40.121 33.188c10.625 0 19.227-8.6016 19.227-19.203 0-10.625-8.6016-19.227-19.227-19.227-10.602 0-19.203 8.6016-19.203 19.227 0 10.602 8.6016 19.203 19.203 19.203zm110.8 12.211c0.089844 0.84375 0.24609 1.6641 1.2656 1.6641h3.3125c-1-5.5312-3.7109-10.137-5.9805-15.289-6.6445-15.16-6.8906-32.719 8.4219-42.609 8.5781-5.5312 21.582-7.7344 32.785-5.3555-1.7539-2.5117-4.0898-4.7773-7.0898-6.7148-11.848-7.6445-33.52-8.4922-44.164 1.7578-5.6914 5.4883-7.2031 12.98-6.2461 20.605 0.26562 2.0898 0.023437 3.8906-0.95703 5.7578-1.1797 2.2891-2.5352 4.5117-3.668 6.8477-1.0234 2.1562-4.4883 9.6211 0.19922 9.8242 1.3789 0.066406 2.7578-0.019532 4.1328-0.019532 0.82422-0.023437 0.71094 0.44531 0.64453 1.043-0.53516 4.8906-0.84375 16.383 6.3789 16.383 1.7773 0 3.5547-0.10938 5.3359-0.042969 4.25 0.19141 5.2734 2.0352 5.6289 6.1484zm41.363 14.602c-0.089844 0.86719-0.24219 1.6641-1.2656 1.6641h-32.363c-1.2227 0-1.332-1.043-1.043-1.9805 1.2656-4.0469 1.5781-6.9336 1.1328-11.137-0.71094-6.9375-3.7578-11.805-6.4688-18.004-6.0234-13.734-6.7109-29.828 7.293-38.855 11.848-7.6445 33.52-8.4688 44.164 1.7578 5.6914 5.4922 7.2031 12.98 6.2461 20.605-0.26562 2.0898-0.023438 3.8906 0.95703 5.7578 1.1797 2.3125 2.5547 4.5117 3.668 6.8477 0.95312 2 3.2695 7.0234 1.6445 9.0234-0.46875 0.55469-1.1562 0.77734-1.8438 0.80078-1.3789 0.066406-2.7578-0.019532-4.1328-0.019532-0.82422 0-0.71094 0.44141-0.64453 1.043 0.53125 4.8906 0.84375 16.383-6.3789 16.383-1.7773 0-3.5547-0.10938-5.3359-0.046876-1.1523 0.066407-2.4688 0.19922-3.4648 0.86719-1.6289 1.1133-2.0078 3.4922-2.1641 5.293zm95.836-88.711c-0.82031 0.10938-1.4219 0.86719-1.3125 1.6914l1.4219 11.645c0.089844 0.82422 0.84766 1.4023 1.668 1.3125 0.82031-0.10938 1.4219-0.86719 1.3125-1.6875l-1.4219-11.645c-0.089844-0.82813-0.84766-1.4062-1.668-1.3164zm-9.2031 37.918-6.7109 6.3359c-0.42187 0.37891-0.33594 0.62109 0.042969 0.98047l9.625 9.0039h19.473l9.625-9.0039c0.37891-0.35547 0.46875-0.60156 0.066406-0.98047l-6.7109-6.3125c-0.023437 6.957-5.7344 12.648-12.715 12.648-6.9609 0-12.676-5.6914-12.695-12.672zm30.762 52.434h-36.117c-0.84375 0-1.4883-0.66406-1.5117-1.5117v-27.297l-8.8906-8.3359c-5-4.668-5-12.289-0.023438-16.961l8.3125-7.8438c2.8242-2.9336 6.2891-2.2031 8.4453-0.089844 1.9336-4.5781 6.4688-7.8242 11.715-7.8242 5.1094 0 9.7344 3.1094 11.715 7.8008 2.1562-2.0898 5.625-2.8008 8.4453 0.10938l8.3125 7.8438c4.9805 4.668 4.9805 12.293 0 16.961l-8.9102 8.3125v27.316c-0.003906 0.85547-0.64844 1.5-1.4922 1.5195zm-50.5-75.461c-0.51172 0.64453-0.39844 1.6016 0.26562 2.1133l9.2461 7.2266c0.64453 0.51172 1.6016 0.39844 2.1094-0.26562 0.51172-0.64453 0.37891-1.6016-0.26562-2.1133l-9.2461-7.2266c-0.64062-0.51172-1.5977-0.37891-2.1094 0.26562zm4.957-4.9531c0.64453-0.51172 1.6016-0.37891 2.1133 0.26562l7.2227 9.2461c0.51172 0.64453 0.37891 1.5977-0.26563 2.1133-0.64453 0.51172-1.6016 0.39844-2.1133-0.26953l-7.2227-9.2461c-0.51172-0.64453-0.40234-1.5977 0.26562-2.1094zm54.965 0c-0.66406-0.51172-1.6211-0.37891-2.1094 0.26562l-7.2461 9.2461c-0.51172 0.64453-0.37891 1.5977 0.26562 2.1133 0.64453 0.51172 1.6016 0.39844 2.1094-0.26953l7.2266-9.2461c0.51172-0.64453 0.40234-1.5977-0.24609-2.1094zm-23.98-9.9375c0.82031 0.10938 1.3984 0.86719 1.3125 1.6914l-1.4453 11.645c-0.089843 0.82422-0.84375 1.4023-1.668 1.3125-0.82031-0.10938-1.4219-0.86719-1.3125-1.6875l1.4219-11.645c0.11328-0.82813 0.86719-1.4062 1.6914-1.3164zm28.918 14.891c0.51172 0.64453 0.39844 1.6016-0.24219 2.1133l-9.2461 7.2266c-0.66797 0.51172-1.6211 0.39844-2.1094-0.26562-0.51172-0.64453-0.39844-1.6016 0.24219-2.1133l9.2461-7.2266c0.66406-0.51172 1.5977-0.37891 2.1094 0.26562zm-415.75-203.16h-11.582c-6.3359 0-11.469-5.1367-11.469-11.445 0-5.5586 4-10.336 9.4688-11.289 0.95703-0.17969 1.1133-0.73438 0.91016-1.6016-0.19922-0.84375-0.28906-1.7109-0.28906-2.5781 0-6.3359 5.1133-11.469 11.445-11.469 1.0195 0 1.8906 0.15625 2.8906 0.35547-0.35547 2.3555-0.042969 4.3555 1.5352 6.2461l0.46875 0.57812-0.66797 0.3125c-2.9102 1.4219-3.8906 3.957-4.0469 7.0234-0.066406 1.6875 2.0234 1.5352 2.0898 0.24609 0.13281-3.1797 2.1328-6.7148 5.8203-5.8672 1.1133 0.26562 2.1562 0.26562 3.0898 0.066406 0.22266 4.2695 1.957 8.2891 4.9102 11.535-0.10937 0.35547-0.19922 0.73047-0.28906 1.1094-0.26562 1.3984 1.6016 1.7773 2 0.62109 6.2695 6.2891 12.492 12.605 18.824 18.824l1.668 1.668c2.0898 2.1328 5.5586 2.1562 7.7344 0.019531l1.6875-1.6875c5.957-5.8672 11.848-11.801 17.758-17.734 3.4883 2.0234 5.7344 5.8008 5.7344 9.957 0 4.8672-3.0898 9.2266-7.7148 10.848h-0.042968c-0.89063 0.24219-1.0195 1.5117-0.17969 1.9336l0.046875 0.023437 0.042969 0.019532c1.5586 1.0664 2.4883 2.8477 2.4883 4.7578 0 3.0664-2.3984 5.6016-5.4883 5.7578h-5.8672c-2.3789-0.15625-4.5781-2.1133-4.7109-4.5586-0.24219-4.1328-3.1992-6.2227-7.0469-6.8477-1.3359-0.22266-1.668 1.8242-0.33203 2.0469 3.1992 0.53125 5.7773 2.3555 5.2656 5.9336-0.60156 3.5586-3.7773 4.4688-6.9102 3.957-1.3125-0.22266-1.668 1.8203-0.33203 2.0469 3.2422 0.53125 6.1797 0.042968 8.1133-2.8477l0.42188-0.62109c0.77734 0.86719 1.2891 1.3359 2.1992 2-1.2227 1.3984-1.7539 2.4688-2.3555 4.2461l-3.2656 9.5781-0.55469-2.8906c-0.51172-2.7344-2.2695-5.3359-5.3125-5.3359h-7.0664c-7.957 0-13.359-7.7773-10.824-15.289 1.4219-1.2227 1.9102-2.2227 2.5352-3.9102l0.62109 0.39844c2.8203 1.9102 5.6875 1.3359 8.4688-0.33203 1.4219-0.86719 0.13281-2.5312-0.98047-1.8672-2.7578 1.7109-5.8906 1.9805-7.8672-1.0234-1.8438-3.1328-0.13281-5.8242 2.6211-7.5117 1.1094-0.66797 0.24219-2.6016-1.2695-1.6641-3.1992 2.043-5.0234 5-3.7773 8.8242 0.89062 2.7109-0.6875 5.5781-3.4219 6.3789-6.1094 1.6016-11.805-1.8242-13.871-7.7344 2.1797-1.3984 3.5781-3.2891 3.7148-5.9805v-0.35547c-0.13281-4.5781-3.6445-6.8477-7.9375-6.957-1.8008-0.066406-1.5781 2.0469-0.26562 2.0664 3.2695 0.023437 6.0664 1.4219 6.1367 5.0469-0.019531 2.6836-2.332 4.8828-4.9727 4.9727zm41.094-42.742 6.3359-2.5352c3.0664-1.2227 6.3555-1.3359 9.4883-0.35547 11.602 3.5781 15.848 17.492 7.0234 26.316-6.6016 6.6016-13.18 13.27-19.848 19.848l-1.6875 1.668c-0.97656 0.95703-2.5352 0.97656-3.5117-0.023438l-1.668-1.6445c-6.668-6.5781-13.246-13.246-19.848-19.848-8.8242-8.8242-4.5781-22.762 7.0234-26.316 3.1328-0.97656 6.4258-0.86719 9.4922 0.35547l6.3125 2.5117c0.35547 0.15625 0.55469 0.17969 0.88672 0.023437zm-3.1992 5.5117h5.5352c0.71094 0 1.2891 0.57812 1.2891 1.2891v7.7578h7.7578c0.71094 0 1.2891 0.57812 1.2891 1.2891v5.5312c0 0.71094-0.57812 1.2891-1.2891 1.2891h-7.7578v7.7344c0 0.73047-0.57812 1.3125-1.2891 1.3125h-5.5352c-0.71094 0-1.2891-0.57812-1.2891-1.3125v-7.7344h-7.7578c-0.71094 0-1.2891-0.57812-1.2891-1.2891v-5.5312c0-0.71094 0.57812-1.2891 1.2891-1.2891h7.7578v-7.7578c0-0.71094 0.57813-1.2891 1.2891-1.2891zm-28.207 5.668c-3.3789 1.1797-6.7578-1.9336-6.3789-5.4258 0.57812-5.0898 6.3789-9.1562 11.27-9.1562 1.0898 0 2.1562 0.15234 3.1797 0.44531-4.0234 2.8438-6.8906 7.0898-7.8008 12.113-0.13672 0.69141-0.22656 1.3594-0.26953 2.0234zm160.7 397.81c3.5586-0.3125 6.9805-1.6211 10.066-3.2891 2.6445-1.4219 6.625-4.7773 7.8477-7.6016 2.0898-4.7773-1.7148-11.957-4.2227-16.023-2.3359-3.7773-5.4219-8.0469-8.5781-11.227-4.1328-4.1562-9.2266-7.1562-14.336-9.957-3-1.6445-4.5781-1.5781-7.0898 0.97656-1.3125 1.3555-2.5352 2.7539-3.7109 4.2227-1.4258 1.7344-1.332 3.668 0.33203 5.1797 0.089844 1.7773 0.57812 3.5586 2 4.7344 2.8672 2.3984 7.6914 0.66406 10.668-0.66797 0.82031 3.8438 2.5781 7.0898 4.8672 10.246-1.668 0.023437-3.1992 0.3125-4.7148 1.0234 0.71094 1.4883 1.1094 3.1562 1.1094 4.8906 0 1.1133-0.15625 2.2031-0.48828 3.2461 4.1797 1.7773 6.9102 5.8906 6.9102 10.445 0.007812 1.3359-0.21484 2.6016-0.66016 3.8008zm-31.52 18.805c-4.6016 0-8.3359-3.7344-8.3359-8.3359 0-0.91016 0.13281-1.7578 0.42188-2.6445 0.91016-0.77734 1.3125-1.4688 1.7773-2.5117 2.5117 1.4219 4.5312 1.1562 6.9805-0.3125 1.6445-1 0.15234-3.0898-1.2227-2.2422-1.8906 1.1562-4.0195 1.4453-5.4023-0.64453-1.2422-2.1758-0.019531-3.9336 1.8672-5.0898 1.3984-0.86719 0.19922-3.1562-1.4883-2.0898-2.6445 1.668-4.1094 4.1797-3.0898 7.3125 0.57812 1.8203-0.48828 3.7578-2.3125 4.3125-4.2656 1.0898-8.3359-1.1992-9.957-5.2891 1.6875-1.1992 2.8242-2.957 2.7578-5.0898-0.11328-3.7578-3.0039-5.7109-6.5586-5.8242-2.0234-0.046874-1.8672 2.5547-0.22266 2.5547 2.2422 0.023438 4.1797 0.91016 4.2266 3.4258-0.046876 1.8008-1.5352 3.2656-3.3359 3.3359h-8.8906c-4.6016 0-8.3359-3.7344-8.3359-8.3359 0-4.0234 2.9102-7.4922 6.8906-8.2031 1-0.15234 1.2891-0.84375 1.0664-1.8008-0.13281-0.60156-0.19922-1.2461-0.19922-1.8672 0-4.6016 3.7148-8.3125 8.3125-8.3125 0.57812 0 1.0898 0.066406 1.668 0.15625-0.17969 1.9336 0.17578 3.0898 1.3125 4.6914-2.3984 1.3789-3.1797 3.0664-3.3125 5.7773-0.10938 1.9336 2.4688 1.8672 2.5547 0.24609 0.089844-2.1367 1.3555-4.6445 3.8906-4.0664 3.1797 0.73438 5.625-0.97656 7-3.7578 1.0234-2.0664-1.5117-2.8203-2.1797-1.3789-0.93359 2.0234-2.5352 3.4453-4.8477 2.4453-1.2891-0.57812-2.0469-2.0898-1.8906-3.4883 0.39844-3.6445 4.6445-6.6016 8.1562-6.6016 2.6445 0 4.7773 1.1367 6.4883 3.0898-1.9805 3.0039-1.4453 6.6445 1.668 8.6055 0.42188 2.1797-0.42187 4.668-2.957 4.7109-3.3789 0.066406-5.2656 2.4453-5.8906 5.5781-0.33203 1.7109 2.1797 2.2227 2.5117 0.55469 0.42188-2.1992 1.6445-3.957 4.1367-3.5117 2.4453 0.53516 2.8906 2.625 2.4688 4.8008-0.3125 1.5781 2.1797 2.3555 2.5586 0.28906 0.42187-2.3789 0.089843-4.668-1.8438-6.2891l-0.33594-0.26562 0.3125-0.28906c1.3555-1.332 1.8008-2.8672 1.7773-4.7344 1.9531 0.019531 2.9805-0.46875 4.5117-1.6445 1.6211-1.2422-0.15625-3.1094-1.4258-2.1328-1.7578 1.3789-3.8438 1.8906-5.4453-0.042969-0.91016-1.2461-0.86719-2.9805 0.089843-4.1797 1.2891-1.6445 3.957-2.7344 6.0234-2.7344 3.8438 0 7.1562 2.8008 7.7812 6.6016 0.13281 0.84375 0.86719 1.4688 1.7344 1.1328 0.93359-0.35547 1.9336-0.53516 2.9336-0.53516 4.6016 0 8.3359 3.7344 8.3359 8.3359 0 1.0664-0.17969 1.9141-0.51172 2.9141-1.9336-0.042969-3.0664 0.42188-4.5352 1.6445-1.6211-2.3984-3.5586-3.0469-6.4023-2.8242-1.8672 0.15234-1.5312 2.7109 0.13281 2.5547 2.2266-0.19922 4.2461 0.46875 4.5352 2.9805 0.17578 2.4688-1.7344 3.5352-3.9141 3.7344-1.668 0.15625-1.4219 2.7109 0.24609 2.5547 3.2695-0.3125 5.8477-2 6.1992-5.4688 0.13281-1.6016 2.0898-2.6641 3.5586-2.6211 0.53516 0.019531 1.043 0.19922 1.5781 0.37891 3.3359 1.1562 5.5312 4.3125 5.5312 7.8477 0 3.5547-2.2422 6.7109-5.6016 7.8906-1.0898 0.3125-1.2461 1.8477-0.22266 2.3555 1.0469 0.53516 1.7109 2.1328 1.7109 3.2695 0 2.0898-1.6211 3.8477-3.7344 3.9336h-4.4883c-1.5781-0.10938-3.0664-1.3984-3.1562-3.0234-0.19922-3.4219-2.6211-5.1992-5.8203-5.7109-1.625-0.28906-2.0469 2.2422-0.40234 2.5117 2.1992 0.35547 3.9766 1.5352 3.6445 4.0469-0.48828 2.4453-2.5547 2.9805-4.7578 2.6016-1.6211-0.26562-2.0469 2.2695-0.40234 2.5352 2.8477 0.46875 4.8672-0.023438 6.6914-2.332 0.3125 0.28906 0.57813 0.53125 0.91016 0.80078-0.75781 1-1.1562 1.8438-1.5586 3.0234l-1.8672 5.4922-0.33203-1.1094c-0.64453-2.0234-2.1094-3.668-4.3555-3.668-1.7852-0.023438-3.6055-0.023438-5.4102-0.023438z" fill="#fff" fill-rule="evenodd"></path></svg>