<svg xmlns="http://www.w3.org/2000/svg" width="100pt" height="100pt" viewBox="0 0 100 100"><path d="m72.211 38.926c0.34375-3.293 0.27344-5.9414 0.26562-6.1367l0.003907-15.438c0-2.3008-1.9688-4.1719-4.3828-4.1719-0.88281 0-1.6992 0.25391-2.3867 0.67969v-0.98438c0-2.3008-1.9688-4.1719-4.3867-4.1719-0.88672 0-1.707 0.25391-2.3984 0.6875-0.070312-2.2383-2-4.043-4.3711-4.043-2.418 0-4.3867 1.8711-4.3867 4.1719v0.99219c-0.69141-0.43359-1.5156-0.6875-2.4023-0.6875-2.418 0-4.3867 1.8711-4.3867 4.1719v16.344c-0.46094 0.20312-0.64062 0.63281-0.64062 0.63281l-0.84375 5.2578c-0.32422-0.10547-0.64844-0.25391-0.89062-0.40234l-6.0039-5.4141c-1.9336-1.8125-5.0781-1.8125-7.0117 0-0.95703 0.89844-1.4844 2.0977-1.4844 3.375 0 1.2773 0.52734 2.4766 1.4219 3.3086l11.594 12.98c-0.15234 0.4375-0.27344 0.94531-0.19531 1.3711 0.64453 3.3945 2.832 5.75 2.832 22.738 0 0-0.03125 1.0898 1.0469 1.4219l-0.042969 18.047c0 0.55078 0.44531 1 0.99609 1.0039h0.003906c0.55078 0 1-0.44531 1-0.99609l0.042969-17.953h21.48v17.949c0 0.55469 0.44531 1 1 1 0.55469 0 1-0.44531 1-1v-18.129c0.64453-0.33594 0.67188-1.0352 0.67188-1.0352v-21.648s2.6328-4.5273 3.1328-12.902c0.027344-0.45312-0.089843-0.78125-0.27734-1.0195zm-24.445-27.102c1.3164 0 2.3867 0.97266 2.3867 2.1719v11.391c0 0.55078 0.44531 1 1 1h0.007812 0.007813c0.55469 0 1-0.44922 1-1v-15.867c0-1.1992 1.0703-2.1719 2.3867-2.1719 1.3164 0 2.3867 0.97266 2.3867 2.1719v16.863c0 0.55078 0.44531 1 1 1 0.55469 0 1-0.44922 1-1v-13.508c0-1.1992 1.0703-2.1719 2.3867-2.1719s2.3867 0.97266 2.3867 2.1719v14.508c0 0.55078 0.44531 1 1 1 0.55469 0 1-0.44922 1-1l-0.003906-10.031c0-1.1992 1.0703-2.1719 2.3867-2.1719 1.3125 0 2.3828 0.97266 2.3828 2.1719v15.469c0.003906 0.046876 0.066406 2.4219-0.21875 5.4336-4.3906 0.34375-14.758-0.4375-24.895-7.4414l0.011718-16.816c0-1.1992 1.0703-2.1719 2.3867-2.1719zm-19.258 21.961c0-0.71875 0.30469-1.3984 0.85156-1.9141 1.1797-1.1055 3.0977-1.1055 4.2891 0.011718l6.0781 5.4844 0.125 0.097656c0.14844 0.097656 1.1016 0.67969 2.2031 0.84766 0.46875 1.5898 0.96484 5.1328-1.5703 9.8438l-11.125-12.457c-0.55078-0.51562-0.85156-1.1953-0.85156-1.9141z" fill="#fff"></path></svg>