<svg width="57" height="47" viewBox="0 0 57 47" fill="none" xmlns="http://www.w3.org/2000/svg">
<path d="M14.2051 41.4985C14.2051 42.1607 14.21 42.8403 14.2217 43.5371C14.2457 44.9936 15.4343 46.1573 16.8851 46.1573C16.9004 46.1573 16.9157 46.1573 16.9312 46.1571C18.4025 46.1327 19.5756 44.9194 19.551 43.4476C19.5397 42.7838 19.5347 42.1347 19.5351 41.4985C19.5351 40.5706 19.5468 39.679 19.5663 38.8164L14.2355 38.8166C14.2166 39.6817 14.2053 40.5734 14.2053 41.4985H14.2051Z" fill="#2B4666"/>
<path d="M23.619 43.5705C23.7683 44.9348 24.9231 45.9456 26.2651 45.9456C26.3621 45.9456 26.4598 45.9405 26.5582 45.9296C28.0209 45.769 29.0772 44.453 28.9173 42.9903C28.7552 41.5123 28.5848 40.1234 28.409 38.8179H23.0293C23.2333 40.2802 23.4318 41.8616 23.619 43.5704L23.619 43.5705Z" fill="#2B4666"/>
<path d="M19.9583 25.8475L19.9029 24.7487L19.69 24.7596L19.5287 21.5658L20.1673 21.5332L20.3286 24.7271L20.1159 24.738L20.172 25.8475H22.3044C22.8263 24.5583 23.9233 23.6785 25.5691 23.2268L25.0413 22.0634L24.8472 22.1515L23.5265 19.239L24.1089 18.9749L25.4296 21.8873L25.2356 21.9754L25.7781 23.1716C25.7896 23.1687 25.8006 23.1654 25.812 23.1627L25.8279 23.159L25.8438 23.1563C26.1803 23.102 26.5022 23.0542 26.8176 23.0099C27.0868 20.3293 27.7057 17.661 28.6611 15.0654C29.0311 15.9221 29.5343 16.8241 30.2218 17.6756L30.2547 17.674L30.257 17.7208C30.504 18.0231 30.7738 18.3191 31.0706 18.6037C32.1529 19.6458 33.5995 20.5128 35.3898 20.9758L35.1569 22.0647L35.3654 22.1091L35.1414 23.1564C35.2107 23.1704 35.2799 23.185 35.3503 23.1996L35.5741 22.1538L35.7827 22.1983L36.0177 21.1012C36.0474 21.1029 36.0771 21.1061 36.1066 21.1061C36.8861 21.1061 37.5899 20.5684 37.7687 19.7761C37.9764 18.8572 37.4 17.9441 36.4814 17.7369C35.1266 17.4271 34.1791 16.8513 33.4308 16.1403C32.3157 15.0792 31.6744 13.6357 31.342 12.4296C31.176 11.83 31.0854 11.2987 31.0378 10.9284C31.0147 10.7434 31.0013 10.599 30.9946 10.5062C30.9911 10.4607 30.9897 10.4271 30.9886 10.4085C30.9882 10.3994 30.9877 10.3934 30.9877 10.3918H30.9875C30.9784 10.1059 30.8985 9.83885 30.7666 9.60626C30.144 9.87077 29.4639 10.0184 28.755 10.0184C28.6039 10.0184 28.4507 10.012 28.3002 9.99855C26.9104 9.87897 25.6498 9.22473 24.7526 8.15723C24.3196 7.64263 23.997 7.06149 23.7913 6.44204C23.5004 6.3148 23.2094 6.18774 22.9183 6.0605C22.7009 5.96279 22.4553 5.94056 22.2036 5.97975C22.1775 5.97719 22.152 5.97318 22.1257 5.97172C22.0995 5.97045 21.9577 5.96316 21.7284 5.96316C20.9848 5.97081 19.3482 6.01438 17.6607 6.6779C16.8205 7.01496 15.9417 7.52719 15.2397 8.36574C14.5787 9.1434 14.1478 10.2217 14.1027 11.4135C14.0995 11.4955 14.0931 11.5766 14.0938 11.6596C14.0942 12.0528 14.1317 12.4573 14.2057 12.8722C14.2059 12.8735 14.2059 12.8747 14.2061 12.876C14.572 14.8814 15.7149 17.1434 17.9095 20.0127C18.2453 20.4508 18.7515 20.6803 19.2638 20.6803C19.6262 20.6803 19.9917 20.5655 20.3016 20.3279C21.0482 19.7537 21.1892 18.6829 20.6156 17.9359C18.6011 15.3242 17.7601 13.4307 17.5657 12.2855C17.5654 12.2831 17.5654 12.2809 17.5648 12.2787C17.5222 12.0409 17.5052 11.836 17.5052 11.66C17.5081 11.4958 17.522 11.3594 17.5439 11.239C17.5989 10.9332 17.7096 10.7426 17.86 10.5506C18.1267 10.2103 18.699 9.8907 19.379 9.6891C18.9206 10.7112 18.502 11.7441 18.1243 12.786C18.4059 13.7225 19.1262 15.3071 20.9535 17.6753C21.6695 18.6079 21.4938 19.9489 20.5619 20.6656C20.1851 20.9546 19.7366 21.1069 19.264 21.1069C18.5955 21.1069 17.9787 20.8029 17.5716 20.2735C17.1589 19.734 16.7815 19.2135 16.4377 18.7102C16.1043 20.3067 15.8635 21.9129 15.7199 23.522C15.599 24.1378 15.4583 24.914 15.3124 25.8473L19.9583 25.8469L19.9583 25.8475Z" fill="#2B4666"/>
<path d="M29.1619 0.0180624C31.8008 0.245744 33.7553 2.5698 33.5276 5.2088C33.2998 7.84766 30.9759 9.8022 28.3369 9.57451C25.698 9.34665 23.7433 7.02278 23.9712 4.38378C24.1989 1.74492 26.5229 -0.209811 29.1619 0.0180624Z" fill="#2B4666"/>
<path d="M50.8354 26.8049C51.0796 26.7114 51.3354 26.664 51.5952 26.664C52.0596 26.664 52.5017 26.8195 52.8622 27.0862C53.0228 24.6933 51.3711 22.506 48.9557 22.056C46.3517 21.5711 43.8476 23.2892 43.3632 25.8927C43.2416 26.545 43.2586 27.1908 43.3925 27.8002C43.9028 27.8538 44.4548 27.8872 45.0428 27.887C47.007 27.8866 48.9554 27.5226 50.8351 26.8051L50.8354 26.8049Z" fill="#2B4666"/>
<path d="M40.0872 22.91L40.2934 22.9636L41.0977 19.8685L40.4786 19.7075L39.6747 22.803L39.881 22.8566L39.4512 24.5105C39.5157 24.5483 39.5795 24.586 39.6415 24.625L40.0872 22.91Z" fill="#2B4666"/>
<path d="M10.8876 24.6223L11.0878 24.5484L9.98309 21.5474L9.38281 21.7683L10.4875 24.7695L10.6877 24.6961L11.1113 25.8474H11.3384L10.8876 24.6223Z" fill="#2B4666"/>
<path d="M29.7983 21.3268L30.011 21.3158L29.8497 18.1221L29.2109 18.1545L29.3723 21.3483L29.5852 21.3374L29.6554 22.7277C29.7274 22.724 29.7974 22.7226 29.8686 22.7197L29.7983 21.3268Z" fill="#2B4666"/>
<path d="M13.9477 24.19L14.1565 24.2347L14.8255 21.1074L14.2001 20.9736L13.5309 24.1009L13.7394 24.1455L13.375 25.8476H13.593L13.9477 24.19Z" fill="#2B4666"/>
<path d="M22.1389 31.6032H25.7278H36.814C37.915 31.6032 38.8808 31.5764 39.6619 31.4122C38.5846 31.1056 37.8802 30.796 37.6446 30.6856C36.5719 30.1659 36.1285 28.8876 36.6409 27.8303C36.9957 27.0997 37.7487 26.6279 38.5608 26.6279C38.8844 26.6279 39.1969 26.7001 39.4902 26.8419L39.5381 26.8634C39.5859 26.884 39.6752 26.9218 39.7959 26.9679C40.0287 27.0585 40.4107 27.1952 40.9124 27.3343C41.0869 27.383 41.2817 27.4329 41.4947 27.4823C41.0096 26.1494 39.8292 24.8597 37.7892 24.2589C33.4279 23.0014 30.617 22.8149 25.9102 23.5771C23.8855 24.0653 22.9793 25.1022 22.6013 26.2732L6.23717 26.2734C4.76516 26.2734 3.57227 27.4664 3.57227 28.9379C3.57227 30.4099 4.76535 31.603 6.23717 31.603H22.1388L22.1389 31.6032Z" fill="#2B4666"/>
<path d="M40.7997 27.7456C40.293 27.605 39.9003 27.4661 39.644 27.3668C39.516 27.3174 39.4218 27.2773 39.3643 27.2523C39.3357 27.2395 39.3166 27.2308 39.3066 27.2262H39.3056C38.4576 26.815 37.4375 27.1684 37.0266 28.0165C36.6159 28.8638 36.9696 29.8841 37.8172 30.2953V30.2949C37.966 30.3638 40.7838 31.7195 45.0445 31.7239H45.0487C47.149 31.7239 49.5991 31.3858 52.2059 30.3888C53.0857 30.0529 53.5265 29.0672 53.1905 28.1871C52.8544 27.3072 51.8684 26.8664 50.9886 27.2025C48.8042 28.0367 46.7838 28.3121 45.0442 28.3127C43.284 28.313 41.814 28.0272 40.7995 27.7456L40.7997 27.7456Z" fill="#2B4666"/>
<path d="M55.2218 32.4204H1.77913C1.07255 32.4204 0.5 32.993 0.5 33.6995V37.1108C0.5 37.8172 1.0726 38.3899 1.77913 38.3899H3.61243V45.8375H5.95104V38.3899H51.0488V45.8375H53.3874V38.3899H55.2209C55.9274 38.3899 56.5 37.8168 56.5 37.1108V33.6995C56.4998 32.9932 55.9273 32.4204 55.2207 32.4204H55.2218Z" fill="#2B4666"/>
</svg>
