<svg width="54" height="47" viewBox="0 0 54 47" fill="none" xmlns="http://www.w3.org/2000/svg">
<path d="M46.2145 18.639C46.1577 18.639 39.168 19.5482 35.9289 15.6841L32.1784 11.1947C29.7917 8.35342 23.2566 5.90988 21.9496 5.45526C21.2678 5.22792 20.4721 5.28471 19.8471 5.62582C19.222 5.96674 18.7673 6.59178 18.597 7.33062L17.1196 14.7181C16.8354 16.082 17.7446 17.3888 19.1085 17.673C19.5062 17.7297 19.9609 17.7297 20.3018 17.6162L18.4264 19.321C17.1763 20.5143 16.4375 22.1623 16.4375 23.8671L16.5511 43.4154C16.5511 44.9496 17.8012 46.2 19.3356 46.2C20.8698 46.2 22.1202 44.9499 22.1202 43.3586L22.0634 29.2088L27.8029 35.0051L27.6323 43.3018C27.5755 44.836 28.8256 46.1431 30.3601 46.1431H30.4169C31.9511 46.1431 33.2014 44.8931 33.2014 43.4154L33.372 33.9822C33.372 33.2433 33.0878 32.5047 32.5764 31.9932L26.8937 26.1401L34.338 21.0825C37.6908 23.4124 41.7254 23.8671 44.2826 23.8671C45.7033 23.8671 46.6692 23.7535 46.783 23.6965C48.1469 23.526 49.1129 22.2191 48.8855 20.8552C48.8287 19.4347 47.5784 18.4687 46.2148 18.6391L46.2145 18.639ZM21.9495 16.025C22.0063 15.9114 22.0631 15.7409 22.0631 15.6273L22.9723 11.2517C23.8815 11.6495 24.8477 12.1041 25.7001 12.5588L21.9495 16.025Z" fill="#F5F7FA"/>
<path d="M43.7159 13.4113C46.2731 11.2518 46.614 7.44448 44.4547 4.88729C42.2952 2.33009 38.4879 1.98918 35.9307 4.14845C33.3736 6.30795 33.0326 10.1152 35.1919 12.6724C37.2944 15.2296 41.1019 15.5707 43.7159 13.4113Z" fill="#F5F7FA"/>
<path d="M10.753 2.955C10.5825 2.72766 10.2984 2.61408 10.0142 2.72766L6.88874 3.75063C6.66139 3.80742 6.54782 3.97798 6.49103 4.20532C6.43424 4.43266 6.49103 4.60303 6.60461 4.77359L9.67329 8.35375L7.17287 9.20615C6.94553 9.26294 6.77516 9.4335 6.77516 9.66084C6.71837 9.88818 6.77516 10.1155 7.00251 10.2859L13.5944 16.1958C13.708 16.3094 13.8785 16.3664 14.0491 16.3664C14.1627 16.3664 14.2764 16.3096 14.39 16.1958C14.6173 15.9685 14.6741 15.6844 14.5036 15.4002L12.0032 11.3088L14.7309 10.3996C14.9015 10.3428 15.0718 10.1723 15.1286 10.0019C15.1854 9.83137 15.1854 9.60421 15.0718 9.43366L10.753 2.955Z" fill="#F5F7FA"/>
<path d="M13.8805 19.1505L9.10711 19.4914L9.5618 16.6501C9.61859 16.4796 9.50501 16.2524 9.39125 16.1386C9.27767 15.9681 9.05033 15.9113 8.87976 15.9681L1.09452 16.8774C0.81039 16.9342 0.583037 17.1048 0.526258 17.3889L0.0147714 20.6279C-0.0420173 20.8553 0.0715601 21.0257 0.242116 21.1962C0.412671 21.3668 0.639826 21.4236 0.810381 21.3668L5.3565 20.287L4.9588 22.901C4.90201 23.1283 5.01558 23.3557 5.18614 23.4693C5.35669 23.6398 5.58385 23.6398 5.81118 23.5828L14.1079 20.4006C14.2784 20.3438 14.392 20.23 14.4488 20.0597C14.5056 19.9461 14.5056 19.8323 14.4488 19.662C14.4488 19.3778 14.1646 19.1505 13.8805 19.1505L13.8805 19.1505Z" fill="#F5F7FA"/>
<path d="M53.0892 4.73294e-05H51.2139C50.7024 4.73294e-05 50.3047 0.397757 50.3047 0.909224V45.2908C50.3047 45.8022 50.7024 46.1999 51.2139 46.1999H53.0892C53.6007 46.1999 53.9984 45.8022 53.9984 45.2908V0.852398C53.9984 0.39771 53.6007 4.73294e-05 53.0892 4.73294e-05Z" fill="#F5F7FA"/>
</svg>
