<svg width="41" height="47" viewBox="0 0 41 47" fill="none" xmlns="http://www.w3.org/2000/svg">
<path d="M40.9959 5.81227C25.6216 5.81227 20.5 0.0351562 20.5 0.0351562C20.5 0.0351562 15.378 5.81227 0.00414635 5.81227V21.6388C0.00414635 21.6388 -0.813114 39.7318 20.5 46.9649C41.8128 39.7309 40.9959 21.6388 40.9959 21.6388V5.81227ZM30.2098 25.4342C30.2098 25.7741 29.9347 26.0492 29.5948 26.0492H23.542V32.1098C23.542 32.4416 23.2669 32.7167 22.927 32.7167H18.0721C17.7323 32.7167 17.4572 32.4416 17.4572 32.1098V26.0492H11.4043C11.0645 26.0492 10.7893 25.7741 10.7893 25.4342V20.5793C10.7893 20.2395 11.0645 19.9725 11.4043 19.9725H17.4572V13.9119C17.4572 13.572 17.7323 13.2969 18.0721 13.2969H22.927C23.2669 13.2969 23.542 13.572 23.542 13.9119V19.9725H29.5948C29.9347 19.9725 30.2098 20.2395 30.2098 20.5793V25.4342Z" fill="#F5F7FA"/>
</svg>
