<svg xmlns="http://www.w3.org/2000/svg" xmlns:xlink="http://www.w3.org/1999/xlink" id="Capa_1" x="0px" y="0px" viewBox="0 0 512 512" style="enable-background:new 0 0 512 512;" xml:space="preserve"><g>	<g>		<path d="M509.232,433.933c-0.044-0.161-0.103-0.308-0.161-0.469l-42.93-121.465c-4.219-11.981-24.05-11.981-28.268,0   l-43.091,121.934c-1.846,5.8-2.769,11.879-2.769,18.045c0,33.087,26.906,59.993,59.993,59.993   c33.087,0,59.993-26.906,59.993-59.993C512,445.812,511.077,439.733,509.232,433.933z"></path>	</g></g><g>	<g>					<rect x="174.591" y="319.063" transform="matrix(0.7071 -0.7071 0.7071 0.7071 -198.0405 279.9987)" width="128.754" height="119.985"></rect>	</g></g><g>	<g>		<path d="M458.586,180.65L331.322,53.387c-5.858-5.857-15.353-5.857-21.213,0l-21.211,21.211c-5.857,5.857-5.857,15.353,0,21.211   l127.267,127.265c5.857,5.857,15.353,5.857,21.211,0l21.211-21.213C464.444,196.003,464.444,186.507,458.586,180.65z"></path>	</g></g><g>	<g>		<path d="M365.291,252.734l19.057-19.057L278.295,127.624l-19.057,19.057l-19.658-6.567c-27.124-9.041-56.528-2.091-76.743,18.125   L13.159,307.916c-17.545,17.543-17.545,46.088,0,63.631l127.265,127.267c17.545,17.543,46.088,17.543,63.633,0l10.606-10.606   l-95.449-95.447c-5.862-5.862-5.862-15.35,0-21.213l112.258-112.257c5.862-5.862,15.348-5.862,21.211,0l95.449,95.447l5.602-5.602   c20.217-20.217,27.155-49.608,18.125-76.743L365.291,252.734z"></path>	</g></g><g>	<g>		<path d="M507.606,25.634L486.395,4.424c-5.013-5.013-12.833-5.831-18.788-1.969l-87.356,57.44l71.826,71.826l57.496-87.299   C513.437,38.467,512.618,30.647,507.606,25.634z"></path>	</g></g><g></g><g></g><g></g><g></g><g></g><g></g><g></g><g></g><g></g><g></g><g></g><g></g><g></g><g></g><g></g></svg>