<svg xmlns="http://www.w3.org/2000/svg" id="Layer_1" viewBox="0 0 100 100"><g><path d="m97.1424103 47.6160622c-26.2233429-41.4805489-67.7038879-41.4805489-93.9272308 0-.9535758 1.4303665-.9535758 3.3375092 0 4.7678757 26.2233353 41.4805489 67.7038879 41.4805489 93.9272308 0 .4767837-1.4303666.4767837-3.3375092 0-4.7678757zm-47.2020035 26.2233314c-13.3500595 0-23.8393955-10.4893341-23.8393955-23.8393898s10.489336-23.8393993 23.8393955-23.8393993 23.8393936 10.489336 23.8393936 23.8393993-10.4893303 23.8393898-23.8393936 23.8393898z"></path><path d="m59.4761658 45.2321243c-2.8607292 0-4.7678795-1.9071503-4.7678795-4.7678795 0-1.4303665.4767914-2.3839417 1.4303665-3.3375168-1.9071541-.9535751-3.8143044-1.4303627-6.198246-1.4303627-8.1053925 0-14.3036346 6.1982422-14.3036346 14.3036385s6.1982422 14.3036308 14.3036346 14.3036308 14.3036346-6.1982422 14.3036346-14.3036308c0-2.3839417-.4767838-4.2910919-1.4303589-6.198246-.9535751.9535751-1.9071502 1.4303665-3.3375167 1.4303665z"></path></g></svg>