<svg xmlns="http://www.w3.org/2000/svg" fill="none" height="512" viewBox="0 0 24 24" width="512"><path d="m12 2c5.523 0 10 4.477 10 10s-4.477 10-10 10-10-4.477-10-10 4.477-10 10-10zm0 2c-2.12173 0-4.15656.84285-5.65685 2.34315-1.5003 1.50029-2.34315 3.53512-2.34315 5.65685 0 2.1217.84285 4.1566 2.34315 5.6569 1.50029 1.5002 3.53512 2.3431 5.65685 2.3431 2.1217 0 4.1566-.8429 5.6569-2.3431 1.5002-1.5003 2.3431-3.5352 2.3431-5.6569 0-2.12173-.8429-4.15656-2.3431-5.65685-1.5003-1.5003-3.5352-2.34315-5.6569-2.34315zm0 3c1.0526.0004 2.0782.33297 2.9307.95034s1.4885 1.48803 1.8173 2.48796c.3287.9999.3335 2.0781.0137 3.0809s-.948 1.8792-1.7949 2.5041c-.847.625-1.8696.9667-2.9222.9765-1.0525.0098-2.08128-.3128-2.93974-.9219-.85847-.6091-1.50282-1.4736-1.84125-2.4703-.33844-.9966-.3537-2.0747-.04361-3.0806.23392.5227.64027.9492 1.15106 1.2082.51078.2589 1.095.3346 1.65484.2143.5599-.1203 1.0615-.4293 1.4209-.8752.3593-.4459.5546-1.0016.5532-1.5743.0001-.48153-.1388-.95286-.4001-1.35732-.2613-.40447-.6339-.72487-1.0729-.92268.466-.143.96-.22 1.473-.22z" fill="rgb(0,0,0)"></path></svg>