<svg xmlns="http://www.w3.org/2000/svg" height="512" viewBox="0 0 64 64" width="512"><g id="Eye"><path d="m61.89 27.49c-.43-.87-10.89-21.43-29.89-21.43s-29.46 20.56-29.89 21.43a1 1 0 0 0 0 .9 46.46 46.46 0 0 0 4.69 7.17 1 1 0 0 0 1.58-1.24 47 47 0 0 1 -4.25-6.38c1.64-2.94 11.62-19.88 27.87-19.88s26.23 16.94 27.87 19.88c-1.64 3-11.62 19.88-27.87 19.88a23.38 23.38 0 0 1 -6.71-1 1 1 0 1 0 -.58 1.92 25.71 25.71 0 0 0 7.29 1.08c19 0 29.46-20.56 29.89-21.43a1 1 0 0 0 0-.9z"></path><path d="m32 44a16.08 16.08 0 1 0 -16.08-16.06 16.09 16.09 0 0 0 16.08 16.06zm0-30.16a14.08 14.08 0 1 1 -14.08 14.1 14.1 14.1 0 0 1 14.08-14.08z"></path><path d="m32 36.94a9 9 0 0 0 9-9 2.17 2.17 0 0 0 0-.36 1 1 0 1 0 -2 .24v.12a7 7 0 1 1 -8.11-6.94 1 1 0 0 0 .9-1 1 1 0 0 0 -1.16-1 9 9 0 0 0 1.37 17.94z"></path><path d="m37 25.94a4 4 0 1 0 -4-4 4 4 0 0 0 4 4zm0-6a2 2 0 1 1 -2 2 2 2 0 0 1 2-2z"></path><path d="m21 43.08h-4.14v-4.14a1 1 0 0 0 -1-1h-7.72a1 1 0 0 0 -1 1v4.14h-4.14a1 1 0 0 0 -1 1v7.72a1 1 0 0 0 1 1h4.14v4.14a1 1 0 0 0 1 1h7.72a1 1 0 0 0 1-1v-4.14h4.14a1 1 0 0 0 1-1v-7.72a1 1 0 0 0 -1-1zm-1 7.72h-4.14a1 1 0 0 0 -1 1v4.14h-5.72v-4.14a1 1 0 0 0 -1-1h-4.14v-5.72h4.14a1 1 0 0 0 1-1v-4.14h5.72v4.14a1 1 0 0 0 1 1h4.14z"></path></g></svg>