<svg xmlns="http://www.w3.org/2000/svg" id="Layer" height="512" viewBox="0 0 24 24" width="512"><path d="m13.25 11a1.25 1.25 0 1 1 -1.26-1.25h.01a1.25 1.25 0 0 1 1.25 1.25zm7.25 0c0 4.983-4.629 8.041-7.692 10.064l-.531.352a.5.5 0 0 1 -.554 0l-.531-.352c-3.063-2.023-7.692-5.081-7.692-10.064a8.5 8.5 0 0 1 17 0zm-4.68-.66a4.585 4.585 0 0 0 -3.82-2.47 4.585 4.585 0 0 0 -3.82 2.47 1.3 1.3 0 0 0 0 1.32 4.577 4.577 0 0 0 3.82 2.46 4.577 4.577 0 0 0 3.82-2.46 1.3 1.3 0 0 0 0-1.32z" fill="rgb(0,0,0)"></path></svg>