<svg xmlns="http://www.w3.org/2000/svg" height="512" viewBox="0 0 100 100" width="512"><g id="Layer_2" data-name="Layer 2"><path d="m57.58 38.15c-3.62-3.76-9.44 2-5.69 5.68s9.42-2.03 5.69-5.68zm-2.85 4.36a1.53 1.53 0 0 1 0-3 1.53 1.53 0 0 1 0 3z"></path><path d="m13.68 86.57h-3.68a1.25 1.25 0 0 0 -1.25 1.25v5.93a1.25 1.25 0 0 0 1.25 1.25h75a1.25 1.25 0 0 0 1.25-1.25v-5.93a1.25 1.25 0 0 0 -1.25-1.25h-3.65c-.49-26-16-43.42-18.54-46.12a8 8 0 0 0 -1.54-4.23l8.95-9c1.42-1.33-1.59-3.09-2.22-4l6.62-6.62 1.38 1.4c1.13 1.16 2.93-.63 1.77-1.76-.08-.11-2.21-2.15-2.25-2.28-1.62-1.63-7.12-7.1-8.65-8.62-1.13-1.13-2.94.66-1.77 1.79l1.38 1.38-6.62 6.63c-.9-.64-2.66-3.64-4-2.22l-29.35 29.36c-1.12 1.07.51 2.26 1.21 3-.58 1-4.94 3.61-3.31 5.08l8.38 8.39a1.29 1.29 0 0 0 .89.36 1.25 1.25 0 0 0 .88-.36l3.31-3.31c.72.7 1.91 2.33 3 1.21l9.1-9.1a8 8 0 0 0 3.81 1.45c.9 3.27 3.9 15.66-.7 21.95-1.83 2.5-4.63 3.72-8.55 3.72h-7.36v-3h7.36a1.25 1.25 0 0 0 1.25-1.25v-5.89a1.25 1.25 0 0 0 -1.25-1.25h-32.62a1.24 1.24 0 0 0 -1.25 1.25v5.94a1.24 1.24 0 0 0 1.25 1.25h7.36v3.55c-4.42 2.4-5.38 8.62-5.59 11.3zm70.07 5.93h-72.5v-3.43h72.5zm-17.62-5.93c-2.27-16.11-1.74-27.91 1.47-31.57a3.23 3.23 0 0 1 1.79-1.13 68.59 68.59 0 0 1 9.48 32.74zm-11.4-40c-7.27.11-7.29-11.34 0-11.23 7.27-.07 7.27 11.37 0 11.26zm13.52-36.29 4.6 4.61-6.62 6.62-4.61-4.61zm-34.57 45.8-6.62-6.63 2.42-2.45 6.62 6.62zm6.32-2.08-10.84-10.84 27.59-27.59c2.74 2.77 8 8.07 10.82 10.81l-8 8.05c-7.17-5.5-16.83 4.18-11.34 11.34zm15.1 18.46c5.06-6.92 2.38-19.27 1.25-23.52a8.15 8.15 0 0 0 6-5.22 70.66 70.66 0 0 1 5.71 7.9 5.91 5.91 0 0 0 -2.36 1.7c-5 5.77-3.55 22.84-2.1 33.25h-47.41c.22-2.48 1.13-7.91 4.84-9.36h23.5c4.71 0 8.26-1.6 10.57-4.75zm-41.94-6.68h30.12v3.44h-30.12zm21.51 5.94v3h-12.9v-3z"></path></g></svg>